G04 #@! TF.GenerationSoftware,KiCad,Pcbnew,(6.0.6)*
G04 #@! TF.CreationDate,2022-07-23T12:01:03-05:00*
G04 #@! TF.ProjectId,v0,76302e6b-6963-4616-945f-706362585858,v0*
G04 #@! TF.SameCoordinates,Original*
G04 #@! TF.FileFunction,Soldermask,Bot*
G04 #@! TF.FilePolarity,Negative*
%FSLAX46Y46*%
G04 Gerber Fmt 4.6, Leading zero omitted, Abs format (unit mm)*
G04 Created by KiCad (PCBNEW (6.0.6)) date 2022-07-23 12:01:03*
%MOMM*%
%LPD*%
G01*
G04 APERTURE LIST*
G04 Aperture macros list*
%AMRoundRect*
0 Rectangle with rounded corners*
0 $1 Rounding radius*
0 $2 $3 $4 $5 $6 $7 $8 $9 X,Y pos of 4 corners*
0 Add a 4 corners polygon primitive as box body*
4,1,4,$2,$3,$4,$5,$6,$7,$8,$9,$2,$3,0*
0 Add four circle primitives for the rounded corners*
1,1,$1+$1,$2,$3*
1,1,$1+$1,$4,$5*
1,1,$1+$1,$6,$7*
1,1,$1+$1,$8,$9*
0 Add four rect primitives between the rounded corners*
20,1,$1+$1,$2,$3,$4,$5,0*
20,1,$1+$1,$4,$5,$6,$7,0*
20,1,$1+$1,$6,$7,$8,$9,0*
20,1,$1+$1,$8,$9,$2,$3,0*%
G04 Aperture macros list end*
%ADD10RoundRect,0.150000X-0.825000X-0.150000X0.825000X-0.150000X0.825000X0.150000X-0.825000X0.150000X0*%
%ADD11R,12.499340X8.001000*%
%ADD12R,59.999880X8.001000*%
%ADD13R,1.700000X1.700000*%
%ADD14O,1.700000X1.700000*%
%ADD15R,0.400000X0.900000*%
%ADD16RoundRect,0.250000X-0.412500X-0.650000X0.412500X-0.650000X0.412500X0.650000X-0.412500X0.650000X0*%
%ADD17RoundRect,0.250000X0.412500X0.650000X-0.412500X0.650000X-0.412500X-0.650000X0.412500X-0.650000X0*%
%ADD18R,3.500000X1.700000*%
%ADD19RoundRect,0.100000X0.637500X0.100000X-0.637500X0.100000X-0.637500X-0.100000X0.637500X-0.100000X0*%
%ADD20RoundRect,0.250000X0.625000X-0.400000X0.625000X0.400000X-0.625000X0.400000X-0.625000X-0.400000X0*%
G04 APERTURE END LIST*
D10*
X113325000Y-86355000D03*
X113325000Y-85085000D03*
X113325000Y-83815000D03*
X113325000Y-82545000D03*
X118275000Y-82545000D03*
X118275000Y-83815000D03*
X118275000Y-85085000D03*
X118275000Y-86355000D03*
D11*
X98449760Y-129800760D03*
X175950240Y-129800760D03*
D12*
X137200000Y-129800760D03*
D13*
X171700000Y-96500000D03*
D14*
X174240000Y-96500000D03*
X176780000Y-96500000D03*
X179320000Y-96500000D03*
X181860000Y-96500000D03*
D15*
X127200000Y-120450000D03*
X126400000Y-120450000D03*
X125600000Y-120450000D03*
X124800000Y-120450000D03*
X124800000Y-118750000D03*
X125600000Y-118750000D03*
X126400000Y-118750000D03*
X127200000Y-118750000D03*
D16*
X134462500Y-50925000D03*
X137587500Y-50925000D03*
D17*
X128112500Y-107000000D03*
X124987500Y-107000000D03*
D15*
X99600000Y-120450000D03*
X98800000Y-120450000D03*
X98000000Y-120450000D03*
X97200000Y-120450000D03*
X97200000Y-118750000D03*
X98000000Y-118750000D03*
X98800000Y-118750000D03*
X99600000Y-118750000D03*
X177200000Y-120450000D03*
X176400000Y-120450000D03*
X175600000Y-120450000D03*
X174800000Y-120450000D03*
X174800000Y-118750000D03*
X175600000Y-118750000D03*
X176400000Y-118750000D03*
X177200000Y-118750000D03*
D18*
X147090000Y-47570000D03*
D14*
X146190000Y-47570000D03*
D18*
X147090000Y-50110000D03*
D14*
X146190000Y-50110000D03*
D18*
X147090000Y-52650000D03*
D13*
X146190000Y-52650000D03*
D14*
X146190000Y-55190000D03*
D18*
X147090000Y-55190000D03*
D14*
X146190000Y-57730000D03*
D18*
X147090000Y-57730000D03*
X147090000Y-60270000D03*
D14*
X146190000Y-60270000D03*
X146190000Y-62810000D03*
D18*
X147090000Y-62810000D03*
X147090000Y-65350000D03*
D13*
X146190000Y-65350000D03*
D18*
X147090000Y-67890000D03*
D14*
X146190000Y-67890000D03*
D18*
X147090000Y-70430000D03*
D14*
X146190000Y-70430000D03*
X146190000Y-72970000D03*
D18*
X147090000Y-72970000D03*
D14*
X146190000Y-75510000D03*
D18*
X147090000Y-75510000D03*
D13*
X146190000Y-78050000D03*
D18*
X147090000Y-78050000D03*
X147090000Y-80590000D03*
D14*
X146190000Y-80590000D03*
X146190000Y-83130000D03*
D18*
X147090000Y-83130000D03*
X147090000Y-85670000D03*
D14*
X146190000Y-85670000D03*
X146190000Y-88210000D03*
D18*
X147090000Y-88210000D03*
D13*
X146190000Y-90750000D03*
D18*
X147090000Y-90750000D03*
D14*
X146190000Y-93290000D03*
D18*
X147090000Y-93290000D03*
X147090000Y-95830000D03*
D14*
X146190000Y-95830000D03*
D18*
X127510000Y-95830000D03*
D14*
X128410000Y-95830000D03*
D18*
X127510000Y-93290000D03*
D14*
X128410000Y-93290000D03*
D18*
X127510000Y-90750000D03*
D13*
X128410000Y-90750000D03*
D18*
X127510000Y-88210000D03*
D14*
X128410000Y-88210000D03*
D18*
X127510000Y-85670000D03*
D14*
X128410000Y-85670000D03*
X128410000Y-83130000D03*
D18*
X127510000Y-83130000D03*
D14*
X128410000Y-80590000D03*
D18*
X127510000Y-80590000D03*
D13*
X128410000Y-78050000D03*
D18*
X127510000Y-78050000D03*
X127510000Y-75510000D03*
D14*
X128410000Y-75510000D03*
D18*
X127510000Y-72970000D03*
D14*
X128410000Y-72970000D03*
X128410000Y-70430000D03*
D18*
X127510000Y-70430000D03*
D14*
X128410000Y-67890000D03*
D18*
X127510000Y-67890000D03*
X127510000Y-65350000D03*
D13*
X128410000Y-65350000D03*
D14*
X128410000Y-62810000D03*
D18*
X127510000Y-62810000D03*
X127510000Y-60270000D03*
D14*
X128410000Y-60270000D03*
D18*
X127510000Y-57730000D03*
D14*
X128410000Y-57730000D03*
D18*
X127510000Y-55190000D03*
D14*
X128410000Y-55190000D03*
D18*
X127510000Y-52650000D03*
D13*
X128410000Y-52650000D03*
D18*
X127510000Y-50110000D03*
D14*
X128410000Y-50110000D03*
X128410000Y-47570000D03*
D18*
X127510000Y-47570000D03*
D16*
X134462500Y-48525000D03*
X137587500Y-48525000D03*
D15*
X137100000Y-120450000D03*
X136300000Y-120450000D03*
X135500000Y-120450000D03*
X134700000Y-120450000D03*
X134700000Y-118750000D03*
X135500000Y-118750000D03*
X136300000Y-118750000D03*
X137100000Y-118750000D03*
X147100000Y-120450000D03*
X146300000Y-120450000D03*
X145500000Y-120450000D03*
X144700000Y-120450000D03*
X144700000Y-118750000D03*
X145500000Y-118750000D03*
X146300000Y-118750000D03*
X147100000Y-118750000D03*
D19*
X140187500Y-53250000D03*
X140187500Y-53900000D03*
X140187500Y-54550000D03*
X140187500Y-55200000D03*
X140187500Y-55850000D03*
X140187500Y-56500000D03*
X140187500Y-57150000D03*
X140187500Y-57800000D03*
X140187500Y-58450000D03*
X140187500Y-59100000D03*
X140187500Y-59750000D03*
X140187500Y-60400000D03*
X134462500Y-60400000D03*
X134462500Y-59750000D03*
X134462500Y-59100000D03*
X134462500Y-58450000D03*
X134462500Y-57800000D03*
X134462500Y-57150000D03*
X134462500Y-56500000D03*
X134462500Y-55850000D03*
X134462500Y-55200000D03*
X134462500Y-54550000D03*
X134462500Y-53900000D03*
X134462500Y-53250000D03*
D15*
X117200000Y-120450000D03*
X116400000Y-120450000D03*
X115600000Y-120450000D03*
X114800000Y-120450000D03*
X114800000Y-118750000D03*
X115600000Y-118750000D03*
X116400000Y-118750000D03*
X117200000Y-118750000D03*
X157200000Y-120450000D03*
X156400000Y-120450000D03*
X155600000Y-120450000D03*
X154800000Y-120450000D03*
X154800000Y-118750000D03*
X155600000Y-118750000D03*
X156400000Y-118750000D03*
X157200000Y-118750000D03*
D17*
X138875000Y-62975000D03*
X135750000Y-62975000D03*
D20*
X162200000Y-121050000D03*
X162200000Y-117950000D03*
D19*
X133862500Y-109625000D03*
X133862500Y-110275000D03*
X133862500Y-110925000D03*
X133862500Y-111575000D03*
X133862500Y-112225000D03*
X133862500Y-112875000D03*
X133862500Y-113525000D03*
X133862500Y-114175000D03*
X128137500Y-114175000D03*
X128137500Y-113525000D03*
X128137500Y-112875000D03*
X128137500Y-112225000D03*
X128137500Y-111575000D03*
X128137500Y-110925000D03*
X128137500Y-110275000D03*
X128137500Y-109625000D03*
M02*
