M48
; DRILL file {KiCad (6.0.6)} date Sat Jul 23 12:01:05 2022
; FORMAT={-:-/ absolute / metric / decimal}
; #@! TF.CreationDate,2022-07-23T12:01:05-05:00
; #@! TF.GenerationSoftware,Kicad,Pcbnew,(6.0.6)
; #@! TF.FileFunction,Plated,1,2,PTH
FMAT,2
METRIC
; #@! TA.AperFunction,Plated,PTH,ViaDrill
T1C0.400
; #@! TA.AperFunction,Plated,PTH,ComponentDrill
T2C1.000
; #@! TA.AperFunction,Plated,PTH,ComponentDrill
T3C1.020
%
G90
G05
T1
X110.496Y-111.874
X110.5Y-110.875
X110.518Y-112.877
X111.3Y-113.5
X116.45Y-110.3
X120.05Y-82.4
X120.1Y-84.3
X120.2Y-106.0
X120.7Y-114.1
X121.15Y-110.4
X126.5Y-113.15
X126.55Y-109.55
X129.7Y-109.55
X130.8Y-74.7
X131.0Y-73.4
X131.25Y-110.349
X132.3Y-108.6
X135.251Y-112.95
X135.7Y-65.0
X135.9Y-56.0
X135.9Y-57.2
X135.9Y-58.5
X136.0Y-111.15
X137.4Y-56.0
X139.1Y-110.6
X142.9Y-63.1
X142.9Y-64.4
X142.9Y-65.7
X148.888Y-111.788
X149.888Y-111.786
X150.887Y-111.788
X151.9Y-111.8
X154.6Y-110.2
X154.6Y-114.5
X155.0Y-75.1
X156.85Y-109.55
X156.85Y-115.5
X158.4Y-115.8
X158.5Y-119.9
X159.3Y-119.1
X163.0Y-107.2
X163.0Y-116.6
X164.1Y-115.8
X168.05Y-115.85
X172.8Y-100.4
X177.4Y-113.1
X177.7Y-109.8
X178.45Y-111.55
X182.275Y-113.15
X182.3Y-111.85
X184.4Y-120.1
T2
X171.7Y-96.5
X174.24Y-96.5
X176.78Y-96.5
X179.32Y-96.5
X181.86Y-96.5
T3
X128.41Y-47.57
X128.41Y-50.11
X128.41Y-52.65
X128.41Y-55.19
X128.41Y-57.73
X128.41Y-60.27
X128.41Y-62.81
X128.41Y-65.35
X128.41Y-67.89
X128.41Y-70.43
X128.41Y-72.97
X128.41Y-75.51
X128.41Y-78.05
X128.41Y-80.59
X128.41Y-83.13
X128.41Y-85.67
X128.41Y-88.21
X128.41Y-90.75
X128.41Y-93.29
X128.41Y-95.83
X146.19Y-47.57
X146.19Y-50.11
X146.19Y-52.65
X146.19Y-55.19
X146.19Y-57.73
X146.19Y-60.27
X146.19Y-62.81
X146.19Y-65.35
X146.19Y-67.89
X146.19Y-70.43
X146.19Y-72.97
X146.19Y-75.51
X146.19Y-78.05
X146.19Y-80.59
X146.19Y-83.13
X146.19Y-85.67
X146.19Y-88.21
X146.19Y-90.75
X146.19Y-93.29
X146.19Y-95.83
T0
M30
