G04 #@! TF.GenerationSoftware,KiCad,Pcbnew,(6.0.6)*
G04 #@! TF.CreationDate,2022-08-20T09:17:17-05:00*
G04 #@! TF.ProjectId,v1,76312e6b-6963-4616-945f-706362585858,v1*
G04 #@! TF.SameCoordinates,Original*
G04 #@! TF.FileFunction,Legend,Bot*
G04 #@! TF.FilePolarity,Positive*
%FSLAX46Y46*%
G04 Gerber Fmt 4.6, Leading zero omitted, Abs format (unit mm)*
G04 Created by KiCad (PCBNEW (6.0.6)) date 2022-08-20 09:17:17*
%MOMM*%
%LPD*%
G01*
G04 APERTURE LIST*
%ADD10C,0.150000*%
%ADD11C,0.120000*%
%ADD12O,1.700000X1.700000*%
%ADD13R,1.700000X1.700000*%
%ADD14C,2.000000*%
%ADD15R,12.499340X8.001000*%
%ADD16C,1.448000*%
%ADD17R,59.999880X8.001000*%
G04 APERTURE END LIST*
D10*
X103541071Y-73265000D02*
X103612500Y-73229285D01*
X103719642Y-73229285D01*
X103826785Y-73265000D01*
X103898214Y-73336428D01*
X103933928Y-73407857D01*
X103969642Y-73550714D01*
X103969642Y-73657857D01*
X103933928Y-73800714D01*
X103898214Y-73872142D01*
X103826785Y-73943571D01*
X103719642Y-73979285D01*
X103648214Y-73979285D01*
X103541071Y-73943571D01*
X103505357Y-73907857D01*
X103505357Y-73657857D01*
X103648214Y-73657857D01*
X103183928Y-73979285D02*
X103183928Y-73229285D01*
X102755357Y-73979285D01*
X102755357Y-73229285D01*
X102398214Y-73979285D02*
X102398214Y-73229285D01*
X102219642Y-73229285D01*
X102112500Y-73265000D01*
X102041071Y-73336428D01*
X102005357Y-73407857D01*
X101969642Y-73550714D01*
X101969642Y-73657857D01*
X102005357Y-73800714D01*
X102041071Y-73872142D01*
X102112500Y-73943571D01*
X102219642Y-73979285D01*
X102398214Y-73979285D01*
X92504642Y-68185000D02*
X92576071Y-68149285D01*
X92683214Y-68149285D01*
X92790357Y-68185000D01*
X92861785Y-68256428D01*
X92897500Y-68327857D01*
X92933214Y-68470714D01*
X92933214Y-68577857D01*
X92897500Y-68720714D01*
X92861785Y-68792142D01*
X92790357Y-68863571D01*
X92683214Y-68899285D01*
X92611785Y-68899285D01*
X92504642Y-68863571D01*
X92468928Y-68827857D01*
X92468928Y-68577857D01*
X92611785Y-68577857D01*
X92147500Y-68899285D02*
X92147500Y-68149285D01*
X91861785Y-68149285D01*
X91790357Y-68185000D01*
X91754642Y-68220714D01*
X91718928Y-68292142D01*
X91718928Y-68399285D01*
X91754642Y-68470714D01*
X91790357Y-68506428D01*
X91861785Y-68542142D01*
X92147500Y-68542142D01*
X91004642Y-68899285D02*
X91433214Y-68899285D01*
X91218928Y-68899285D02*
X91218928Y-68149285D01*
X91290357Y-68256428D01*
X91361785Y-68327857D01*
X91433214Y-68363571D01*
X90718928Y-68220714D02*
X90683214Y-68185000D01*
X90611785Y-68149285D01*
X90433214Y-68149285D01*
X90361785Y-68185000D01*
X90326071Y-68220714D01*
X90290357Y-68292142D01*
X90290357Y-68363571D01*
X90326071Y-68470714D01*
X90754642Y-68899285D01*
X90290357Y-68899285D01*
X91861785Y-35165000D02*
X91933214Y-35129285D01*
X92040357Y-35129285D01*
X92147500Y-35165000D01*
X92218928Y-35236428D01*
X92254642Y-35307857D01*
X92290357Y-35450714D01*
X92290357Y-35557857D01*
X92254642Y-35700714D01*
X92218928Y-35772142D01*
X92147500Y-35843571D01*
X92040357Y-35879285D01*
X91968928Y-35879285D01*
X91861785Y-35843571D01*
X91826071Y-35807857D01*
X91826071Y-35557857D01*
X91968928Y-35557857D01*
X91504642Y-35879285D02*
X91504642Y-35129285D01*
X91076071Y-35879285D01*
X91076071Y-35129285D01*
X90718928Y-35879285D02*
X90718928Y-35129285D01*
X90540357Y-35129285D01*
X90433214Y-35165000D01*
X90361785Y-35236428D01*
X90326071Y-35307857D01*
X90290357Y-35450714D01*
X90290357Y-35557857D01*
X90326071Y-35700714D01*
X90361785Y-35772142D01*
X90433214Y-35843571D01*
X90540357Y-35879285D01*
X90718928Y-35879285D01*
X91790357Y-42785000D02*
X91861785Y-42749285D01*
X91968928Y-42749285D01*
X92076071Y-42785000D01*
X92147500Y-42856428D01*
X92183214Y-42927857D01*
X92218928Y-43070714D01*
X92218928Y-43177857D01*
X92183214Y-43320714D01*
X92147500Y-43392142D01*
X92076071Y-43463571D01*
X91968928Y-43499285D01*
X91897500Y-43499285D01*
X91790357Y-43463571D01*
X91754642Y-43427857D01*
X91754642Y-43177857D01*
X91897500Y-43177857D01*
X91433214Y-43499285D02*
X91433214Y-42749285D01*
X91147500Y-42749285D01*
X91076071Y-42785000D01*
X91040357Y-42820714D01*
X91004642Y-42892142D01*
X91004642Y-42999285D01*
X91040357Y-43070714D01*
X91076071Y-43106428D01*
X91147500Y-43142142D01*
X91433214Y-43142142D01*
X90361785Y-42999285D02*
X90361785Y-43499285D01*
X90540357Y-42713571D02*
X90718928Y-43249285D01*
X90254642Y-43249285D01*
X103541071Y-60565000D02*
X103612500Y-60529285D01*
X103719642Y-60529285D01*
X103826785Y-60565000D01*
X103898214Y-60636428D01*
X103933928Y-60707857D01*
X103969642Y-60850714D01*
X103969642Y-60957857D01*
X103933928Y-61100714D01*
X103898214Y-61172142D01*
X103826785Y-61243571D01*
X103719642Y-61279285D01*
X103648214Y-61279285D01*
X103541071Y-61243571D01*
X103505357Y-61207857D01*
X103505357Y-60957857D01*
X103648214Y-60957857D01*
X103183928Y-61279285D02*
X103183928Y-60529285D01*
X102755357Y-61279285D01*
X102755357Y-60529285D01*
X102398214Y-61279285D02*
X102398214Y-60529285D01*
X102219642Y-60529285D01*
X102112500Y-60565000D01*
X102041071Y-60636428D01*
X102005357Y-60707857D01*
X101969642Y-60850714D01*
X101969642Y-60957857D01*
X102005357Y-61100714D01*
X102041071Y-61172142D01*
X102112500Y-61243571D01*
X102219642Y-61279285D01*
X102398214Y-61279285D01*
X103541071Y-58025000D02*
X103612500Y-57989285D01*
X103719642Y-57989285D01*
X103826785Y-58025000D01*
X103898214Y-58096428D01*
X103933928Y-58167857D01*
X103969642Y-58310714D01*
X103969642Y-58417857D01*
X103933928Y-58560714D01*
X103898214Y-58632142D01*
X103826785Y-58703571D01*
X103719642Y-58739285D01*
X103648214Y-58739285D01*
X103541071Y-58703571D01*
X103505357Y-58667857D01*
X103505357Y-58417857D01*
X103648214Y-58417857D01*
X103183928Y-58739285D02*
X103183928Y-57989285D01*
X102898214Y-57989285D01*
X102826785Y-58025000D01*
X102791071Y-58060714D01*
X102755357Y-58132142D01*
X102755357Y-58239285D01*
X102791071Y-58310714D01*
X102826785Y-58346428D01*
X102898214Y-58382142D01*
X103183928Y-58382142D01*
X102469642Y-58060714D02*
X102433928Y-58025000D01*
X102362500Y-57989285D01*
X102183928Y-57989285D01*
X102112500Y-58025000D01*
X102076785Y-58060714D01*
X102041071Y-58132142D01*
X102041071Y-58203571D01*
X102076785Y-58310714D01*
X102505357Y-58739285D01*
X102041071Y-58739285D01*
X101755357Y-58060714D02*
X101719642Y-58025000D01*
X101648214Y-57989285D01*
X101469642Y-57989285D01*
X101398214Y-58025000D01*
X101362500Y-58060714D01*
X101326785Y-58132142D01*
X101326785Y-58203571D01*
X101362500Y-58310714D01*
X101791071Y-58739285D01*
X101326785Y-58739285D01*
X103541071Y-68185000D02*
X103612500Y-68149285D01*
X103719642Y-68149285D01*
X103826785Y-68185000D01*
X103898214Y-68256428D01*
X103933928Y-68327857D01*
X103969642Y-68470714D01*
X103969642Y-68577857D01*
X103933928Y-68720714D01*
X103898214Y-68792142D01*
X103826785Y-68863571D01*
X103719642Y-68899285D01*
X103648214Y-68899285D01*
X103541071Y-68863571D01*
X103505357Y-68827857D01*
X103505357Y-68577857D01*
X103648214Y-68577857D01*
X103183928Y-68899285D02*
X103183928Y-68149285D01*
X102898214Y-68149285D01*
X102826785Y-68185000D01*
X102791071Y-68220714D01*
X102755357Y-68292142D01*
X102755357Y-68399285D01*
X102791071Y-68470714D01*
X102826785Y-68506428D01*
X102898214Y-68542142D01*
X103183928Y-68542142D01*
X102041071Y-68899285D02*
X102469642Y-68899285D01*
X102255357Y-68899285D02*
X102255357Y-68149285D01*
X102326785Y-68256428D01*
X102398214Y-68327857D01*
X102469642Y-68363571D01*
X101683928Y-68899285D02*
X101541071Y-68899285D01*
X101469642Y-68863571D01*
X101433928Y-68827857D01*
X101362500Y-68720714D01*
X101326785Y-68577857D01*
X101326785Y-68292142D01*
X101362500Y-68220714D01*
X101398214Y-68185000D01*
X101469642Y-68149285D01*
X101612500Y-68149285D01*
X101683928Y-68185000D01*
X101719642Y-68220714D01*
X101755357Y-68292142D01*
X101755357Y-68470714D01*
X101719642Y-68542142D01*
X101683928Y-68577857D01*
X101612500Y-68613571D01*
X101469642Y-68613571D01*
X101398214Y-68577857D01*
X101362500Y-68542142D01*
X101326785Y-68470714D01*
X103541071Y-45325000D02*
X103612500Y-45289285D01*
X103719642Y-45289285D01*
X103826785Y-45325000D01*
X103898214Y-45396428D01*
X103933928Y-45467857D01*
X103969642Y-45610714D01*
X103969642Y-45717857D01*
X103933928Y-45860714D01*
X103898214Y-45932142D01*
X103826785Y-46003571D01*
X103719642Y-46039285D01*
X103648214Y-46039285D01*
X103541071Y-46003571D01*
X103505357Y-45967857D01*
X103505357Y-45717857D01*
X103648214Y-45717857D01*
X103183928Y-46039285D02*
X103183928Y-45289285D01*
X102898214Y-45289285D01*
X102826785Y-45325000D01*
X102791071Y-45360714D01*
X102755357Y-45432142D01*
X102755357Y-45539285D01*
X102791071Y-45610714D01*
X102826785Y-45646428D01*
X102898214Y-45682142D01*
X103183928Y-45682142D01*
X102469642Y-45360714D02*
X102433928Y-45325000D01*
X102362500Y-45289285D01*
X102183928Y-45289285D01*
X102112500Y-45325000D01*
X102076785Y-45360714D01*
X102041071Y-45432142D01*
X102041071Y-45503571D01*
X102076785Y-45610714D01*
X102505357Y-46039285D01*
X102041071Y-46039285D01*
X101612500Y-45610714D02*
X101683928Y-45575000D01*
X101719642Y-45539285D01*
X101755357Y-45467857D01*
X101755357Y-45432142D01*
X101719642Y-45360714D01*
X101683928Y-45325000D01*
X101612500Y-45289285D01*
X101469642Y-45289285D01*
X101398214Y-45325000D01*
X101362500Y-45360714D01*
X101326785Y-45432142D01*
X101326785Y-45467857D01*
X101362500Y-45539285D01*
X101398214Y-45575000D01*
X101469642Y-45610714D01*
X101612500Y-45610714D01*
X101683928Y-45646428D01*
X101719642Y-45682142D01*
X101755357Y-45753571D01*
X101755357Y-45896428D01*
X101719642Y-45967857D01*
X101683928Y-46003571D01*
X101612500Y-46039285D01*
X101469642Y-46039285D01*
X101398214Y-46003571D01*
X101362500Y-45967857D01*
X101326785Y-45896428D01*
X101326785Y-45753571D01*
X101362500Y-45682142D01*
X101398214Y-45646428D01*
X101469642Y-45610714D01*
X91790357Y-32625000D02*
X91861785Y-32589285D01*
X91968928Y-32589285D01*
X92076071Y-32625000D01*
X92147500Y-32696428D01*
X92183214Y-32767857D01*
X92218928Y-32910714D01*
X92218928Y-33017857D01*
X92183214Y-33160714D01*
X92147500Y-33232142D01*
X92076071Y-33303571D01*
X91968928Y-33339285D01*
X91897500Y-33339285D01*
X91790357Y-33303571D01*
X91754642Y-33267857D01*
X91754642Y-33017857D01*
X91897500Y-33017857D01*
X91433214Y-33339285D02*
X91433214Y-32589285D01*
X91147500Y-32589285D01*
X91076071Y-32625000D01*
X91040357Y-32660714D01*
X91004642Y-32732142D01*
X91004642Y-32839285D01*
X91040357Y-32910714D01*
X91076071Y-32946428D01*
X91147500Y-32982142D01*
X91433214Y-32982142D01*
X90290357Y-33339285D02*
X90718928Y-33339285D01*
X90504642Y-33339285D02*
X90504642Y-32589285D01*
X90576071Y-32696428D01*
X90647500Y-32767857D01*
X90718928Y-32803571D01*
X92504642Y-65645000D02*
X92576071Y-65609285D01*
X92683214Y-65609285D01*
X92790357Y-65645000D01*
X92861785Y-65716428D01*
X92897500Y-65787857D01*
X92933214Y-65930714D01*
X92933214Y-66037857D01*
X92897500Y-66180714D01*
X92861785Y-66252142D01*
X92790357Y-66323571D01*
X92683214Y-66359285D01*
X92611785Y-66359285D01*
X92504642Y-66323571D01*
X92468928Y-66287857D01*
X92468928Y-66037857D01*
X92611785Y-66037857D01*
X92147500Y-66359285D02*
X92147500Y-65609285D01*
X91861785Y-65609285D01*
X91790357Y-65645000D01*
X91754642Y-65680714D01*
X91718928Y-65752142D01*
X91718928Y-65859285D01*
X91754642Y-65930714D01*
X91790357Y-65966428D01*
X91861785Y-66002142D01*
X92147500Y-66002142D01*
X91004642Y-66359285D02*
X91433214Y-66359285D01*
X91218928Y-66359285D02*
X91218928Y-65609285D01*
X91290357Y-65716428D01*
X91361785Y-65787857D01*
X91433214Y-65823571D01*
X90290357Y-66359285D02*
X90718928Y-66359285D01*
X90504642Y-66359285D02*
X90504642Y-65609285D01*
X90576071Y-65716428D01*
X90647500Y-65787857D01*
X90718928Y-65823571D01*
X92504642Y-63105000D02*
X92576071Y-63069285D01*
X92683214Y-63069285D01*
X92790357Y-63105000D01*
X92861785Y-63176428D01*
X92897500Y-63247857D01*
X92933214Y-63390714D01*
X92933214Y-63497857D01*
X92897500Y-63640714D01*
X92861785Y-63712142D01*
X92790357Y-63783571D01*
X92683214Y-63819285D01*
X92611785Y-63819285D01*
X92504642Y-63783571D01*
X92468928Y-63747857D01*
X92468928Y-63497857D01*
X92611785Y-63497857D01*
X92147500Y-63819285D02*
X92147500Y-63069285D01*
X91861785Y-63069285D01*
X91790357Y-63105000D01*
X91754642Y-63140714D01*
X91718928Y-63212142D01*
X91718928Y-63319285D01*
X91754642Y-63390714D01*
X91790357Y-63426428D01*
X91861785Y-63462142D01*
X92147500Y-63462142D01*
X91004642Y-63819285D02*
X91433214Y-63819285D01*
X91218928Y-63819285D02*
X91218928Y-63069285D01*
X91290357Y-63176428D01*
X91361785Y-63247857D01*
X91433214Y-63283571D01*
X90540357Y-63069285D02*
X90468928Y-63069285D01*
X90397500Y-63105000D01*
X90361785Y-63140714D01*
X90326071Y-63212142D01*
X90290357Y-63355000D01*
X90290357Y-63533571D01*
X90326071Y-63676428D01*
X90361785Y-63747857D01*
X90397500Y-63783571D01*
X90468928Y-63819285D01*
X90540357Y-63819285D01*
X90611785Y-63783571D01*
X90647500Y-63747857D01*
X90683214Y-63676428D01*
X90718928Y-63533571D01*
X90718928Y-63355000D01*
X90683214Y-63212142D01*
X90647500Y-63140714D01*
X90611785Y-63105000D01*
X90540357Y-63069285D01*
X104005357Y-40209285D02*
X103541071Y-40209285D01*
X103791071Y-40495000D01*
X103683928Y-40495000D01*
X103612500Y-40530714D01*
X103576785Y-40566428D01*
X103541071Y-40637857D01*
X103541071Y-40816428D01*
X103576785Y-40887857D01*
X103612500Y-40923571D01*
X103683928Y-40959285D01*
X103898214Y-40959285D01*
X103969642Y-40923571D01*
X104005357Y-40887857D01*
X103326785Y-40209285D02*
X103076785Y-40959285D01*
X102826785Y-40209285D01*
X102648214Y-40209285D02*
X102183928Y-40209285D01*
X102433928Y-40495000D01*
X102326785Y-40495000D01*
X102255357Y-40530714D01*
X102219642Y-40566428D01*
X102183928Y-40637857D01*
X102183928Y-40816428D01*
X102219642Y-40887857D01*
X102255357Y-40923571D01*
X102326785Y-40959285D01*
X102541071Y-40959285D01*
X102612500Y-40923571D01*
X102648214Y-40887857D01*
X101648214Y-41245000D02*
X101683928Y-41209285D01*
X101755357Y-41102142D01*
X101791071Y-41030714D01*
X101826785Y-40923571D01*
X101862500Y-40745000D01*
X101862500Y-40602142D01*
X101826785Y-40423571D01*
X101791071Y-40316428D01*
X101755357Y-40245000D01*
X101683928Y-40137857D01*
X101648214Y-40102142D01*
X101219642Y-40209285D02*
X101076785Y-40209285D01*
X101005357Y-40245000D01*
X100933928Y-40316428D01*
X100898214Y-40459285D01*
X100898214Y-40709285D01*
X100933928Y-40852142D01*
X101005357Y-40923571D01*
X101076785Y-40959285D01*
X101219642Y-40959285D01*
X101291071Y-40923571D01*
X101362500Y-40852142D01*
X101398214Y-40709285D01*
X101398214Y-40459285D01*
X101362500Y-40316428D01*
X101291071Y-40245000D01*
X101219642Y-40209285D01*
X100576785Y-40209285D02*
X100576785Y-40816428D01*
X100541071Y-40887857D01*
X100505357Y-40923571D01*
X100433928Y-40959285D01*
X100291071Y-40959285D01*
X100219642Y-40923571D01*
X100183928Y-40887857D01*
X100148214Y-40816428D01*
X100148214Y-40209285D01*
X99898214Y-40209285D02*
X99469642Y-40209285D01*
X99683928Y-40959285D02*
X99683928Y-40209285D01*
X99291071Y-41245000D02*
X99255357Y-41209285D01*
X99183928Y-41102142D01*
X99148214Y-41030714D01*
X99112500Y-40923571D01*
X99076785Y-40745000D01*
X99076785Y-40602142D01*
X99112500Y-40423571D01*
X99148214Y-40316428D01*
X99183928Y-40245000D01*
X99255357Y-40137857D01*
X99291071Y-40102142D01*
X91790357Y-45325000D02*
X91861785Y-45289285D01*
X91968928Y-45289285D01*
X92076071Y-45325000D01*
X92147500Y-45396428D01*
X92183214Y-45467857D01*
X92218928Y-45610714D01*
X92218928Y-45717857D01*
X92183214Y-45860714D01*
X92147500Y-45932142D01*
X92076071Y-46003571D01*
X91968928Y-46039285D01*
X91897500Y-46039285D01*
X91790357Y-46003571D01*
X91754642Y-45967857D01*
X91754642Y-45717857D01*
X91897500Y-45717857D01*
X91433214Y-46039285D02*
X91433214Y-45289285D01*
X91147500Y-45289285D01*
X91076071Y-45325000D01*
X91040357Y-45360714D01*
X91004642Y-45432142D01*
X91004642Y-45539285D01*
X91040357Y-45610714D01*
X91076071Y-45646428D01*
X91147500Y-45682142D01*
X91433214Y-45682142D01*
X90326071Y-45289285D02*
X90683214Y-45289285D01*
X90718928Y-45646428D01*
X90683214Y-45610714D01*
X90611785Y-45575000D01*
X90433214Y-45575000D01*
X90361785Y-45610714D01*
X90326071Y-45646428D01*
X90290357Y-45717857D01*
X90290357Y-45896428D01*
X90326071Y-45967857D01*
X90361785Y-46003571D01*
X90433214Y-46039285D01*
X90611785Y-46039285D01*
X90683214Y-46003571D01*
X90718928Y-45967857D01*
X103541071Y-52945000D02*
X103612500Y-52909285D01*
X103719642Y-52909285D01*
X103826785Y-52945000D01*
X103898214Y-53016428D01*
X103933928Y-53087857D01*
X103969642Y-53230714D01*
X103969642Y-53337857D01*
X103933928Y-53480714D01*
X103898214Y-53552142D01*
X103826785Y-53623571D01*
X103719642Y-53659285D01*
X103648214Y-53659285D01*
X103541071Y-53623571D01*
X103505357Y-53587857D01*
X103505357Y-53337857D01*
X103648214Y-53337857D01*
X103183928Y-53659285D02*
X103183928Y-52909285D01*
X102898214Y-52909285D01*
X102826785Y-52945000D01*
X102791071Y-52980714D01*
X102755357Y-53052142D01*
X102755357Y-53159285D01*
X102791071Y-53230714D01*
X102826785Y-53266428D01*
X102898214Y-53302142D01*
X103183928Y-53302142D01*
X102469642Y-52980714D02*
X102433928Y-52945000D01*
X102362500Y-52909285D01*
X102183928Y-52909285D01*
X102112500Y-52945000D01*
X102076785Y-52980714D01*
X102041071Y-53052142D01*
X102041071Y-53123571D01*
X102076785Y-53230714D01*
X102505357Y-53659285D01*
X102041071Y-53659285D01*
X101398214Y-52909285D02*
X101541071Y-52909285D01*
X101612500Y-52945000D01*
X101648214Y-52980714D01*
X101719642Y-53087857D01*
X101755357Y-53230714D01*
X101755357Y-53516428D01*
X101719642Y-53587857D01*
X101683928Y-53623571D01*
X101612500Y-53659285D01*
X101469642Y-53659285D01*
X101398214Y-53623571D01*
X101362500Y-53587857D01*
X101326785Y-53516428D01*
X101326785Y-53337857D01*
X101362500Y-53266428D01*
X101398214Y-53230714D01*
X101469642Y-53195000D01*
X101612500Y-53195000D01*
X101683928Y-53230714D01*
X101719642Y-53266428D01*
X101755357Y-53337857D01*
X103505357Y-56199285D02*
X103755357Y-55842142D01*
X103933928Y-56199285D02*
X103933928Y-55449285D01*
X103648214Y-55449285D01*
X103576785Y-55485000D01*
X103541071Y-55520714D01*
X103505357Y-55592142D01*
X103505357Y-55699285D01*
X103541071Y-55770714D01*
X103576785Y-55806428D01*
X103648214Y-55842142D01*
X103933928Y-55842142D01*
X103183928Y-55449285D02*
X103183928Y-56056428D01*
X103148214Y-56127857D01*
X103112500Y-56163571D01*
X103041071Y-56199285D01*
X102898214Y-56199285D01*
X102826785Y-56163571D01*
X102791071Y-56127857D01*
X102755357Y-56056428D01*
X102755357Y-55449285D01*
X102398214Y-56199285D02*
X102398214Y-55449285D01*
X101969642Y-56199285D01*
X101969642Y-55449285D01*
X103541071Y-70725000D02*
X103612500Y-70689285D01*
X103719642Y-70689285D01*
X103826785Y-70725000D01*
X103898214Y-70796428D01*
X103933928Y-70867857D01*
X103969642Y-71010714D01*
X103969642Y-71117857D01*
X103933928Y-71260714D01*
X103898214Y-71332142D01*
X103826785Y-71403571D01*
X103719642Y-71439285D01*
X103648214Y-71439285D01*
X103541071Y-71403571D01*
X103505357Y-71367857D01*
X103505357Y-71117857D01*
X103648214Y-71117857D01*
X103183928Y-71439285D02*
X103183928Y-70689285D01*
X102898214Y-70689285D01*
X102826785Y-70725000D01*
X102791071Y-70760714D01*
X102755357Y-70832142D01*
X102755357Y-70939285D01*
X102791071Y-71010714D01*
X102826785Y-71046428D01*
X102898214Y-71082142D01*
X103183928Y-71082142D01*
X102041071Y-71439285D02*
X102469642Y-71439285D01*
X102255357Y-71439285D02*
X102255357Y-70689285D01*
X102326785Y-70796428D01*
X102398214Y-70867857D01*
X102469642Y-70903571D01*
X101612500Y-71010714D02*
X101683928Y-70975000D01*
X101719642Y-70939285D01*
X101755357Y-70867857D01*
X101755357Y-70832142D01*
X101719642Y-70760714D01*
X101683928Y-70725000D01*
X101612500Y-70689285D01*
X101469642Y-70689285D01*
X101398214Y-70725000D01*
X101362500Y-70760714D01*
X101326785Y-70832142D01*
X101326785Y-70867857D01*
X101362500Y-70939285D01*
X101398214Y-70975000D01*
X101469642Y-71010714D01*
X101612500Y-71010714D01*
X101683928Y-71046428D01*
X101719642Y-71082142D01*
X101755357Y-71153571D01*
X101755357Y-71296428D01*
X101719642Y-71367857D01*
X101683928Y-71403571D01*
X101612500Y-71439285D01*
X101469642Y-71439285D01*
X101398214Y-71403571D01*
X101362500Y-71367857D01*
X101326785Y-71296428D01*
X101326785Y-71153571D01*
X101362500Y-71082142D01*
X101398214Y-71046428D01*
X101469642Y-71010714D01*
X92504642Y-78345000D02*
X92576071Y-78309285D01*
X92683214Y-78309285D01*
X92790357Y-78345000D01*
X92861785Y-78416428D01*
X92897500Y-78487857D01*
X92933214Y-78630714D01*
X92933214Y-78737857D01*
X92897500Y-78880714D01*
X92861785Y-78952142D01*
X92790357Y-79023571D01*
X92683214Y-79059285D01*
X92611785Y-79059285D01*
X92504642Y-79023571D01*
X92468928Y-78987857D01*
X92468928Y-78737857D01*
X92611785Y-78737857D01*
X92147500Y-79059285D02*
X92147500Y-78309285D01*
X91861785Y-78309285D01*
X91790357Y-78345000D01*
X91754642Y-78380714D01*
X91718928Y-78452142D01*
X91718928Y-78559285D01*
X91754642Y-78630714D01*
X91790357Y-78666428D01*
X91861785Y-78702142D01*
X92147500Y-78702142D01*
X91004642Y-79059285D02*
X91433214Y-79059285D01*
X91218928Y-79059285D02*
X91218928Y-78309285D01*
X91290357Y-78416428D01*
X91361785Y-78487857D01*
X91433214Y-78523571D01*
X90326071Y-78309285D02*
X90683214Y-78309285D01*
X90718928Y-78666428D01*
X90683214Y-78630714D01*
X90611785Y-78595000D01*
X90433214Y-78595000D01*
X90361785Y-78630714D01*
X90326071Y-78666428D01*
X90290357Y-78737857D01*
X90290357Y-78916428D01*
X90326071Y-78987857D01*
X90361785Y-79023571D01*
X90433214Y-79059285D01*
X90611785Y-79059285D01*
X90683214Y-79023571D01*
X90718928Y-78987857D01*
X91790357Y-52945000D02*
X91861785Y-52909285D01*
X91968928Y-52909285D01*
X92076071Y-52945000D01*
X92147500Y-53016428D01*
X92183214Y-53087857D01*
X92218928Y-53230714D01*
X92218928Y-53337857D01*
X92183214Y-53480714D01*
X92147500Y-53552142D01*
X92076071Y-53623571D01*
X91968928Y-53659285D01*
X91897500Y-53659285D01*
X91790357Y-53623571D01*
X91754642Y-53587857D01*
X91754642Y-53337857D01*
X91897500Y-53337857D01*
X91433214Y-53659285D02*
X91433214Y-52909285D01*
X91147500Y-52909285D01*
X91076071Y-52945000D01*
X91040357Y-52980714D01*
X91004642Y-53052142D01*
X91004642Y-53159285D01*
X91040357Y-53230714D01*
X91076071Y-53266428D01*
X91147500Y-53302142D01*
X91433214Y-53302142D01*
X90754642Y-52909285D02*
X90254642Y-52909285D01*
X90576071Y-53659285D01*
X91861785Y-60565000D02*
X91933214Y-60529285D01*
X92040357Y-60529285D01*
X92147500Y-60565000D01*
X92218928Y-60636428D01*
X92254642Y-60707857D01*
X92290357Y-60850714D01*
X92290357Y-60957857D01*
X92254642Y-61100714D01*
X92218928Y-61172142D01*
X92147500Y-61243571D01*
X92040357Y-61279285D01*
X91968928Y-61279285D01*
X91861785Y-61243571D01*
X91826071Y-61207857D01*
X91826071Y-60957857D01*
X91968928Y-60957857D01*
X91504642Y-61279285D02*
X91504642Y-60529285D01*
X91076071Y-61279285D01*
X91076071Y-60529285D01*
X90718928Y-61279285D02*
X90718928Y-60529285D01*
X90540357Y-60529285D01*
X90433214Y-60565000D01*
X90361785Y-60636428D01*
X90326071Y-60707857D01*
X90290357Y-60850714D01*
X90290357Y-60957857D01*
X90326071Y-61100714D01*
X90361785Y-61172142D01*
X90433214Y-61243571D01*
X90540357Y-61279285D01*
X90718928Y-61279285D01*
X91861785Y-73265000D02*
X91933214Y-73229285D01*
X92040357Y-73229285D01*
X92147500Y-73265000D01*
X92218928Y-73336428D01*
X92254642Y-73407857D01*
X92290357Y-73550714D01*
X92290357Y-73657857D01*
X92254642Y-73800714D01*
X92218928Y-73872142D01*
X92147500Y-73943571D01*
X92040357Y-73979285D01*
X91968928Y-73979285D01*
X91861785Y-73943571D01*
X91826071Y-73907857D01*
X91826071Y-73657857D01*
X91968928Y-73657857D01*
X91504642Y-73979285D02*
X91504642Y-73229285D01*
X91076071Y-73979285D01*
X91076071Y-73229285D01*
X90718928Y-73979285D02*
X90718928Y-73229285D01*
X90540357Y-73229285D01*
X90433214Y-73265000D01*
X90361785Y-73336428D01*
X90326071Y-73407857D01*
X90290357Y-73550714D01*
X90290357Y-73657857D01*
X90326071Y-73800714D01*
X90361785Y-73872142D01*
X90433214Y-73943571D01*
X90540357Y-73979285D01*
X90718928Y-73979285D01*
X91861785Y-47865000D02*
X91933214Y-47829285D01*
X92040357Y-47829285D01*
X92147500Y-47865000D01*
X92218928Y-47936428D01*
X92254642Y-48007857D01*
X92290357Y-48150714D01*
X92290357Y-48257857D01*
X92254642Y-48400714D01*
X92218928Y-48472142D01*
X92147500Y-48543571D01*
X92040357Y-48579285D01*
X91968928Y-48579285D01*
X91861785Y-48543571D01*
X91826071Y-48507857D01*
X91826071Y-48257857D01*
X91968928Y-48257857D01*
X91504642Y-48579285D02*
X91504642Y-47829285D01*
X91076071Y-48579285D01*
X91076071Y-47829285D01*
X90718928Y-48579285D02*
X90718928Y-47829285D01*
X90540357Y-47829285D01*
X90433214Y-47865000D01*
X90361785Y-47936428D01*
X90326071Y-48007857D01*
X90290357Y-48150714D01*
X90290357Y-48257857D01*
X90326071Y-48400714D01*
X90361785Y-48472142D01*
X90433214Y-48543571D01*
X90540357Y-48579285D01*
X90718928Y-48579285D01*
X104041071Y-30049285D02*
X103791071Y-30799285D01*
X103541071Y-30049285D01*
X103041071Y-30406428D02*
X102933928Y-30442142D01*
X102898214Y-30477857D01*
X102862500Y-30549285D01*
X102862500Y-30656428D01*
X102898214Y-30727857D01*
X102933928Y-30763571D01*
X103005357Y-30799285D01*
X103291071Y-30799285D01*
X103291071Y-30049285D01*
X103041071Y-30049285D01*
X102969642Y-30085000D01*
X102933928Y-30120714D01*
X102898214Y-30192142D01*
X102898214Y-30263571D01*
X102933928Y-30335000D01*
X102969642Y-30370714D01*
X103041071Y-30406428D01*
X103291071Y-30406428D01*
X102541071Y-30049285D02*
X102541071Y-30656428D01*
X102505357Y-30727857D01*
X102469642Y-30763571D01*
X102398214Y-30799285D01*
X102255357Y-30799285D01*
X102183928Y-30763571D01*
X102148214Y-30727857D01*
X102112500Y-30656428D01*
X102112500Y-30049285D01*
X101791071Y-30763571D02*
X101683928Y-30799285D01*
X101505357Y-30799285D01*
X101433928Y-30763571D01*
X101398214Y-30727857D01*
X101362500Y-30656428D01*
X101362500Y-30585000D01*
X101398214Y-30513571D01*
X101433928Y-30477857D01*
X101505357Y-30442142D01*
X101648214Y-30406428D01*
X101719642Y-30370714D01*
X101755357Y-30335000D01*
X101791071Y-30263571D01*
X101791071Y-30192142D01*
X101755357Y-30120714D01*
X101719642Y-30085000D01*
X101648214Y-30049285D01*
X101469642Y-30049285D01*
X101362500Y-30085000D01*
X103541071Y-75805000D02*
X103612500Y-75769285D01*
X103719642Y-75769285D01*
X103826785Y-75805000D01*
X103898214Y-75876428D01*
X103933928Y-75947857D01*
X103969642Y-76090714D01*
X103969642Y-76197857D01*
X103933928Y-76340714D01*
X103898214Y-76412142D01*
X103826785Y-76483571D01*
X103719642Y-76519285D01*
X103648214Y-76519285D01*
X103541071Y-76483571D01*
X103505357Y-76447857D01*
X103505357Y-76197857D01*
X103648214Y-76197857D01*
X103183928Y-76519285D02*
X103183928Y-75769285D01*
X102898214Y-75769285D01*
X102826785Y-75805000D01*
X102791071Y-75840714D01*
X102755357Y-75912142D01*
X102755357Y-76019285D01*
X102791071Y-76090714D01*
X102826785Y-76126428D01*
X102898214Y-76162142D01*
X103183928Y-76162142D01*
X102041071Y-76519285D02*
X102469642Y-76519285D01*
X102255357Y-76519285D02*
X102255357Y-75769285D01*
X102326785Y-75876428D01*
X102398214Y-75947857D01*
X102469642Y-75983571D01*
X101791071Y-75769285D02*
X101291071Y-75769285D01*
X101612500Y-76519285D01*
X103541071Y-63105000D02*
X103612500Y-63069285D01*
X103719642Y-63069285D01*
X103826785Y-63105000D01*
X103898214Y-63176428D01*
X103933928Y-63247857D01*
X103969642Y-63390714D01*
X103969642Y-63497857D01*
X103933928Y-63640714D01*
X103898214Y-63712142D01*
X103826785Y-63783571D01*
X103719642Y-63819285D01*
X103648214Y-63819285D01*
X103541071Y-63783571D01*
X103505357Y-63747857D01*
X103505357Y-63497857D01*
X103648214Y-63497857D01*
X103183928Y-63819285D02*
X103183928Y-63069285D01*
X102898214Y-63069285D01*
X102826785Y-63105000D01*
X102791071Y-63140714D01*
X102755357Y-63212142D01*
X102755357Y-63319285D01*
X102791071Y-63390714D01*
X102826785Y-63426428D01*
X102898214Y-63462142D01*
X103183928Y-63462142D01*
X102469642Y-63140714D02*
X102433928Y-63105000D01*
X102362500Y-63069285D01*
X102183928Y-63069285D01*
X102112500Y-63105000D01*
X102076785Y-63140714D01*
X102041071Y-63212142D01*
X102041071Y-63283571D01*
X102076785Y-63390714D01*
X102505357Y-63819285D01*
X102041071Y-63819285D01*
X101326785Y-63819285D02*
X101755357Y-63819285D01*
X101541071Y-63819285D02*
X101541071Y-63069285D01*
X101612500Y-63176428D01*
X101683928Y-63247857D01*
X101755357Y-63283571D01*
X104041071Y-32589285D02*
X103791071Y-33339285D01*
X103541071Y-32589285D01*
X103326785Y-33303571D02*
X103219642Y-33339285D01*
X103041071Y-33339285D01*
X102969642Y-33303571D01*
X102933928Y-33267857D01*
X102898214Y-33196428D01*
X102898214Y-33125000D01*
X102933928Y-33053571D01*
X102969642Y-33017857D01*
X103041071Y-32982142D01*
X103183928Y-32946428D01*
X103255357Y-32910714D01*
X103291071Y-32875000D01*
X103326785Y-32803571D01*
X103326785Y-32732142D01*
X103291071Y-32660714D01*
X103255357Y-32625000D01*
X103183928Y-32589285D01*
X103005357Y-32589285D01*
X102898214Y-32625000D01*
X102433928Y-32982142D02*
X102433928Y-33339285D01*
X102683928Y-32589285D02*
X102433928Y-32982142D01*
X102183928Y-32589285D01*
X101969642Y-33303571D02*
X101862500Y-33339285D01*
X101683928Y-33339285D01*
X101612500Y-33303571D01*
X101576785Y-33267857D01*
X101541071Y-33196428D01*
X101541071Y-33125000D01*
X101576785Y-33053571D01*
X101612500Y-33017857D01*
X101683928Y-32982142D01*
X101826785Y-32946428D01*
X101898214Y-32910714D01*
X101933928Y-32875000D01*
X101969642Y-32803571D01*
X101969642Y-32732142D01*
X101933928Y-32660714D01*
X101898214Y-32625000D01*
X101826785Y-32589285D01*
X101648214Y-32589285D01*
X101541071Y-32625000D01*
X92504642Y-70725000D02*
X92576071Y-70689285D01*
X92683214Y-70689285D01*
X92790357Y-70725000D01*
X92861785Y-70796428D01*
X92897500Y-70867857D01*
X92933214Y-71010714D01*
X92933214Y-71117857D01*
X92897500Y-71260714D01*
X92861785Y-71332142D01*
X92790357Y-71403571D01*
X92683214Y-71439285D01*
X92611785Y-71439285D01*
X92504642Y-71403571D01*
X92468928Y-71367857D01*
X92468928Y-71117857D01*
X92611785Y-71117857D01*
X92147500Y-71439285D02*
X92147500Y-70689285D01*
X91861785Y-70689285D01*
X91790357Y-70725000D01*
X91754642Y-70760714D01*
X91718928Y-70832142D01*
X91718928Y-70939285D01*
X91754642Y-71010714D01*
X91790357Y-71046428D01*
X91861785Y-71082142D01*
X92147500Y-71082142D01*
X91004642Y-71439285D02*
X91433214Y-71439285D01*
X91218928Y-71439285D02*
X91218928Y-70689285D01*
X91290357Y-70796428D01*
X91361785Y-70867857D01*
X91433214Y-70903571D01*
X90754642Y-70689285D02*
X90290357Y-70689285D01*
X90540357Y-70975000D01*
X90433214Y-70975000D01*
X90361785Y-71010714D01*
X90326071Y-71046428D01*
X90290357Y-71117857D01*
X90290357Y-71296428D01*
X90326071Y-71367857D01*
X90361785Y-71403571D01*
X90433214Y-71439285D01*
X90647500Y-71439285D01*
X90718928Y-71403571D01*
X90754642Y-71367857D01*
X91790357Y-30085000D02*
X91861785Y-30049285D01*
X91968928Y-30049285D01*
X92076071Y-30085000D01*
X92147500Y-30156428D01*
X92183214Y-30227857D01*
X92218928Y-30370714D01*
X92218928Y-30477857D01*
X92183214Y-30620714D01*
X92147500Y-30692142D01*
X92076071Y-30763571D01*
X91968928Y-30799285D01*
X91897500Y-30799285D01*
X91790357Y-30763571D01*
X91754642Y-30727857D01*
X91754642Y-30477857D01*
X91897500Y-30477857D01*
X91433214Y-30799285D02*
X91433214Y-30049285D01*
X91147500Y-30049285D01*
X91076071Y-30085000D01*
X91040357Y-30120714D01*
X91004642Y-30192142D01*
X91004642Y-30299285D01*
X91040357Y-30370714D01*
X91076071Y-30406428D01*
X91147500Y-30442142D01*
X91433214Y-30442142D01*
X90540357Y-30049285D02*
X90468928Y-30049285D01*
X90397500Y-30085000D01*
X90361785Y-30120714D01*
X90326071Y-30192142D01*
X90290357Y-30335000D01*
X90290357Y-30513571D01*
X90326071Y-30656428D01*
X90361785Y-30727857D01*
X90397500Y-30763571D01*
X90468928Y-30799285D01*
X90540357Y-30799285D01*
X90611785Y-30763571D01*
X90647500Y-30727857D01*
X90683214Y-30656428D01*
X90718928Y-30513571D01*
X90718928Y-30335000D01*
X90683214Y-30192142D01*
X90647500Y-30120714D01*
X90611785Y-30085000D01*
X90540357Y-30049285D01*
X103969642Y-43285000D02*
X103612500Y-43285000D01*
X104041071Y-43499285D02*
X103791071Y-42749285D01*
X103541071Y-43499285D01*
X103291071Y-43499285D02*
X103291071Y-42749285D01*
X103112500Y-42749285D01*
X103005357Y-42785000D01*
X102933928Y-42856428D01*
X102898214Y-42927857D01*
X102862500Y-43070714D01*
X102862500Y-43177857D01*
X102898214Y-43320714D01*
X102933928Y-43392142D01*
X103005357Y-43463571D01*
X103112500Y-43499285D01*
X103291071Y-43499285D01*
X102112500Y-43427857D02*
X102148214Y-43463571D01*
X102255357Y-43499285D01*
X102326785Y-43499285D01*
X102433928Y-43463571D01*
X102505357Y-43392142D01*
X102541071Y-43320714D01*
X102576785Y-43177857D01*
X102576785Y-43070714D01*
X102541071Y-42927857D01*
X102505357Y-42856428D01*
X102433928Y-42785000D01*
X102326785Y-42749285D01*
X102255357Y-42749285D01*
X102148214Y-42785000D01*
X102112500Y-42820714D01*
X101969642Y-43570714D02*
X101398214Y-43570714D01*
X101326785Y-42749285D02*
X101076785Y-43499285D01*
X100826785Y-42749285D01*
X100148214Y-43499285D02*
X100398214Y-43142142D01*
X100576785Y-43499285D02*
X100576785Y-42749285D01*
X100291071Y-42749285D01*
X100219642Y-42785000D01*
X100183928Y-42820714D01*
X100148214Y-42892142D01*
X100148214Y-42999285D01*
X100183928Y-43070714D01*
X100219642Y-43106428D01*
X100291071Y-43142142D01*
X100576785Y-43142142D01*
X99826785Y-43106428D02*
X99576785Y-43106428D01*
X99469642Y-43499285D02*
X99826785Y-43499285D01*
X99826785Y-42749285D01*
X99469642Y-42749285D01*
X98755357Y-42785000D02*
X98826785Y-42749285D01*
X98933928Y-42749285D01*
X99041071Y-42785000D01*
X99112500Y-42856428D01*
X99148214Y-42927857D01*
X99183928Y-43070714D01*
X99183928Y-43177857D01*
X99148214Y-43320714D01*
X99112500Y-43392142D01*
X99041071Y-43463571D01*
X98933928Y-43499285D01*
X98862500Y-43499285D01*
X98755357Y-43463571D01*
X98719642Y-43427857D01*
X98719642Y-43177857D01*
X98862500Y-43177857D01*
X104005357Y-37669285D02*
X103541071Y-37669285D01*
X103791071Y-37955000D01*
X103683928Y-37955000D01*
X103612500Y-37990714D01*
X103576785Y-38026428D01*
X103541071Y-38097857D01*
X103541071Y-38276428D01*
X103576785Y-38347857D01*
X103612500Y-38383571D01*
X103683928Y-38419285D01*
X103898214Y-38419285D01*
X103969642Y-38383571D01*
X104005357Y-38347857D01*
X103326785Y-37669285D02*
X103076785Y-38419285D01*
X102826785Y-37669285D01*
X102648214Y-37669285D02*
X102183928Y-37669285D01*
X102433928Y-37955000D01*
X102326785Y-37955000D01*
X102255357Y-37990714D01*
X102219642Y-38026428D01*
X102183928Y-38097857D01*
X102183928Y-38276428D01*
X102219642Y-38347857D01*
X102255357Y-38383571D01*
X102326785Y-38419285D01*
X102541071Y-38419285D01*
X102612500Y-38383571D01*
X102648214Y-38347857D01*
X102041071Y-38490714D02*
X101469642Y-38490714D01*
X101291071Y-38026428D02*
X101041071Y-38026428D01*
X100933928Y-38419285D02*
X101291071Y-38419285D01*
X101291071Y-37669285D01*
X100933928Y-37669285D01*
X100612500Y-38419285D02*
X100612500Y-37669285D01*
X100183928Y-38419285D01*
X100183928Y-37669285D01*
X91790357Y-58025000D02*
X91861785Y-57989285D01*
X91968928Y-57989285D01*
X92076071Y-58025000D01*
X92147500Y-58096428D01*
X92183214Y-58167857D01*
X92218928Y-58310714D01*
X92218928Y-58417857D01*
X92183214Y-58560714D01*
X92147500Y-58632142D01*
X92076071Y-58703571D01*
X91968928Y-58739285D01*
X91897500Y-58739285D01*
X91790357Y-58703571D01*
X91754642Y-58667857D01*
X91754642Y-58417857D01*
X91897500Y-58417857D01*
X91433214Y-58739285D02*
X91433214Y-57989285D01*
X91147500Y-57989285D01*
X91076071Y-58025000D01*
X91040357Y-58060714D01*
X91004642Y-58132142D01*
X91004642Y-58239285D01*
X91040357Y-58310714D01*
X91076071Y-58346428D01*
X91147500Y-58382142D01*
X91433214Y-58382142D01*
X90647500Y-58739285D02*
X90504642Y-58739285D01*
X90433214Y-58703571D01*
X90397500Y-58667857D01*
X90326071Y-58560714D01*
X90290357Y-58417857D01*
X90290357Y-58132142D01*
X90326071Y-58060714D01*
X90361785Y-58025000D01*
X90433214Y-57989285D01*
X90576071Y-57989285D01*
X90647500Y-58025000D01*
X90683214Y-58060714D01*
X90718928Y-58132142D01*
X90718928Y-58310714D01*
X90683214Y-58382142D01*
X90647500Y-58417857D01*
X90576071Y-58453571D01*
X90433214Y-58453571D01*
X90361785Y-58417857D01*
X90326071Y-58382142D01*
X90290357Y-58310714D01*
X92504642Y-75805000D02*
X92576071Y-75769285D01*
X92683214Y-75769285D01*
X92790357Y-75805000D01*
X92861785Y-75876428D01*
X92897500Y-75947857D01*
X92933214Y-76090714D01*
X92933214Y-76197857D01*
X92897500Y-76340714D01*
X92861785Y-76412142D01*
X92790357Y-76483571D01*
X92683214Y-76519285D01*
X92611785Y-76519285D01*
X92504642Y-76483571D01*
X92468928Y-76447857D01*
X92468928Y-76197857D01*
X92611785Y-76197857D01*
X92147500Y-76519285D02*
X92147500Y-75769285D01*
X91861785Y-75769285D01*
X91790357Y-75805000D01*
X91754642Y-75840714D01*
X91718928Y-75912142D01*
X91718928Y-76019285D01*
X91754642Y-76090714D01*
X91790357Y-76126428D01*
X91861785Y-76162142D01*
X92147500Y-76162142D01*
X91004642Y-76519285D02*
X91433214Y-76519285D01*
X91218928Y-76519285D02*
X91218928Y-75769285D01*
X91290357Y-75876428D01*
X91361785Y-75947857D01*
X91433214Y-75983571D01*
X90361785Y-76019285D02*
X90361785Y-76519285D01*
X90540357Y-75733571D02*
X90718928Y-76269285D01*
X90254642Y-76269285D01*
X91790357Y-55485000D02*
X91861785Y-55449285D01*
X91968928Y-55449285D01*
X92076071Y-55485000D01*
X92147500Y-55556428D01*
X92183214Y-55627857D01*
X92218928Y-55770714D01*
X92218928Y-55877857D01*
X92183214Y-56020714D01*
X92147500Y-56092142D01*
X92076071Y-56163571D01*
X91968928Y-56199285D01*
X91897500Y-56199285D01*
X91790357Y-56163571D01*
X91754642Y-56127857D01*
X91754642Y-55877857D01*
X91897500Y-55877857D01*
X91433214Y-56199285D02*
X91433214Y-55449285D01*
X91147500Y-55449285D01*
X91076071Y-55485000D01*
X91040357Y-55520714D01*
X91004642Y-55592142D01*
X91004642Y-55699285D01*
X91040357Y-55770714D01*
X91076071Y-55806428D01*
X91147500Y-55842142D01*
X91433214Y-55842142D01*
X90576071Y-55770714D02*
X90647500Y-55735000D01*
X90683214Y-55699285D01*
X90718928Y-55627857D01*
X90718928Y-55592142D01*
X90683214Y-55520714D01*
X90647500Y-55485000D01*
X90576071Y-55449285D01*
X90433214Y-55449285D01*
X90361785Y-55485000D01*
X90326071Y-55520714D01*
X90290357Y-55592142D01*
X90290357Y-55627857D01*
X90326071Y-55699285D01*
X90361785Y-55735000D01*
X90433214Y-55770714D01*
X90576071Y-55770714D01*
X90647500Y-55806428D01*
X90683214Y-55842142D01*
X90718928Y-55913571D01*
X90718928Y-56056428D01*
X90683214Y-56127857D01*
X90647500Y-56163571D01*
X90576071Y-56199285D01*
X90433214Y-56199285D01*
X90361785Y-56163571D01*
X90326071Y-56127857D01*
X90290357Y-56056428D01*
X90290357Y-55913571D01*
X90326071Y-55842142D01*
X90361785Y-55806428D01*
X90433214Y-55770714D01*
X103541071Y-78345000D02*
X103612500Y-78309285D01*
X103719642Y-78309285D01*
X103826785Y-78345000D01*
X103898214Y-78416428D01*
X103933928Y-78487857D01*
X103969642Y-78630714D01*
X103969642Y-78737857D01*
X103933928Y-78880714D01*
X103898214Y-78952142D01*
X103826785Y-79023571D01*
X103719642Y-79059285D01*
X103648214Y-79059285D01*
X103541071Y-79023571D01*
X103505357Y-78987857D01*
X103505357Y-78737857D01*
X103648214Y-78737857D01*
X103183928Y-79059285D02*
X103183928Y-78309285D01*
X102898214Y-78309285D01*
X102826785Y-78345000D01*
X102791071Y-78380714D01*
X102755357Y-78452142D01*
X102755357Y-78559285D01*
X102791071Y-78630714D01*
X102826785Y-78666428D01*
X102898214Y-78702142D01*
X103183928Y-78702142D01*
X102041071Y-79059285D02*
X102469642Y-79059285D01*
X102255357Y-79059285D02*
X102255357Y-78309285D01*
X102326785Y-78416428D01*
X102398214Y-78487857D01*
X102469642Y-78523571D01*
X101398214Y-78309285D02*
X101541071Y-78309285D01*
X101612500Y-78345000D01*
X101648214Y-78380714D01*
X101719642Y-78487857D01*
X101755357Y-78630714D01*
X101755357Y-78916428D01*
X101719642Y-78987857D01*
X101683928Y-79023571D01*
X101612500Y-79059285D01*
X101469642Y-79059285D01*
X101398214Y-79023571D01*
X101362500Y-78987857D01*
X101326785Y-78916428D01*
X101326785Y-78737857D01*
X101362500Y-78666428D01*
X101398214Y-78630714D01*
X101469642Y-78595000D01*
X101612500Y-78595000D01*
X101683928Y-78630714D01*
X101719642Y-78666428D01*
X101755357Y-78737857D01*
X91790357Y-50405000D02*
X91861785Y-50369285D01*
X91968928Y-50369285D01*
X92076071Y-50405000D01*
X92147500Y-50476428D01*
X92183214Y-50547857D01*
X92218928Y-50690714D01*
X92218928Y-50797857D01*
X92183214Y-50940714D01*
X92147500Y-51012142D01*
X92076071Y-51083571D01*
X91968928Y-51119285D01*
X91897500Y-51119285D01*
X91790357Y-51083571D01*
X91754642Y-51047857D01*
X91754642Y-50797857D01*
X91897500Y-50797857D01*
X91433214Y-51119285D02*
X91433214Y-50369285D01*
X91147500Y-50369285D01*
X91076071Y-50405000D01*
X91040357Y-50440714D01*
X91004642Y-50512142D01*
X91004642Y-50619285D01*
X91040357Y-50690714D01*
X91076071Y-50726428D01*
X91147500Y-50762142D01*
X91433214Y-50762142D01*
X90361785Y-50369285D02*
X90504642Y-50369285D01*
X90576071Y-50405000D01*
X90611785Y-50440714D01*
X90683214Y-50547857D01*
X90718928Y-50690714D01*
X90718928Y-50976428D01*
X90683214Y-51047857D01*
X90647500Y-51083571D01*
X90576071Y-51119285D01*
X90433214Y-51119285D01*
X90361785Y-51083571D01*
X90326071Y-51047857D01*
X90290357Y-50976428D01*
X90290357Y-50797857D01*
X90326071Y-50726428D01*
X90361785Y-50690714D01*
X90433214Y-50655000D01*
X90576071Y-50655000D01*
X90647500Y-50690714D01*
X90683214Y-50726428D01*
X90718928Y-50797857D01*
X103541071Y-47865000D02*
X103612500Y-47829285D01*
X103719642Y-47829285D01*
X103826785Y-47865000D01*
X103898214Y-47936428D01*
X103933928Y-48007857D01*
X103969642Y-48150714D01*
X103969642Y-48257857D01*
X103933928Y-48400714D01*
X103898214Y-48472142D01*
X103826785Y-48543571D01*
X103719642Y-48579285D01*
X103648214Y-48579285D01*
X103541071Y-48543571D01*
X103505357Y-48507857D01*
X103505357Y-48257857D01*
X103648214Y-48257857D01*
X103183928Y-48579285D02*
X103183928Y-47829285D01*
X102755357Y-48579285D01*
X102755357Y-47829285D01*
X102398214Y-48579285D02*
X102398214Y-47829285D01*
X102219642Y-47829285D01*
X102112500Y-47865000D01*
X102041071Y-47936428D01*
X102005357Y-48007857D01*
X101969642Y-48150714D01*
X101969642Y-48257857D01*
X102005357Y-48400714D01*
X102041071Y-48472142D01*
X102112500Y-48543571D01*
X102219642Y-48579285D01*
X102398214Y-48579285D01*
X103541071Y-35165000D02*
X103612500Y-35129285D01*
X103719642Y-35129285D01*
X103826785Y-35165000D01*
X103898214Y-35236428D01*
X103933928Y-35307857D01*
X103969642Y-35450714D01*
X103969642Y-35557857D01*
X103933928Y-35700714D01*
X103898214Y-35772142D01*
X103826785Y-35843571D01*
X103719642Y-35879285D01*
X103648214Y-35879285D01*
X103541071Y-35843571D01*
X103505357Y-35807857D01*
X103505357Y-35557857D01*
X103648214Y-35557857D01*
X103183928Y-35879285D02*
X103183928Y-35129285D01*
X102755357Y-35879285D01*
X102755357Y-35129285D01*
X102398214Y-35879285D02*
X102398214Y-35129285D01*
X102219642Y-35129285D01*
X102112500Y-35165000D01*
X102041071Y-35236428D01*
X102005357Y-35307857D01*
X101969642Y-35450714D01*
X101969642Y-35557857D01*
X102005357Y-35700714D01*
X102041071Y-35772142D01*
X102112500Y-35843571D01*
X102219642Y-35879285D01*
X102398214Y-35879285D01*
X91790357Y-40245000D02*
X91861785Y-40209285D01*
X91968928Y-40209285D01*
X92076071Y-40245000D01*
X92147500Y-40316428D01*
X92183214Y-40387857D01*
X92218928Y-40530714D01*
X92218928Y-40637857D01*
X92183214Y-40780714D01*
X92147500Y-40852142D01*
X92076071Y-40923571D01*
X91968928Y-40959285D01*
X91897500Y-40959285D01*
X91790357Y-40923571D01*
X91754642Y-40887857D01*
X91754642Y-40637857D01*
X91897500Y-40637857D01*
X91433214Y-40959285D02*
X91433214Y-40209285D01*
X91147500Y-40209285D01*
X91076071Y-40245000D01*
X91040357Y-40280714D01*
X91004642Y-40352142D01*
X91004642Y-40459285D01*
X91040357Y-40530714D01*
X91076071Y-40566428D01*
X91147500Y-40602142D01*
X91433214Y-40602142D01*
X90754642Y-40209285D02*
X90290357Y-40209285D01*
X90540357Y-40495000D01*
X90433214Y-40495000D01*
X90361785Y-40530714D01*
X90326071Y-40566428D01*
X90290357Y-40637857D01*
X90290357Y-40816428D01*
X90326071Y-40887857D01*
X90361785Y-40923571D01*
X90433214Y-40959285D01*
X90647500Y-40959285D01*
X90718928Y-40923571D01*
X90754642Y-40887857D01*
X91790357Y-37705000D02*
X91861785Y-37669285D01*
X91968928Y-37669285D01*
X92076071Y-37705000D01*
X92147500Y-37776428D01*
X92183214Y-37847857D01*
X92218928Y-37990714D01*
X92218928Y-38097857D01*
X92183214Y-38240714D01*
X92147500Y-38312142D01*
X92076071Y-38383571D01*
X91968928Y-38419285D01*
X91897500Y-38419285D01*
X91790357Y-38383571D01*
X91754642Y-38347857D01*
X91754642Y-38097857D01*
X91897500Y-38097857D01*
X91433214Y-38419285D02*
X91433214Y-37669285D01*
X91147500Y-37669285D01*
X91076071Y-37705000D01*
X91040357Y-37740714D01*
X91004642Y-37812142D01*
X91004642Y-37919285D01*
X91040357Y-37990714D01*
X91076071Y-38026428D01*
X91147500Y-38062142D01*
X91433214Y-38062142D01*
X90718928Y-37740714D02*
X90683214Y-37705000D01*
X90611785Y-37669285D01*
X90433214Y-37669285D01*
X90361785Y-37705000D01*
X90326071Y-37740714D01*
X90290357Y-37812142D01*
X90290357Y-37883571D01*
X90326071Y-37990714D01*
X90754642Y-38419285D01*
X90290357Y-38419285D01*
X103541071Y-65645000D02*
X103612500Y-65609285D01*
X103719642Y-65609285D01*
X103826785Y-65645000D01*
X103898214Y-65716428D01*
X103933928Y-65787857D01*
X103969642Y-65930714D01*
X103969642Y-66037857D01*
X103933928Y-66180714D01*
X103898214Y-66252142D01*
X103826785Y-66323571D01*
X103719642Y-66359285D01*
X103648214Y-66359285D01*
X103541071Y-66323571D01*
X103505357Y-66287857D01*
X103505357Y-66037857D01*
X103648214Y-66037857D01*
X103183928Y-66359285D02*
X103183928Y-65609285D01*
X102898214Y-65609285D01*
X102826785Y-65645000D01*
X102791071Y-65680714D01*
X102755357Y-65752142D01*
X102755357Y-65859285D01*
X102791071Y-65930714D01*
X102826785Y-65966428D01*
X102898214Y-66002142D01*
X103183928Y-66002142D01*
X102469642Y-65680714D02*
X102433928Y-65645000D01*
X102362500Y-65609285D01*
X102183928Y-65609285D01*
X102112500Y-65645000D01*
X102076785Y-65680714D01*
X102041071Y-65752142D01*
X102041071Y-65823571D01*
X102076785Y-65930714D01*
X102505357Y-66359285D01*
X102041071Y-66359285D01*
X101576785Y-65609285D02*
X101505357Y-65609285D01*
X101433928Y-65645000D01*
X101398214Y-65680714D01*
X101362500Y-65752142D01*
X101326785Y-65895000D01*
X101326785Y-66073571D01*
X101362500Y-66216428D01*
X101398214Y-66287857D01*
X101433928Y-66323571D01*
X101505357Y-66359285D01*
X101576785Y-66359285D01*
X101648214Y-66323571D01*
X101683928Y-66287857D01*
X101719642Y-66216428D01*
X101755357Y-66073571D01*
X101755357Y-65895000D01*
X101719642Y-65752142D01*
X101683928Y-65680714D01*
X101648214Y-65645000D01*
X101576785Y-65609285D01*
X103541071Y-50405000D02*
X103612500Y-50369285D01*
X103719642Y-50369285D01*
X103826785Y-50405000D01*
X103898214Y-50476428D01*
X103933928Y-50547857D01*
X103969642Y-50690714D01*
X103969642Y-50797857D01*
X103933928Y-50940714D01*
X103898214Y-51012142D01*
X103826785Y-51083571D01*
X103719642Y-51119285D01*
X103648214Y-51119285D01*
X103541071Y-51083571D01*
X103505357Y-51047857D01*
X103505357Y-50797857D01*
X103648214Y-50797857D01*
X103183928Y-51119285D02*
X103183928Y-50369285D01*
X102898214Y-50369285D01*
X102826785Y-50405000D01*
X102791071Y-50440714D01*
X102755357Y-50512142D01*
X102755357Y-50619285D01*
X102791071Y-50690714D01*
X102826785Y-50726428D01*
X102898214Y-50762142D01*
X103183928Y-50762142D01*
X102469642Y-50440714D02*
X102433928Y-50405000D01*
X102362500Y-50369285D01*
X102183928Y-50369285D01*
X102112500Y-50405000D01*
X102076785Y-50440714D01*
X102041071Y-50512142D01*
X102041071Y-50583571D01*
X102076785Y-50690714D01*
X102505357Y-51119285D01*
X102041071Y-51119285D01*
X101791071Y-50369285D02*
X101291071Y-50369285D01*
X101612500Y-51119285D01*
X186953823Y-29930757D02*
X186953823Y-28930757D01*
X186953823Y-29311710D02*
X186858584Y-29264091D01*
X186668108Y-29264091D01*
X186572870Y-29311710D01*
X186525251Y-29359329D01*
X186477632Y-29454567D01*
X186477632Y-29740281D01*
X186525251Y-29835519D01*
X186572870Y-29883138D01*
X186668108Y-29930757D01*
X186858584Y-29930757D01*
X186953823Y-29883138D01*
X185620489Y-29930757D02*
X185620489Y-29406948D01*
X185668108Y-29311710D01*
X185763346Y-29264091D01*
X185953823Y-29264091D01*
X186049061Y-29311710D01*
X185620489Y-29883138D02*
X185715727Y-29930757D01*
X185953823Y-29930757D01*
X186049061Y-29883138D01*
X186096680Y-29787900D01*
X186096680Y-29692662D01*
X186049061Y-29597424D01*
X185953823Y-29549805D01*
X185715727Y-29549805D01*
X185620489Y-29502186D01*
X184715727Y-29883138D02*
X184810965Y-29930757D01*
X185001442Y-29930757D01*
X185096680Y-29883138D01*
X185144299Y-29835519D01*
X185191918Y-29740281D01*
X185191918Y-29454567D01*
X185144299Y-29359329D01*
X185096680Y-29311710D01*
X185001442Y-29264091D01*
X184810965Y-29264091D01*
X184715727Y-29311710D01*
X184287156Y-29930757D02*
X184287156Y-28930757D01*
X184191918Y-29549805D02*
X183906203Y-29930757D01*
X183906203Y-29264091D02*
X184287156Y-29645043D01*
D11*
X191024860Y-88849240D02*
X83324860Y-88849240D01*
%LPC*%
D12*
X88250000Y-30460000D03*
X88250000Y-33000000D03*
D13*
X88250000Y-35540000D03*
D12*
X88250000Y-38080000D03*
X88250000Y-40620000D03*
X88250000Y-43160000D03*
X88250000Y-45700000D03*
D13*
X88250000Y-48240000D03*
D12*
X88250000Y-50780000D03*
X88250000Y-53320000D03*
X88250000Y-55860000D03*
X88250000Y-58400000D03*
D13*
X88250000Y-60940000D03*
D12*
X88250000Y-63480000D03*
X88250000Y-66020000D03*
X88250000Y-68560000D03*
X88250000Y-71100000D03*
D13*
X88250000Y-73640000D03*
D12*
X88250000Y-76180000D03*
X88250000Y-78720000D03*
X106030000Y-78720000D03*
X106030000Y-76180000D03*
D13*
X106030000Y-73640000D03*
D12*
X106030000Y-71100000D03*
X106030000Y-68560000D03*
X106030000Y-66020000D03*
X106030000Y-63480000D03*
D13*
X106030000Y-60940000D03*
D12*
X106030000Y-58400000D03*
X106030000Y-55860000D03*
X106030000Y-53320000D03*
X106030000Y-50780000D03*
D13*
X106030000Y-48240000D03*
D12*
X106030000Y-45700000D03*
X106030000Y-43160000D03*
X106030000Y-40620000D03*
X106030000Y-38080000D03*
D13*
X106030000Y-35540000D03*
D12*
X106030000Y-33000000D03*
X106030000Y-30460000D03*
D13*
X176625000Y-34000000D03*
D12*
X176625000Y-36540000D03*
D13*
X173830000Y-74140000D03*
D12*
X176370000Y-74140000D03*
X178910000Y-74140000D03*
X181450000Y-74140000D03*
X183990000Y-74140000D03*
D13*
X172930000Y-34000000D03*
D12*
X172930000Y-36540000D03*
D14*
X169880000Y-49200000D03*
X160220000Y-49200000D03*
D13*
X154760000Y-40610000D03*
D12*
X154760000Y-43150000D03*
D13*
X184000000Y-34000000D03*
D12*
X184000000Y-36540000D03*
D13*
X180320000Y-34000000D03*
D12*
X180320000Y-36540000D03*
D15*
X175925100Y-129850000D03*
D16*
X186501660Y-121457840D03*
X182513860Y-29738440D03*
D15*
X98424620Y-129850000D03*
D17*
X137174860Y-129850000D03*
D16*
X87695660Y-121432440D03*
D14*
X165050000Y-49070000D03*
D13*
X160220000Y-40610000D03*
D12*
X160220000Y-43150000D03*
D13*
X89795000Y-84140000D03*
D12*
X92335000Y-84140000D03*
X94875000Y-84140000D03*
M02*
