G04 #@! TF.GenerationSoftware,KiCad,Pcbnew,(6.0.6)*
G04 #@! TF.CreationDate,2022-08-20T09:17:17-05:00*
G04 #@! TF.ProjectId,v1,76312e6b-6963-4616-945f-706362585858,v1*
G04 #@! TF.SameCoordinates,Original*
G04 #@! TF.FileFunction,Profile,NP*
%FSLAX46Y46*%
G04 Gerber Fmt 4.6, Leading zero omitted, Abs format (unit mm)*
G04 Created by KiCad (PCBNEW (6.0.6)) date 2022-08-20 09:17:17*
%MOMM*%
%LPD*%
G01*
G04 APERTURE LIST*
G04 #@! TA.AperFunction,Profile*
%ADD10C,0.101600*%
G04 #@! TD*
G04 #@! TA.AperFunction,Profile*
%ADD11C,0.099060*%
G04 #@! TD*
G04 #@! TA.AperFunction,Profile*
%ADD12C,0.120000*%
G04 #@! TD*
G04 APERTURE END LIST*
D10*
X104675560Y-122550040D02*
X104675560Y-133149460D01*
X169674160Y-122550040D02*
X169674160Y-133149460D01*
X107174920Y-133149460D02*
X107174920Y-122550040D01*
X167174800Y-122550040D02*
X169674160Y-122550040D01*
X86275560Y-122748160D02*
X92173680Y-122748160D01*
D11*
X86275560Y-28468440D02*
X86275560Y-122748160D01*
X187774160Y-28468440D02*
X187774200Y-122748160D01*
D12*
X86275560Y-28468440D02*
X187774160Y-28468440D01*
D11*
X182176040Y-122748160D02*
X182176040Y-133149460D01*
D10*
X182176040Y-122748160D02*
X187774200Y-122748160D01*
X167174800Y-133149460D02*
X167174800Y-122550040D01*
X107875960Y-133850500D02*
X166473760Y-133850500D01*
D11*
X92173680Y-122748160D02*
X92173680Y-133149460D01*
D10*
X107174920Y-122550040D02*
X104675560Y-122550040D01*
X170375200Y-133850500D02*
X181475000Y-133850500D01*
X103974520Y-133850500D02*
X92874720Y-133850500D01*
D11*
X181475000Y-133850520D02*
G75*
G03*
X182176040Y-133149460I-40J701080D01*
G01*
X107174920Y-133149460D02*
G75*
G03*
X107875960Y-133850500I701040J0D01*
G01*
X166473760Y-133850480D02*
G75*
G03*
X167174800Y-133149460I0J701040D01*
G01*
X92173680Y-133149460D02*
G75*
G03*
X92874720Y-133850500I701040J0D01*
G01*
X169674200Y-133149460D02*
G75*
G03*
X170375200Y-133850500I700960J-80D01*
G01*
X103974520Y-133850500D02*
G75*
G03*
X104675560Y-133149460I0J701040D01*
G01*
M02*
