G04 #@! TF.GenerationSoftware,KiCad,Pcbnew,(6.0.6)*
G04 #@! TF.CreationDate,2022-08-20T09:17:17-05:00*
G04 #@! TF.ProjectId,v1,76312e6b-6963-4616-945f-706362585858,v1*
G04 #@! TF.SameCoordinates,Original*
G04 #@! TF.FileFunction,Legend,Top*
G04 #@! TF.FilePolarity,Positive*
%FSLAX46Y46*%
G04 Gerber Fmt 4.6, Leading zero omitted, Abs format (unit mm)*
G04 Created by KiCad (PCBNEW (6.0.6)) date 2022-08-20 09:17:17*
%MOMM*%
%LPD*%
G01*
G04 APERTURE LIST*
G04 Aperture macros list*
%AMRoundRect*
0 Rectangle with rounded corners*
0 $1 Rounding radius*
0 $2 $3 $4 $5 $6 $7 $8 $9 X,Y pos of 4 corners*
0 Add a 4 corners polygon primitive as box body*
4,1,4,$2,$3,$4,$5,$6,$7,$8,$9,$2,$3,0*
0 Add four circle primitives for the rounded corners*
1,1,$1+$1,$2,$3*
1,1,$1+$1,$4,$5*
1,1,$1+$1,$6,$7*
1,1,$1+$1,$8,$9*
0 Add four rect primitives between the rounded corners*
20,1,$1+$1,$2,$3,$4,$5,0*
20,1,$1+$1,$4,$5,$6,$7,0*
20,1,$1+$1,$6,$7,$8,$9,0*
20,1,$1+$1,$8,$9,$2,$3,0*%
G04 Aperture macros list end*
%ADD10C,0.250000*%
%ADD11C,0.150000*%
%ADD12C,0.120000*%
%ADD13R,0.400000X0.900000*%
%ADD14RoundRect,0.250000X-0.412500X-0.650000X0.412500X-0.650000X0.412500X0.650000X-0.412500X0.650000X0*%
%ADD15RoundRect,0.250000X0.650000X-0.412500X0.650000X0.412500X-0.650000X0.412500X-0.650000X-0.412500X0*%
%ADD16O,1.700000X1.700000*%
%ADD17R,1.700000X1.700000*%
%ADD18RoundRect,0.250000X0.412500X0.650000X-0.412500X0.650000X-0.412500X-0.650000X0.412500X-0.650000X0*%
%ADD19RoundRect,0.100000X0.100000X-0.637500X0.100000X0.637500X-0.100000X0.637500X-0.100000X-0.637500X0*%
%ADD20RoundRect,0.250000X-0.650000X0.412500X-0.650000X-0.412500X0.650000X-0.412500X0.650000X0.412500X0*%
%ADD21C,2.000000*%
%ADD22RoundRect,0.250000X0.625000X-0.400000X0.625000X0.400000X-0.625000X0.400000X-0.625000X-0.400000X0*%
%ADD23RoundRect,0.250000X0.400000X0.625000X-0.400000X0.625000X-0.400000X-0.625000X0.400000X-0.625000X0*%
%ADD24RoundRect,0.100000X-0.100000X0.637500X-0.100000X-0.637500X0.100000X-0.637500X0.100000X0.637500X0*%
%ADD25RoundRect,0.150000X0.150000X-0.825000X0.150000X0.825000X-0.150000X0.825000X-0.150000X-0.825000X0*%
%ADD26R,1.500000X2.000000*%
%ADD27R,3.800000X2.000000*%
%ADD28RoundRect,0.250000X-0.625000X0.400000X-0.625000X-0.400000X0.625000X-0.400000X0.625000X0.400000X0*%
%ADD29R,12.499340X8.001000*%
%ADD30C,1.448000*%
%ADD31R,59.999880X8.001000*%
%ADD32R,1.560000X0.650000*%
%ADD33R,1.800000X3.500000*%
%ADD34RoundRect,0.150000X-0.825000X-0.150000X0.825000X-0.150000X0.825000X0.150000X-0.825000X0.150000X0*%
G04 APERTURE END LIST*
D10*
X94284761Y-86987142D02*
X94237142Y-87034761D01*
X94094285Y-87082380D01*
X93999047Y-87082380D01*
X93856190Y-87034761D01*
X93760952Y-86939523D01*
X93713333Y-86844285D01*
X93665714Y-86653809D01*
X93665714Y-86510952D01*
X93713333Y-86320476D01*
X93760952Y-86225238D01*
X93856190Y-86130000D01*
X93999047Y-86082380D01*
X94094285Y-86082380D01*
X94237142Y-86130000D01*
X94284761Y-86177619D01*
X95189523Y-87082380D02*
X94713333Y-87082380D01*
X94713333Y-86082380D01*
X95522857Y-87082380D02*
X95522857Y-86082380D01*
X96094285Y-87082380D02*
X95665714Y-86510952D01*
X96094285Y-86082380D02*
X95522857Y-86653809D01*
X87728571Y-85870000D02*
X88871428Y-85870000D01*
X87871428Y-86152380D02*
X88109523Y-87152380D01*
X88300000Y-86438095D01*
X88490476Y-87152380D01*
X88728571Y-86152380D01*
X88871428Y-85870000D02*
X89871428Y-85870000D01*
X89680952Y-87152380D02*
X89347619Y-86676190D01*
X89109523Y-87152380D02*
X89109523Y-86152380D01*
X89490476Y-86152380D01*
X89585714Y-86200000D01*
X89633333Y-86247619D01*
X89680952Y-86342857D01*
X89680952Y-86485714D01*
X89633333Y-86580952D01*
X89585714Y-86628571D01*
X89490476Y-86676190D01*
X89109523Y-86676190D01*
X89871428Y-85870000D02*
X90728571Y-85870000D01*
X90061904Y-86866666D02*
X90538095Y-86866666D01*
X89966666Y-87152380D02*
X90300000Y-86152380D01*
X90633333Y-87152380D01*
X90728571Y-85870000D02*
X91871428Y-85870000D01*
X90966666Y-87152380D02*
X90966666Y-86152380D01*
X91300000Y-86866666D01*
X91633333Y-86152380D01*
X91633333Y-87152380D01*
D11*
X146327380Y-120166666D02*
X145851190Y-120500000D01*
X146327380Y-120738095D02*
X145327380Y-120738095D01*
X145327380Y-120357142D01*
X145375000Y-120261904D01*
X145422619Y-120214285D01*
X145517857Y-120166666D01*
X145660714Y-120166666D01*
X145755952Y-120214285D01*
X145803571Y-120261904D01*
X145851190Y-120357142D01*
X145851190Y-120738095D01*
X146327380Y-119738095D02*
X145327380Y-119738095D01*
X146327380Y-119166666D01*
X145327380Y-119166666D01*
X146327380Y-118166666D02*
X146327380Y-118738095D01*
X146327380Y-118452380D02*
X145327380Y-118452380D01*
X145470238Y-118547619D01*
X145565476Y-118642857D01*
X145613095Y-118738095D01*
X145422619Y-117785714D02*
X145375000Y-117738095D01*
X145327380Y-117642857D01*
X145327380Y-117404761D01*
X145375000Y-117309523D01*
X145422619Y-117261904D01*
X145517857Y-117214285D01*
X145613095Y-117214285D01*
X145755952Y-117261904D01*
X146327380Y-117833333D01*
X146327380Y-117214285D01*
X98802380Y-119690476D02*
X98326190Y-120023809D01*
X98802380Y-120261904D02*
X97802380Y-120261904D01*
X97802380Y-119880952D01*
X97850000Y-119785714D01*
X97897619Y-119738095D01*
X97992857Y-119690476D01*
X98135714Y-119690476D01*
X98230952Y-119738095D01*
X98278571Y-119785714D01*
X98326190Y-119880952D01*
X98326190Y-120261904D01*
X98802380Y-119261904D02*
X97802380Y-119261904D01*
X98802380Y-118690476D01*
X97802380Y-118690476D01*
X98230952Y-118071428D02*
X98183333Y-118166666D01*
X98135714Y-118214285D01*
X98040476Y-118261904D01*
X97992857Y-118261904D01*
X97897619Y-118214285D01*
X97850000Y-118166666D01*
X97802380Y-118071428D01*
X97802380Y-117880952D01*
X97850000Y-117785714D01*
X97897619Y-117738095D01*
X97992857Y-117690476D01*
X98040476Y-117690476D01*
X98135714Y-117738095D01*
X98183333Y-117785714D01*
X98230952Y-117880952D01*
X98230952Y-118071428D01*
X98278571Y-118166666D01*
X98326190Y-118214285D01*
X98421428Y-118261904D01*
X98611904Y-118261904D01*
X98707142Y-118214285D01*
X98754761Y-118166666D01*
X98802380Y-118071428D01*
X98802380Y-117880952D01*
X98754761Y-117785714D01*
X98707142Y-117738095D01*
X98611904Y-117690476D01*
X98421428Y-117690476D01*
X98326190Y-117738095D01*
X98278571Y-117785714D01*
X98230952Y-117880952D01*
X131252380Y-119690476D02*
X130776190Y-120023809D01*
X131252380Y-120261904D02*
X130252380Y-120261904D01*
X130252380Y-119880952D01*
X130300000Y-119785714D01*
X130347619Y-119738095D01*
X130442857Y-119690476D01*
X130585714Y-119690476D01*
X130680952Y-119738095D01*
X130728571Y-119785714D01*
X130776190Y-119880952D01*
X130776190Y-120261904D01*
X131252380Y-119261904D02*
X130252380Y-119261904D01*
X131252380Y-118690476D01*
X130252380Y-118690476D01*
X130585714Y-117785714D02*
X131252380Y-117785714D01*
X130204761Y-118023809D02*
X130919047Y-118261904D01*
X130919047Y-117642857D01*
X97323333Y-102637142D02*
X97275714Y-102684761D01*
X97132857Y-102732380D01*
X97037619Y-102732380D01*
X96894761Y-102684761D01*
X96799523Y-102589523D01*
X96751904Y-102494285D01*
X96704285Y-102303809D01*
X96704285Y-102160952D01*
X96751904Y-101970476D01*
X96799523Y-101875238D01*
X96894761Y-101780000D01*
X97037619Y-101732380D01*
X97132857Y-101732380D01*
X97275714Y-101780000D01*
X97323333Y-101827619D01*
X97656666Y-101732380D02*
X98323333Y-101732380D01*
X97894761Y-102732380D01*
X165447142Y-86197142D02*
X165399523Y-86244761D01*
X165256666Y-86292380D01*
X165161428Y-86292380D01*
X165018571Y-86244761D01*
X164923333Y-86149523D01*
X164875714Y-86054285D01*
X164828095Y-85863809D01*
X164828095Y-85720952D01*
X164875714Y-85530476D01*
X164923333Y-85435238D01*
X165018571Y-85340000D01*
X165161428Y-85292380D01*
X165256666Y-85292380D01*
X165399523Y-85340000D01*
X165447142Y-85387619D01*
X166399523Y-86292380D02*
X165828095Y-86292380D01*
X166113809Y-86292380D02*
X166113809Y-85292380D01*
X166018571Y-85435238D01*
X165923333Y-85530476D01*
X165828095Y-85578095D01*
X167256666Y-85625714D02*
X167256666Y-86292380D01*
X167018571Y-85244761D02*
X166780476Y-85959047D01*
X167399523Y-85959047D01*
X95002857Y-56172380D02*
X95002857Y-55172380D01*
X95383809Y-55172380D01*
X95479047Y-55220000D01*
X95526666Y-55267619D01*
X95574285Y-55362857D01*
X95574285Y-55505714D01*
X95526666Y-55600952D01*
X95479047Y-55648571D01*
X95383809Y-55696190D01*
X95002857Y-55696190D01*
X96002857Y-56172380D02*
X96002857Y-55505714D01*
X96002857Y-55172380D02*
X95955238Y-55220000D01*
X96002857Y-55267619D01*
X96050476Y-55220000D01*
X96002857Y-55172380D01*
X96002857Y-55267619D01*
X96907619Y-56124761D02*
X96812380Y-56172380D01*
X96621904Y-56172380D01*
X96526666Y-56124761D01*
X96479047Y-56077142D01*
X96431428Y-55981904D01*
X96431428Y-55696190D01*
X96479047Y-55600952D01*
X96526666Y-55553333D01*
X96621904Y-55505714D01*
X96812380Y-55505714D01*
X96907619Y-55553333D01*
X97479047Y-56172380D02*
X97383809Y-56124761D01*
X97336190Y-56077142D01*
X97288571Y-55981904D01*
X97288571Y-55696190D01*
X97336190Y-55600952D01*
X97383809Y-55553333D01*
X97479047Y-55505714D01*
X97621904Y-55505714D01*
X97717142Y-55553333D01*
X97764761Y-55600952D01*
X97812380Y-55696190D01*
X97812380Y-55981904D01*
X97764761Y-56077142D01*
X97717142Y-56124761D01*
X97621904Y-56172380D01*
X97479047Y-56172380D01*
X98764761Y-56172380D02*
X98193333Y-56172380D01*
X98479047Y-56172380D02*
X98479047Y-55172380D01*
X98383809Y-55315238D01*
X98288571Y-55410476D01*
X98193333Y-55458095D01*
X90718928Y-30085000D02*
X90647500Y-30049285D01*
X90540357Y-30049285D01*
X90433214Y-30085000D01*
X90361785Y-30156428D01*
X90326071Y-30227857D01*
X90290357Y-30370714D01*
X90290357Y-30477857D01*
X90326071Y-30620714D01*
X90361785Y-30692142D01*
X90433214Y-30763571D01*
X90540357Y-30799285D01*
X90611785Y-30799285D01*
X90718928Y-30763571D01*
X90754642Y-30727857D01*
X90754642Y-30477857D01*
X90611785Y-30477857D01*
X91076071Y-30799285D02*
X91076071Y-30049285D01*
X91361785Y-30049285D01*
X91433214Y-30085000D01*
X91468928Y-30120714D01*
X91504642Y-30192142D01*
X91504642Y-30299285D01*
X91468928Y-30370714D01*
X91433214Y-30406428D01*
X91361785Y-30442142D01*
X91076071Y-30442142D01*
X91968928Y-30049285D02*
X92040357Y-30049285D01*
X92111785Y-30085000D01*
X92147500Y-30120714D01*
X92183214Y-30192142D01*
X92218928Y-30335000D01*
X92218928Y-30513571D01*
X92183214Y-30656428D01*
X92147500Y-30727857D01*
X92111785Y-30763571D01*
X92040357Y-30799285D01*
X91968928Y-30799285D01*
X91897500Y-30763571D01*
X91861785Y-30727857D01*
X91826071Y-30656428D01*
X91790357Y-30513571D01*
X91790357Y-30335000D01*
X91826071Y-30192142D01*
X91861785Y-30120714D01*
X91897500Y-30085000D01*
X91968928Y-30049285D01*
X101755357Y-75805000D02*
X101683928Y-75769285D01*
X101576785Y-75769285D01*
X101469642Y-75805000D01*
X101398214Y-75876428D01*
X101362500Y-75947857D01*
X101326785Y-76090714D01*
X101326785Y-76197857D01*
X101362500Y-76340714D01*
X101398214Y-76412142D01*
X101469642Y-76483571D01*
X101576785Y-76519285D01*
X101648214Y-76519285D01*
X101755357Y-76483571D01*
X101791071Y-76447857D01*
X101791071Y-76197857D01*
X101648214Y-76197857D01*
X102112500Y-76519285D02*
X102112500Y-75769285D01*
X102398214Y-75769285D01*
X102469642Y-75805000D01*
X102505357Y-75840714D01*
X102541071Y-75912142D01*
X102541071Y-76019285D01*
X102505357Y-76090714D01*
X102469642Y-76126428D01*
X102398214Y-76162142D01*
X102112500Y-76162142D01*
X103255357Y-76519285D02*
X102826785Y-76519285D01*
X103041071Y-76519285D02*
X103041071Y-75769285D01*
X102969642Y-75876428D01*
X102898214Y-75947857D01*
X102826785Y-75983571D01*
X103505357Y-75769285D02*
X104005357Y-75769285D01*
X103683928Y-76519285D01*
X101755357Y-68185000D02*
X101683928Y-68149285D01*
X101576785Y-68149285D01*
X101469642Y-68185000D01*
X101398214Y-68256428D01*
X101362500Y-68327857D01*
X101326785Y-68470714D01*
X101326785Y-68577857D01*
X101362500Y-68720714D01*
X101398214Y-68792142D01*
X101469642Y-68863571D01*
X101576785Y-68899285D01*
X101648214Y-68899285D01*
X101755357Y-68863571D01*
X101791071Y-68827857D01*
X101791071Y-68577857D01*
X101648214Y-68577857D01*
X102112500Y-68899285D02*
X102112500Y-68149285D01*
X102398214Y-68149285D01*
X102469642Y-68185000D01*
X102505357Y-68220714D01*
X102541071Y-68292142D01*
X102541071Y-68399285D01*
X102505357Y-68470714D01*
X102469642Y-68506428D01*
X102398214Y-68542142D01*
X102112500Y-68542142D01*
X103255357Y-68899285D02*
X102826785Y-68899285D01*
X103041071Y-68899285D02*
X103041071Y-68149285D01*
X102969642Y-68256428D01*
X102898214Y-68327857D01*
X102826785Y-68363571D01*
X103612500Y-68899285D02*
X103755357Y-68899285D01*
X103826785Y-68863571D01*
X103862500Y-68827857D01*
X103933928Y-68720714D01*
X103969642Y-68577857D01*
X103969642Y-68292142D01*
X103933928Y-68220714D01*
X103898214Y-68185000D01*
X103826785Y-68149285D01*
X103683928Y-68149285D01*
X103612500Y-68185000D01*
X103576785Y-68220714D01*
X103541071Y-68292142D01*
X103541071Y-68470714D01*
X103576785Y-68542142D01*
X103612500Y-68577857D01*
X103683928Y-68613571D01*
X103826785Y-68613571D01*
X103898214Y-68577857D01*
X103933928Y-68542142D01*
X103969642Y-68470714D01*
X90718928Y-60565000D02*
X90647500Y-60529285D01*
X90540357Y-60529285D01*
X90433214Y-60565000D01*
X90361785Y-60636428D01*
X90326071Y-60707857D01*
X90290357Y-60850714D01*
X90290357Y-60957857D01*
X90326071Y-61100714D01*
X90361785Y-61172142D01*
X90433214Y-61243571D01*
X90540357Y-61279285D01*
X90611785Y-61279285D01*
X90718928Y-61243571D01*
X90754642Y-61207857D01*
X90754642Y-60957857D01*
X90611785Y-60957857D01*
X91076071Y-61279285D02*
X91076071Y-60529285D01*
X91504642Y-61279285D01*
X91504642Y-60529285D01*
X91861785Y-61279285D02*
X91861785Y-60529285D01*
X92040357Y-60529285D01*
X92147500Y-60565000D01*
X92218928Y-60636428D01*
X92254642Y-60707857D01*
X92290357Y-60850714D01*
X92290357Y-60957857D01*
X92254642Y-61100714D01*
X92218928Y-61172142D01*
X92147500Y-61243571D01*
X92040357Y-61279285D01*
X91861785Y-61279285D01*
X90718928Y-58025000D02*
X90647500Y-57989285D01*
X90540357Y-57989285D01*
X90433214Y-58025000D01*
X90361785Y-58096428D01*
X90326071Y-58167857D01*
X90290357Y-58310714D01*
X90290357Y-58417857D01*
X90326071Y-58560714D01*
X90361785Y-58632142D01*
X90433214Y-58703571D01*
X90540357Y-58739285D01*
X90611785Y-58739285D01*
X90718928Y-58703571D01*
X90754642Y-58667857D01*
X90754642Y-58417857D01*
X90611785Y-58417857D01*
X91076071Y-58739285D02*
X91076071Y-57989285D01*
X91361785Y-57989285D01*
X91433214Y-58025000D01*
X91468928Y-58060714D01*
X91504642Y-58132142D01*
X91504642Y-58239285D01*
X91468928Y-58310714D01*
X91433214Y-58346428D01*
X91361785Y-58382142D01*
X91076071Y-58382142D01*
X91861785Y-58739285D02*
X92004642Y-58739285D01*
X92076071Y-58703571D01*
X92111785Y-58667857D01*
X92183214Y-58560714D01*
X92218928Y-58417857D01*
X92218928Y-58132142D01*
X92183214Y-58060714D01*
X92147500Y-58025000D01*
X92076071Y-57989285D01*
X91933214Y-57989285D01*
X91861785Y-58025000D01*
X91826071Y-58060714D01*
X91790357Y-58132142D01*
X91790357Y-58310714D01*
X91826071Y-58382142D01*
X91861785Y-58417857D01*
X91933214Y-58453571D01*
X92076071Y-58453571D01*
X92147500Y-58417857D01*
X92183214Y-58382142D01*
X92218928Y-58310714D01*
X90718928Y-70725000D02*
X90647500Y-70689285D01*
X90540357Y-70689285D01*
X90433214Y-70725000D01*
X90361785Y-70796428D01*
X90326071Y-70867857D01*
X90290357Y-71010714D01*
X90290357Y-71117857D01*
X90326071Y-71260714D01*
X90361785Y-71332142D01*
X90433214Y-71403571D01*
X90540357Y-71439285D01*
X90611785Y-71439285D01*
X90718928Y-71403571D01*
X90754642Y-71367857D01*
X90754642Y-71117857D01*
X90611785Y-71117857D01*
X91076071Y-71439285D02*
X91076071Y-70689285D01*
X91361785Y-70689285D01*
X91433214Y-70725000D01*
X91468928Y-70760714D01*
X91504642Y-70832142D01*
X91504642Y-70939285D01*
X91468928Y-71010714D01*
X91433214Y-71046428D01*
X91361785Y-71082142D01*
X91076071Y-71082142D01*
X92218928Y-71439285D02*
X91790357Y-71439285D01*
X92004642Y-71439285D02*
X92004642Y-70689285D01*
X91933214Y-70796428D01*
X91861785Y-70867857D01*
X91790357Y-70903571D01*
X92468928Y-70689285D02*
X92933214Y-70689285D01*
X92683214Y-70975000D01*
X92790357Y-70975000D01*
X92861785Y-71010714D01*
X92897500Y-71046428D01*
X92933214Y-71117857D01*
X92933214Y-71296428D01*
X92897500Y-71367857D01*
X92861785Y-71403571D01*
X92790357Y-71439285D01*
X92576071Y-71439285D01*
X92504642Y-71403571D01*
X92468928Y-71367857D01*
X101469642Y-32589285D02*
X101719642Y-33339285D01*
X101969642Y-32589285D01*
X102183928Y-33303571D02*
X102291071Y-33339285D01*
X102469642Y-33339285D01*
X102541071Y-33303571D01*
X102576785Y-33267857D01*
X102612500Y-33196428D01*
X102612500Y-33125000D01*
X102576785Y-33053571D01*
X102541071Y-33017857D01*
X102469642Y-32982142D01*
X102326785Y-32946428D01*
X102255357Y-32910714D01*
X102219642Y-32875000D01*
X102183928Y-32803571D01*
X102183928Y-32732142D01*
X102219642Y-32660714D01*
X102255357Y-32625000D01*
X102326785Y-32589285D01*
X102505357Y-32589285D01*
X102612500Y-32625000D01*
X103076785Y-32982142D02*
X103076785Y-33339285D01*
X102826785Y-32589285D02*
X103076785Y-32982142D01*
X103326785Y-32589285D01*
X103541071Y-33303571D02*
X103648214Y-33339285D01*
X103826785Y-33339285D01*
X103898214Y-33303571D01*
X103933928Y-33267857D01*
X103969642Y-33196428D01*
X103969642Y-33125000D01*
X103933928Y-33053571D01*
X103898214Y-33017857D01*
X103826785Y-32982142D01*
X103683928Y-32946428D01*
X103612500Y-32910714D01*
X103576785Y-32875000D01*
X103541071Y-32803571D01*
X103541071Y-32732142D01*
X103576785Y-32660714D01*
X103612500Y-32625000D01*
X103683928Y-32589285D01*
X103862500Y-32589285D01*
X103969642Y-32625000D01*
X101755357Y-58025000D02*
X101683928Y-57989285D01*
X101576785Y-57989285D01*
X101469642Y-58025000D01*
X101398214Y-58096428D01*
X101362500Y-58167857D01*
X101326785Y-58310714D01*
X101326785Y-58417857D01*
X101362500Y-58560714D01*
X101398214Y-58632142D01*
X101469642Y-58703571D01*
X101576785Y-58739285D01*
X101648214Y-58739285D01*
X101755357Y-58703571D01*
X101791071Y-58667857D01*
X101791071Y-58417857D01*
X101648214Y-58417857D01*
X102112500Y-58739285D02*
X102112500Y-57989285D01*
X102398214Y-57989285D01*
X102469642Y-58025000D01*
X102505357Y-58060714D01*
X102541071Y-58132142D01*
X102541071Y-58239285D01*
X102505357Y-58310714D01*
X102469642Y-58346428D01*
X102398214Y-58382142D01*
X102112500Y-58382142D01*
X102826785Y-58060714D02*
X102862500Y-58025000D01*
X102933928Y-57989285D01*
X103112500Y-57989285D01*
X103183928Y-58025000D01*
X103219642Y-58060714D01*
X103255357Y-58132142D01*
X103255357Y-58203571D01*
X103219642Y-58310714D01*
X102791071Y-58739285D01*
X103255357Y-58739285D01*
X103541071Y-58060714D02*
X103576785Y-58025000D01*
X103648214Y-57989285D01*
X103826785Y-57989285D01*
X103898214Y-58025000D01*
X103933928Y-58060714D01*
X103969642Y-58132142D01*
X103969642Y-58203571D01*
X103933928Y-58310714D01*
X103505357Y-58739285D01*
X103969642Y-58739285D01*
X101755357Y-50405000D02*
X101683928Y-50369285D01*
X101576785Y-50369285D01*
X101469642Y-50405000D01*
X101398214Y-50476428D01*
X101362500Y-50547857D01*
X101326785Y-50690714D01*
X101326785Y-50797857D01*
X101362500Y-50940714D01*
X101398214Y-51012142D01*
X101469642Y-51083571D01*
X101576785Y-51119285D01*
X101648214Y-51119285D01*
X101755357Y-51083571D01*
X101791071Y-51047857D01*
X101791071Y-50797857D01*
X101648214Y-50797857D01*
X102112500Y-51119285D02*
X102112500Y-50369285D01*
X102398214Y-50369285D01*
X102469642Y-50405000D01*
X102505357Y-50440714D01*
X102541071Y-50512142D01*
X102541071Y-50619285D01*
X102505357Y-50690714D01*
X102469642Y-50726428D01*
X102398214Y-50762142D01*
X102112500Y-50762142D01*
X102826785Y-50440714D02*
X102862500Y-50405000D01*
X102933928Y-50369285D01*
X103112500Y-50369285D01*
X103183928Y-50405000D01*
X103219642Y-50440714D01*
X103255357Y-50512142D01*
X103255357Y-50583571D01*
X103219642Y-50690714D01*
X102791071Y-51119285D01*
X103255357Y-51119285D01*
X103505357Y-50369285D02*
X104005357Y-50369285D01*
X103683928Y-51119285D01*
X90718928Y-55485000D02*
X90647500Y-55449285D01*
X90540357Y-55449285D01*
X90433214Y-55485000D01*
X90361785Y-55556428D01*
X90326071Y-55627857D01*
X90290357Y-55770714D01*
X90290357Y-55877857D01*
X90326071Y-56020714D01*
X90361785Y-56092142D01*
X90433214Y-56163571D01*
X90540357Y-56199285D01*
X90611785Y-56199285D01*
X90718928Y-56163571D01*
X90754642Y-56127857D01*
X90754642Y-55877857D01*
X90611785Y-55877857D01*
X91076071Y-56199285D02*
X91076071Y-55449285D01*
X91361785Y-55449285D01*
X91433214Y-55485000D01*
X91468928Y-55520714D01*
X91504642Y-55592142D01*
X91504642Y-55699285D01*
X91468928Y-55770714D01*
X91433214Y-55806428D01*
X91361785Y-55842142D01*
X91076071Y-55842142D01*
X91933214Y-55770714D02*
X91861785Y-55735000D01*
X91826071Y-55699285D01*
X91790357Y-55627857D01*
X91790357Y-55592142D01*
X91826071Y-55520714D01*
X91861785Y-55485000D01*
X91933214Y-55449285D01*
X92076071Y-55449285D01*
X92147500Y-55485000D01*
X92183214Y-55520714D01*
X92218928Y-55592142D01*
X92218928Y-55627857D01*
X92183214Y-55699285D01*
X92147500Y-55735000D01*
X92076071Y-55770714D01*
X91933214Y-55770714D01*
X91861785Y-55806428D01*
X91826071Y-55842142D01*
X91790357Y-55913571D01*
X91790357Y-56056428D01*
X91826071Y-56127857D01*
X91861785Y-56163571D01*
X91933214Y-56199285D01*
X92076071Y-56199285D01*
X92147500Y-56163571D01*
X92183214Y-56127857D01*
X92218928Y-56056428D01*
X92218928Y-55913571D01*
X92183214Y-55842142D01*
X92147500Y-55806428D01*
X92076071Y-55770714D01*
X90718928Y-42785000D02*
X90647500Y-42749285D01*
X90540357Y-42749285D01*
X90433214Y-42785000D01*
X90361785Y-42856428D01*
X90326071Y-42927857D01*
X90290357Y-43070714D01*
X90290357Y-43177857D01*
X90326071Y-43320714D01*
X90361785Y-43392142D01*
X90433214Y-43463571D01*
X90540357Y-43499285D01*
X90611785Y-43499285D01*
X90718928Y-43463571D01*
X90754642Y-43427857D01*
X90754642Y-43177857D01*
X90611785Y-43177857D01*
X91076071Y-43499285D02*
X91076071Y-42749285D01*
X91361785Y-42749285D01*
X91433214Y-42785000D01*
X91468928Y-42820714D01*
X91504642Y-42892142D01*
X91504642Y-42999285D01*
X91468928Y-43070714D01*
X91433214Y-43106428D01*
X91361785Y-43142142D01*
X91076071Y-43142142D01*
X92147500Y-42999285D02*
X92147500Y-43499285D01*
X91968928Y-42713571D02*
X91790357Y-43249285D01*
X92254642Y-43249285D01*
X101755357Y-45325000D02*
X101683928Y-45289285D01*
X101576785Y-45289285D01*
X101469642Y-45325000D01*
X101398214Y-45396428D01*
X101362500Y-45467857D01*
X101326785Y-45610714D01*
X101326785Y-45717857D01*
X101362500Y-45860714D01*
X101398214Y-45932142D01*
X101469642Y-46003571D01*
X101576785Y-46039285D01*
X101648214Y-46039285D01*
X101755357Y-46003571D01*
X101791071Y-45967857D01*
X101791071Y-45717857D01*
X101648214Y-45717857D01*
X102112500Y-46039285D02*
X102112500Y-45289285D01*
X102398214Y-45289285D01*
X102469642Y-45325000D01*
X102505357Y-45360714D01*
X102541071Y-45432142D01*
X102541071Y-45539285D01*
X102505357Y-45610714D01*
X102469642Y-45646428D01*
X102398214Y-45682142D01*
X102112500Y-45682142D01*
X102826785Y-45360714D02*
X102862500Y-45325000D01*
X102933928Y-45289285D01*
X103112500Y-45289285D01*
X103183928Y-45325000D01*
X103219642Y-45360714D01*
X103255357Y-45432142D01*
X103255357Y-45503571D01*
X103219642Y-45610714D01*
X102791071Y-46039285D01*
X103255357Y-46039285D01*
X103683928Y-45610714D02*
X103612500Y-45575000D01*
X103576785Y-45539285D01*
X103541071Y-45467857D01*
X103541071Y-45432142D01*
X103576785Y-45360714D01*
X103612500Y-45325000D01*
X103683928Y-45289285D01*
X103826785Y-45289285D01*
X103898214Y-45325000D01*
X103933928Y-45360714D01*
X103969642Y-45432142D01*
X103969642Y-45467857D01*
X103933928Y-45539285D01*
X103898214Y-45575000D01*
X103826785Y-45610714D01*
X103683928Y-45610714D01*
X103612500Y-45646428D01*
X103576785Y-45682142D01*
X103541071Y-45753571D01*
X103541071Y-45896428D01*
X103576785Y-45967857D01*
X103612500Y-46003571D01*
X103683928Y-46039285D01*
X103826785Y-46039285D01*
X103898214Y-46003571D01*
X103933928Y-45967857D01*
X103969642Y-45896428D01*
X103969642Y-45753571D01*
X103933928Y-45682142D01*
X103898214Y-45646428D01*
X103826785Y-45610714D01*
X102398214Y-35165000D02*
X102326785Y-35129285D01*
X102219642Y-35129285D01*
X102112500Y-35165000D01*
X102041071Y-35236428D01*
X102005357Y-35307857D01*
X101969642Y-35450714D01*
X101969642Y-35557857D01*
X102005357Y-35700714D01*
X102041071Y-35772142D01*
X102112500Y-35843571D01*
X102219642Y-35879285D01*
X102291071Y-35879285D01*
X102398214Y-35843571D01*
X102433928Y-35807857D01*
X102433928Y-35557857D01*
X102291071Y-35557857D01*
X102755357Y-35879285D02*
X102755357Y-35129285D01*
X103183928Y-35879285D01*
X103183928Y-35129285D01*
X103541071Y-35879285D02*
X103541071Y-35129285D01*
X103719642Y-35129285D01*
X103826785Y-35165000D01*
X103898214Y-35236428D01*
X103933928Y-35307857D01*
X103969642Y-35450714D01*
X103969642Y-35557857D01*
X103933928Y-35700714D01*
X103898214Y-35772142D01*
X103826785Y-35843571D01*
X103719642Y-35879285D01*
X103541071Y-35879285D01*
X102398214Y-56199285D02*
X102148214Y-55842142D01*
X101969642Y-56199285D02*
X101969642Y-55449285D01*
X102255357Y-55449285D01*
X102326785Y-55485000D01*
X102362500Y-55520714D01*
X102398214Y-55592142D01*
X102398214Y-55699285D01*
X102362500Y-55770714D01*
X102326785Y-55806428D01*
X102255357Y-55842142D01*
X101969642Y-55842142D01*
X102719642Y-55449285D02*
X102719642Y-56056428D01*
X102755357Y-56127857D01*
X102791071Y-56163571D01*
X102862500Y-56199285D01*
X103005357Y-56199285D01*
X103076785Y-56163571D01*
X103112500Y-56127857D01*
X103148214Y-56056428D01*
X103148214Y-55449285D01*
X103505357Y-56199285D02*
X103505357Y-55449285D01*
X103933928Y-56199285D01*
X103933928Y-55449285D01*
X90718928Y-47865000D02*
X90647500Y-47829285D01*
X90540357Y-47829285D01*
X90433214Y-47865000D01*
X90361785Y-47936428D01*
X90326071Y-48007857D01*
X90290357Y-48150714D01*
X90290357Y-48257857D01*
X90326071Y-48400714D01*
X90361785Y-48472142D01*
X90433214Y-48543571D01*
X90540357Y-48579285D01*
X90611785Y-48579285D01*
X90718928Y-48543571D01*
X90754642Y-48507857D01*
X90754642Y-48257857D01*
X90611785Y-48257857D01*
X91076071Y-48579285D02*
X91076071Y-47829285D01*
X91504642Y-48579285D01*
X91504642Y-47829285D01*
X91861785Y-48579285D02*
X91861785Y-47829285D01*
X92040357Y-47829285D01*
X92147500Y-47865000D01*
X92218928Y-47936428D01*
X92254642Y-48007857D01*
X92290357Y-48150714D01*
X92290357Y-48257857D01*
X92254642Y-48400714D01*
X92218928Y-48472142D01*
X92147500Y-48543571D01*
X92040357Y-48579285D01*
X91861785Y-48579285D01*
X101755357Y-70725000D02*
X101683928Y-70689285D01*
X101576785Y-70689285D01*
X101469642Y-70725000D01*
X101398214Y-70796428D01*
X101362500Y-70867857D01*
X101326785Y-71010714D01*
X101326785Y-71117857D01*
X101362500Y-71260714D01*
X101398214Y-71332142D01*
X101469642Y-71403571D01*
X101576785Y-71439285D01*
X101648214Y-71439285D01*
X101755357Y-71403571D01*
X101791071Y-71367857D01*
X101791071Y-71117857D01*
X101648214Y-71117857D01*
X102112500Y-71439285D02*
X102112500Y-70689285D01*
X102398214Y-70689285D01*
X102469642Y-70725000D01*
X102505357Y-70760714D01*
X102541071Y-70832142D01*
X102541071Y-70939285D01*
X102505357Y-71010714D01*
X102469642Y-71046428D01*
X102398214Y-71082142D01*
X102112500Y-71082142D01*
X103255357Y-71439285D02*
X102826785Y-71439285D01*
X103041071Y-71439285D02*
X103041071Y-70689285D01*
X102969642Y-70796428D01*
X102898214Y-70867857D01*
X102826785Y-70903571D01*
X103683928Y-71010714D02*
X103612500Y-70975000D01*
X103576785Y-70939285D01*
X103541071Y-70867857D01*
X103541071Y-70832142D01*
X103576785Y-70760714D01*
X103612500Y-70725000D01*
X103683928Y-70689285D01*
X103826785Y-70689285D01*
X103898214Y-70725000D01*
X103933928Y-70760714D01*
X103969642Y-70832142D01*
X103969642Y-70867857D01*
X103933928Y-70939285D01*
X103898214Y-70975000D01*
X103826785Y-71010714D01*
X103683928Y-71010714D01*
X103612500Y-71046428D01*
X103576785Y-71082142D01*
X103541071Y-71153571D01*
X103541071Y-71296428D01*
X103576785Y-71367857D01*
X103612500Y-71403571D01*
X103683928Y-71439285D01*
X103826785Y-71439285D01*
X103898214Y-71403571D01*
X103933928Y-71367857D01*
X103969642Y-71296428D01*
X103969642Y-71153571D01*
X103933928Y-71082142D01*
X103898214Y-71046428D01*
X103826785Y-71010714D01*
X98719642Y-43285000D02*
X99076785Y-43285000D01*
X98648214Y-43499285D02*
X98898214Y-42749285D01*
X99148214Y-43499285D01*
X99398214Y-43499285D02*
X99398214Y-42749285D01*
X99576785Y-42749285D01*
X99683928Y-42785000D01*
X99755357Y-42856428D01*
X99791071Y-42927857D01*
X99826785Y-43070714D01*
X99826785Y-43177857D01*
X99791071Y-43320714D01*
X99755357Y-43392142D01*
X99683928Y-43463571D01*
X99576785Y-43499285D01*
X99398214Y-43499285D01*
X100576785Y-43427857D02*
X100541071Y-43463571D01*
X100433928Y-43499285D01*
X100362500Y-43499285D01*
X100255357Y-43463571D01*
X100183928Y-43392142D01*
X100148214Y-43320714D01*
X100112500Y-43177857D01*
X100112500Y-43070714D01*
X100148214Y-42927857D01*
X100183928Y-42856428D01*
X100255357Y-42785000D01*
X100362500Y-42749285D01*
X100433928Y-42749285D01*
X100541071Y-42785000D01*
X100576785Y-42820714D01*
X100719642Y-43570714D02*
X101291071Y-43570714D01*
X101362500Y-42749285D02*
X101612500Y-43499285D01*
X101862500Y-42749285D01*
X102541071Y-43499285D02*
X102291071Y-43142142D01*
X102112500Y-43499285D02*
X102112500Y-42749285D01*
X102398214Y-42749285D01*
X102469642Y-42785000D01*
X102505357Y-42820714D01*
X102541071Y-42892142D01*
X102541071Y-42999285D01*
X102505357Y-43070714D01*
X102469642Y-43106428D01*
X102398214Y-43142142D01*
X102112500Y-43142142D01*
X102862500Y-43106428D02*
X103112500Y-43106428D01*
X103219642Y-43499285D02*
X102862500Y-43499285D01*
X102862500Y-42749285D01*
X103219642Y-42749285D01*
X103933928Y-42785000D02*
X103862500Y-42749285D01*
X103755357Y-42749285D01*
X103648214Y-42785000D01*
X103576785Y-42856428D01*
X103541071Y-42927857D01*
X103505357Y-43070714D01*
X103505357Y-43177857D01*
X103541071Y-43320714D01*
X103576785Y-43392142D01*
X103648214Y-43463571D01*
X103755357Y-43499285D01*
X103826785Y-43499285D01*
X103933928Y-43463571D01*
X103969642Y-43427857D01*
X103969642Y-43177857D01*
X103826785Y-43177857D01*
X102398214Y-60565000D02*
X102326785Y-60529285D01*
X102219642Y-60529285D01*
X102112500Y-60565000D01*
X102041071Y-60636428D01*
X102005357Y-60707857D01*
X101969642Y-60850714D01*
X101969642Y-60957857D01*
X102005357Y-61100714D01*
X102041071Y-61172142D01*
X102112500Y-61243571D01*
X102219642Y-61279285D01*
X102291071Y-61279285D01*
X102398214Y-61243571D01*
X102433928Y-61207857D01*
X102433928Y-60957857D01*
X102291071Y-60957857D01*
X102755357Y-61279285D02*
X102755357Y-60529285D01*
X103183928Y-61279285D01*
X103183928Y-60529285D01*
X103541071Y-61279285D02*
X103541071Y-60529285D01*
X103719642Y-60529285D01*
X103826785Y-60565000D01*
X103898214Y-60636428D01*
X103933928Y-60707857D01*
X103969642Y-60850714D01*
X103969642Y-60957857D01*
X103933928Y-61100714D01*
X103898214Y-61172142D01*
X103826785Y-61243571D01*
X103719642Y-61279285D01*
X103541071Y-61279285D01*
X90718928Y-35165000D02*
X90647500Y-35129285D01*
X90540357Y-35129285D01*
X90433214Y-35165000D01*
X90361785Y-35236428D01*
X90326071Y-35307857D01*
X90290357Y-35450714D01*
X90290357Y-35557857D01*
X90326071Y-35700714D01*
X90361785Y-35772142D01*
X90433214Y-35843571D01*
X90540357Y-35879285D01*
X90611785Y-35879285D01*
X90718928Y-35843571D01*
X90754642Y-35807857D01*
X90754642Y-35557857D01*
X90611785Y-35557857D01*
X91076071Y-35879285D02*
X91076071Y-35129285D01*
X91504642Y-35879285D01*
X91504642Y-35129285D01*
X91861785Y-35879285D02*
X91861785Y-35129285D01*
X92040357Y-35129285D01*
X92147500Y-35165000D01*
X92218928Y-35236428D01*
X92254642Y-35307857D01*
X92290357Y-35450714D01*
X92290357Y-35557857D01*
X92254642Y-35700714D01*
X92218928Y-35772142D01*
X92147500Y-35843571D01*
X92040357Y-35879285D01*
X91861785Y-35879285D01*
X90718928Y-68185000D02*
X90647500Y-68149285D01*
X90540357Y-68149285D01*
X90433214Y-68185000D01*
X90361785Y-68256428D01*
X90326071Y-68327857D01*
X90290357Y-68470714D01*
X90290357Y-68577857D01*
X90326071Y-68720714D01*
X90361785Y-68792142D01*
X90433214Y-68863571D01*
X90540357Y-68899285D01*
X90611785Y-68899285D01*
X90718928Y-68863571D01*
X90754642Y-68827857D01*
X90754642Y-68577857D01*
X90611785Y-68577857D01*
X91076071Y-68899285D02*
X91076071Y-68149285D01*
X91361785Y-68149285D01*
X91433214Y-68185000D01*
X91468928Y-68220714D01*
X91504642Y-68292142D01*
X91504642Y-68399285D01*
X91468928Y-68470714D01*
X91433214Y-68506428D01*
X91361785Y-68542142D01*
X91076071Y-68542142D01*
X92218928Y-68899285D02*
X91790357Y-68899285D01*
X92004642Y-68899285D02*
X92004642Y-68149285D01*
X91933214Y-68256428D01*
X91861785Y-68327857D01*
X91790357Y-68363571D01*
X92504642Y-68220714D02*
X92540357Y-68185000D01*
X92611785Y-68149285D01*
X92790357Y-68149285D01*
X92861785Y-68185000D01*
X92897500Y-68220714D01*
X92933214Y-68292142D01*
X92933214Y-68363571D01*
X92897500Y-68470714D01*
X92468928Y-68899285D01*
X92933214Y-68899285D01*
X101755357Y-65645000D02*
X101683928Y-65609285D01*
X101576785Y-65609285D01*
X101469642Y-65645000D01*
X101398214Y-65716428D01*
X101362500Y-65787857D01*
X101326785Y-65930714D01*
X101326785Y-66037857D01*
X101362500Y-66180714D01*
X101398214Y-66252142D01*
X101469642Y-66323571D01*
X101576785Y-66359285D01*
X101648214Y-66359285D01*
X101755357Y-66323571D01*
X101791071Y-66287857D01*
X101791071Y-66037857D01*
X101648214Y-66037857D01*
X102112500Y-66359285D02*
X102112500Y-65609285D01*
X102398214Y-65609285D01*
X102469642Y-65645000D01*
X102505357Y-65680714D01*
X102541071Y-65752142D01*
X102541071Y-65859285D01*
X102505357Y-65930714D01*
X102469642Y-65966428D01*
X102398214Y-66002142D01*
X102112500Y-66002142D01*
X102826785Y-65680714D02*
X102862500Y-65645000D01*
X102933928Y-65609285D01*
X103112500Y-65609285D01*
X103183928Y-65645000D01*
X103219642Y-65680714D01*
X103255357Y-65752142D01*
X103255357Y-65823571D01*
X103219642Y-65930714D01*
X102791071Y-66359285D01*
X103255357Y-66359285D01*
X103719642Y-65609285D02*
X103791071Y-65609285D01*
X103862500Y-65645000D01*
X103898214Y-65680714D01*
X103933928Y-65752142D01*
X103969642Y-65895000D01*
X103969642Y-66073571D01*
X103933928Y-66216428D01*
X103898214Y-66287857D01*
X103862500Y-66323571D01*
X103791071Y-66359285D01*
X103719642Y-66359285D01*
X103648214Y-66323571D01*
X103612500Y-66287857D01*
X103576785Y-66216428D01*
X103541071Y-66073571D01*
X103541071Y-65895000D01*
X103576785Y-65752142D01*
X103612500Y-65680714D01*
X103648214Y-65645000D01*
X103719642Y-65609285D01*
X99005357Y-40209285D02*
X99469642Y-40209285D01*
X99219642Y-40495000D01*
X99326785Y-40495000D01*
X99398214Y-40530714D01*
X99433928Y-40566428D01*
X99469642Y-40637857D01*
X99469642Y-40816428D01*
X99433928Y-40887857D01*
X99398214Y-40923571D01*
X99326785Y-40959285D01*
X99112500Y-40959285D01*
X99041071Y-40923571D01*
X99005357Y-40887857D01*
X99683928Y-40209285D02*
X99933928Y-40959285D01*
X100183928Y-40209285D01*
X100362500Y-40209285D02*
X100826785Y-40209285D01*
X100576785Y-40495000D01*
X100683928Y-40495000D01*
X100755357Y-40530714D01*
X100791071Y-40566428D01*
X100826785Y-40637857D01*
X100826785Y-40816428D01*
X100791071Y-40887857D01*
X100755357Y-40923571D01*
X100683928Y-40959285D01*
X100469642Y-40959285D01*
X100398214Y-40923571D01*
X100362500Y-40887857D01*
X101362500Y-41245000D02*
X101326785Y-41209285D01*
X101255357Y-41102142D01*
X101219642Y-41030714D01*
X101183928Y-40923571D01*
X101148214Y-40745000D01*
X101148214Y-40602142D01*
X101183928Y-40423571D01*
X101219642Y-40316428D01*
X101255357Y-40245000D01*
X101326785Y-40137857D01*
X101362500Y-40102142D01*
X101791071Y-40209285D02*
X101933928Y-40209285D01*
X102005357Y-40245000D01*
X102076785Y-40316428D01*
X102112500Y-40459285D01*
X102112500Y-40709285D01*
X102076785Y-40852142D01*
X102005357Y-40923571D01*
X101933928Y-40959285D01*
X101791071Y-40959285D01*
X101719642Y-40923571D01*
X101648214Y-40852142D01*
X101612500Y-40709285D01*
X101612500Y-40459285D01*
X101648214Y-40316428D01*
X101719642Y-40245000D01*
X101791071Y-40209285D01*
X102433928Y-40209285D02*
X102433928Y-40816428D01*
X102469642Y-40887857D01*
X102505357Y-40923571D01*
X102576785Y-40959285D01*
X102719642Y-40959285D01*
X102791071Y-40923571D01*
X102826785Y-40887857D01*
X102862500Y-40816428D01*
X102862500Y-40209285D01*
X103112500Y-40209285D02*
X103541071Y-40209285D01*
X103326785Y-40959285D02*
X103326785Y-40209285D01*
X103719642Y-41245000D02*
X103755357Y-41209285D01*
X103826785Y-41102142D01*
X103862500Y-41030714D01*
X103898214Y-40923571D01*
X103933928Y-40745000D01*
X103933928Y-40602142D01*
X103898214Y-40423571D01*
X103862500Y-40316428D01*
X103826785Y-40245000D01*
X103755357Y-40137857D01*
X103719642Y-40102142D01*
X90718928Y-45325000D02*
X90647500Y-45289285D01*
X90540357Y-45289285D01*
X90433214Y-45325000D01*
X90361785Y-45396428D01*
X90326071Y-45467857D01*
X90290357Y-45610714D01*
X90290357Y-45717857D01*
X90326071Y-45860714D01*
X90361785Y-45932142D01*
X90433214Y-46003571D01*
X90540357Y-46039285D01*
X90611785Y-46039285D01*
X90718928Y-46003571D01*
X90754642Y-45967857D01*
X90754642Y-45717857D01*
X90611785Y-45717857D01*
X91076071Y-46039285D02*
X91076071Y-45289285D01*
X91361785Y-45289285D01*
X91433214Y-45325000D01*
X91468928Y-45360714D01*
X91504642Y-45432142D01*
X91504642Y-45539285D01*
X91468928Y-45610714D01*
X91433214Y-45646428D01*
X91361785Y-45682142D01*
X91076071Y-45682142D01*
X92183214Y-45289285D02*
X91826071Y-45289285D01*
X91790357Y-45646428D01*
X91826071Y-45610714D01*
X91897500Y-45575000D01*
X92076071Y-45575000D01*
X92147500Y-45610714D01*
X92183214Y-45646428D01*
X92218928Y-45717857D01*
X92218928Y-45896428D01*
X92183214Y-45967857D01*
X92147500Y-46003571D01*
X92076071Y-46039285D01*
X91897500Y-46039285D01*
X91826071Y-46003571D01*
X91790357Y-45967857D01*
X90718928Y-37705000D02*
X90647500Y-37669285D01*
X90540357Y-37669285D01*
X90433214Y-37705000D01*
X90361785Y-37776428D01*
X90326071Y-37847857D01*
X90290357Y-37990714D01*
X90290357Y-38097857D01*
X90326071Y-38240714D01*
X90361785Y-38312142D01*
X90433214Y-38383571D01*
X90540357Y-38419285D01*
X90611785Y-38419285D01*
X90718928Y-38383571D01*
X90754642Y-38347857D01*
X90754642Y-38097857D01*
X90611785Y-38097857D01*
X91076071Y-38419285D02*
X91076071Y-37669285D01*
X91361785Y-37669285D01*
X91433214Y-37705000D01*
X91468928Y-37740714D01*
X91504642Y-37812142D01*
X91504642Y-37919285D01*
X91468928Y-37990714D01*
X91433214Y-38026428D01*
X91361785Y-38062142D01*
X91076071Y-38062142D01*
X91790357Y-37740714D02*
X91826071Y-37705000D01*
X91897500Y-37669285D01*
X92076071Y-37669285D01*
X92147500Y-37705000D01*
X92183214Y-37740714D01*
X92218928Y-37812142D01*
X92218928Y-37883571D01*
X92183214Y-37990714D01*
X91754642Y-38419285D01*
X92218928Y-38419285D01*
X90718928Y-65645000D02*
X90647500Y-65609285D01*
X90540357Y-65609285D01*
X90433214Y-65645000D01*
X90361785Y-65716428D01*
X90326071Y-65787857D01*
X90290357Y-65930714D01*
X90290357Y-66037857D01*
X90326071Y-66180714D01*
X90361785Y-66252142D01*
X90433214Y-66323571D01*
X90540357Y-66359285D01*
X90611785Y-66359285D01*
X90718928Y-66323571D01*
X90754642Y-66287857D01*
X90754642Y-66037857D01*
X90611785Y-66037857D01*
X91076071Y-66359285D02*
X91076071Y-65609285D01*
X91361785Y-65609285D01*
X91433214Y-65645000D01*
X91468928Y-65680714D01*
X91504642Y-65752142D01*
X91504642Y-65859285D01*
X91468928Y-65930714D01*
X91433214Y-65966428D01*
X91361785Y-66002142D01*
X91076071Y-66002142D01*
X92218928Y-66359285D02*
X91790357Y-66359285D01*
X92004642Y-66359285D02*
X92004642Y-65609285D01*
X91933214Y-65716428D01*
X91861785Y-65787857D01*
X91790357Y-65823571D01*
X92933214Y-66359285D02*
X92504642Y-66359285D01*
X92718928Y-66359285D02*
X92718928Y-65609285D01*
X92647500Y-65716428D01*
X92576071Y-65787857D01*
X92504642Y-65823571D01*
X90718928Y-40245000D02*
X90647500Y-40209285D01*
X90540357Y-40209285D01*
X90433214Y-40245000D01*
X90361785Y-40316428D01*
X90326071Y-40387857D01*
X90290357Y-40530714D01*
X90290357Y-40637857D01*
X90326071Y-40780714D01*
X90361785Y-40852142D01*
X90433214Y-40923571D01*
X90540357Y-40959285D01*
X90611785Y-40959285D01*
X90718928Y-40923571D01*
X90754642Y-40887857D01*
X90754642Y-40637857D01*
X90611785Y-40637857D01*
X91076071Y-40959285D02*
X91076071Y-40209285D01*
X91361785Y-40209285D01*
X91433214Y-40245000D01*
X91468928Y-40280714D01*
X91504642Y-40352142D01*
X91504642Y-40459285D01*
X91468928Y-40530714D01*
X91433214Y-40566428D01*
X91361785Y-40602142D01*
X91076071Y-40602142D01*
X91754642Y-40209285D02*
X92218928Y-40209285D01*
X91968928Y-40495000D01*
X92076071Y-40495000D01*
X92147500Y-40530714D01*
X92183214Y-40566428D01*
X92218928Y-40637857D01*
X92218928Y-40816428D01*
X92183214Y-40887857D01*
X92147500Y-40923571D01*
X92076071Y-40959285D01*
X91861785Y-40959285D01*
X91790357Y-40923571D01*
X91754642Y-40887857D01*
X101755357Y-78345000D02*
X101683928Y-78309285D01*
X101576785Y-78309285D01*
X101469642Y-78345000D01*
X101398214Y-78416428D01*
X101362500Y-78487857D01*
X101326785Y-78630714D01*
X101326785Y-78737857D01*
X101362500Y-78880714D01*
X101398214Y-78952142D01*
X101469642Y-79023571D01*
X101576785Y-79059285D01*
X101648214Y-79059285D01*
X101755357Y-79023571D01*
X101791071Y-78987857D01*
X101791071Y-78737857D01*
X101648214Y-78737857D01*
X102112500Y-79059285D02*
X102112500Y-78309285D01*
X102398214Y-78309285D01*
X102469642Y-78345000D01*
X102505357Y-78380714D01*
X102541071Y-78452142D01*
X102541071Y-78559285D01*
X102505357Y-78630714D01*
X102469642Y-78666428D01*
X102398214Y-78702142D01*
X102112500Y-78702142D01*
X103255357Y-79059285D02*
X102826785Y-79059285D01*
X103041071Y-79059285D02*
X103041071Y-78309285D01*
X102969642Y-78416428D01*
X102898214Y-78487857D01*
X102826785Y-78523571D01*
X103898214Y-78309285D02*
X103755357Y-78309285D01*
X103683928Y-78345000D01*
X103648214Y-78380714D01*
X103576785Y-78487857D01*
X103541071Y-78630714D01*
X103541071Y-78916428D01*
X103576785Y-78987857D01*
X103612500Y-79023571D01*
X103683928Y-79059285D01*
X103826785Y-79059285D01*
X103898214Y-79023571D01*
X103933928Y-78987857D01*
X103969642Y-78916428D01*
X103969642Y-78737857D01*
X103933928Y-78666428D01*
X103898214Y-78630714D01*
X103826785Y-78595000D01*
X103683928Y-78595000D01*
X103612500Y-78630714D01*
X103576785Y-78666428D01*
X103541071Y-78737857D01*
X90718928Y-73265000D02*
X90647500Y-73229285D01*
X90540357Y-73229285D01*
X90433214Y-73265000D01*
X90361785Y-73336428D01*
X90326071Y-73407857D01*
X90290357Y-73550714D01*
X90290357Y-73657857D01*
X90326071Y-73800714D01*
X90361785Y-73872142D01*
X90433214Y-73943571D01*
X90540357Y-73979285D01*
X90611785Y-73979285D01*
X90718928Y-73943571D01*
X90754642Y-73907857D01*
X90754642Y-73657857D01*
X90611785Y-73657857D01*
X91076071Y-73979285D02*
X91076071Y-73229285D01*
X91504642Y-73979285D01*
X91504642Y-73229285D01*
X91861785Y-73979285D02*
X91861785Y-73229285D01*
X92040357Y-73229285D01*
X92147500Y-73265000D01*
X92218928Y-73336428D01*
X92254642Y-73407857D01*
X92290357Y-73550714D01*
X92290357Y-73657857D01*
X92254642Y-73800714D01*
X92218928Y-73872142D01*
X92147500Y-73943571D01*
X92040357Y-73979285D01*
X91861785Y-73979285D01*
X90718928Y-52945000D02*
X90647500Y-52909285D01*
X90540357Y-52909285D01*
X90433214Y-52945000D01*
X90361785Y-53016428D01*
X90326071Y-53087857D01*
X90290357Y-53230714D01*
X90290357Y-53337857D01*
X90326071Y-53480714D01*
X90361785Y-53552142D01*
X90433214Y-53623571D01*
X90540357Y-53659285D01*
X90611785Y-53659285D01*
X90718928Y-53623571D01*
X90754642Y-53587857D01*
X90754642Y-53337857D01*
X90611785Y-53337857D01*
X91076071Y-53659285D02*
X91076071Y-52909285D01*
X91361785Y-52909285D01*
X91433214Y-52945000D01*
X91468928Y-52980714D01*
X91504642Y-53052142D01*
X91504642Y-53159285D01*
X91468928Y-53230714D01*
X91433214Y-53266428D01*
X91361785Y-53302142D01*
X91076071Y-53302142D01*
X91754642Y-52909285D02*
X92254642Y-52909285D01*
X91933214Y-53659285D01*
X90718928Y-75805000D02*
X90647500Y-75769285D01*
X90540357Y-75769285D01*
X90433214Y-75805000D01*
X90361785Y-75876428D01*
X90326071Y-75947857D01*
X90290357Y-76090714D01*
X90290357Y-76197857D01*
X90326071Y-76340714D01*
X90361785Y-76412142D01*
X90433214Y-76483571D01*
X90540357Y-76519285D01*
X90611785Y-76519285D01*
X90718928Y-76483571D01*
X90754642Y-76447857D01*
X90754642Y-76197857D01*
X90611785Y-76197857D01*
X91076071Y-76519285D02*
X91076071Y-75769285D01*
X91361785Y-75769285D01*
X91433214Y-75805000D01*
X91468928Y-75840714D01*
X91504642Y-75912142D01*
X91504642Y-76019285D01*
X91468928Y-76090714D01*
X91433214Y-76126428D01*
X91361785Y-76162142D01*
X91076071Y-76162142D01*
X92218928Y-76519285D02*
X91790357Y-76519285D01*
X92004642Y-76519285D02*
X92004642Y-75769285D01*
X91933214Y-75876428D01*
X91861785Y-75947857D01*
X91790357Y-75983571D01*
X92861785Y-76019285D02*
X92861785Y-76519285D01*
X92683214Y-75733571D02*
X92504642Y-76269285D01*
X92968928Y-76269285D01*
X101755357Y-63105000D02*
X101683928Y-63069285D01*
X101576785Y-63069285D01*
X101469642Y-63105000D01*
X101398214Y-63176428D01*
X101362500Y-63247857D01*
X101326785Y-63390714D01*
X101326785Y-63497857D01*
X101362500Y-63640714D01*
X101398214Y-63712142D01*
X101469642Y-63783571D01*
X101576785Y-63819285D01*
X101648214Y-63819285D01*
X101755357Y-63783571D01*
X101791071Y-63747857D01*
X101791071Y-63497857D01*
X101648214Y-63497857D01*
X102112500Y-63819285D02*
X102112500Y-63069285D01*
X102398214Y-63069285D01*
X102469642Y-63105000D01*
X102505357Y-63140714D01*
X102541071Y-63212142D01*
X102541071Y-63319285D01*
X102505357Y-63390714D01*
X102469642Y-63426428D01*
X102398214Y-63462142D01*
X102112500Y-63462142D01*
X102826785Y-63140714D02*
X102862500Y-63105000D01*
X102933928Y-63069285D01*
X103112500Y-63069285D01*
X103183928Y-63105000D01*
X103219642Y-63140714D01*
X103255357Y-63212142D01*
X103255357Y-63283571D01*
X103219642Y-63390714D01*
X102791071Y-63819285D01*
X103255357Y-63819285D01*
X103969642Y-63819285D02*
X103541071Y-63819285D01*
X103755357Y-63819285D02*
X103755357Y-63069285D01*
X103683928Y-63176428D01*
X103612500Y-63247857D01*
X103541071Y-63283571D01*
X101755357Y-52945000D02*
X101683928Y-52909285D01*
X101576785Y-52909285D01*
X101469642Y-52945000D01*
X101398214Y-53016428D01*
X101362500Y-53087857D01*
X101326785Y-53230714D01*
X101326785Y-53337857D01*
X101362500Y-53480714D01*
X101398214Y-53552142D01*
X101469642Y-53623571D01*
X101576785Y-53659285D01*
X101648214Y-53659285D01*
X101755357Y-53623571D01*
X101791071Y-53587857D01*
X101791071Y-53337857D01*
X101648214Y-53337857D01*
X102112500Y-53659285D02*
X102112500Y-52909285D01*
X102398214Y-52909285D01*
X102469642Y-52945000D01*
X102505357Y-52980714D01*
X102541071Y-53052142D01*
X102541071Y-53159285D01*
X102505357Y-53230714D01*
X102469642Y-53266428D01*
X102398214Y-53302142D01*
X102112500Y-53302142D01*
X102826785Y-52980714D02*
X102862500Y-52945000D01*
X102933928Y-52909285D01*
X103112500Y-52909285D01*
X103183928Y-52945000D01*
X103219642Y-52980714D01*
X103255357Y-53052142D01*
X103255357Y-53123571D01*
X103219642Y-53230714D01*
X102791071Y-53659285D01*
X103255357Y-53659285D01*
X103898214Y-52909285D02*
X103755357Y-52909285D01*
X103683928Y-52945000D01*
X103648214Y-52980714D01*
X103576785Y-53087857D01*
X103541071Y-53230714D01*
X103541071Y-53516428D01*
X103576785Y-53587857D01*
X103612500Y-53623571D01*
X103683928Y-53659285D01*
X103826785Y-53659285D01*
X103898214Y-53623571D01*
X103933928Y-53587857D01*
X103969642Y-53516428D01*
X103969642Y-53337857D01*
X103933928Y-53266428D01*
X103898214Y-53230714D01*
X103826785Y-53195000D01*
X103683928Y-53195000D01*
X103612500Y-53230714D01*
X103576785Y-53266428D01*
X103541071Y-53337857D01*
X90718928Y-63105000D02*
X90647500Y-63069285D01*
X90540357Y-63069285D01*
X90433214Y-63105000D01*
X90361785Y-63176428D01*
X90326071Y-63247857D01*
X90290357Y-63390714D01*
X90290357Y-63497857D01*
X90326071Y-63640714D01*
X90361785Y-63712142D01*
X90433214Y-63783571D01*
X90540357Y-63819285D01*
X90611785Y-63819285D01*
X90718928Y-63783571D01*
X90754642Y-63747857D01*
X90754642Y-63497857D01*
X90611785Y-63497857D01*
X91076071Y-63819285D02*
X91076071Y-63069285D01*
X91361785Y-63069285D01*
X91433214Y-63105000D01*
X91468928Y-63140714D01*
X91504642Y-63212142D01*
X91504642Y-63319285D01*
X91468928Y-63390714D01*
X91433214Y-63426428D01*
X91361785Y-63462142D01*
X91076071Y-63462142D01*
X92218928Y-63819285D02*
X91790357Y-63819285D01*
X92004642Y-63819285D02*
X92004642Y-63069285D01*
X91933214Y-63176428D01*
X91861785Y-63247857D01*
X91790357Y-63283571D01*
X92683214Y-63069285D02*
X92754642Y-63069285D01*
X92826071Y-63105000D01*
X92861785Y-63140714D01*
X92897500Y-63212142D01*
X92933214Y-63355000D01*
X92933214Y-63533571D01*
X92897500Y-63676428D01*
X92861785Y-63747857D01*
X92826071Y-63783571D01*
X92754642Y-63819285D01*
X92683214Y-63819285D01*
X92611785Y-63783571D01*
X92576071Y-63747857D01*
X92540357Y-63676428D01*
X92504642Y-63533571D01*
X92504642Y-63355000D01*
X92540357Y-63212142D01*
X92576071Y-63140714D01*
X92611785Y-63105000D01*
X92683214Y-63069285D01*
X102398214Y-47865000D02*
X102326785Y-47829285D01*
X102219642Y-47829285D01*
X102112500Y-47865000D01*
X102041071Y-47936428D01*
X102005357Y-48007857D01*
X101969642Y-48150714D01*
X101969642Y-48257857D01*
X102005357Y-48400714D01*
X102041071Y-48472142D01*
X102112500Y-48543571D01*
X102219642Y-48579285D01*
X102291071Y-48579285D01*
X102398214Y-48543571D01*
X102433928Y-48507857D01*
X102433928Y-48257857D01*
X102291071Y-48257857D01*
X102755357Y-48579285D02*
X102755357Y-47829285D01*
X103183928Y-48579285D01*
X103183928Y-47829285D01*
X103541071Y-48579285D02*
X103541071Y-47829285D01*
X103719642Y-47829285D01*
X103826785Y-47865000D01*
X103898214Y-47936428D01*
X103933928Y-48007857D01*
X103969642Y-48150714D01*
X103969642Y-48257857D01*
X103933928Y-48400714D01*
X103898214Y-48472142D01*
X103826785Y-48543571D01*
X103719642Y-48579285D01*
X103541071Y-48579285D01*
X102398214Y-73265000D02*
X102326785Y-73229285D01*
X102219642Y-73229285D01*
X102112500Y-73265000D01*
X102041071Y-73336428D01*
X102005357Y-73407857D01*
X101969642Y-73550714D01*
X101969642Y-73657857D01*
X102005357Y-73800714D01*
X102041071Y-73872142D01*
X102112500Y-73943571D01*
X102219642Y-73979285D01*
X102291071Y-73979285D01*
X102398214Y-73943571D01*
X102433928Y-73907857D01*
X102433928Y-73657857D01*
X102291071Y-73657857D01*
X102755357Y-73979285D02*
X102755357Y-73229285D01*
X103183928Y-73979285D01*
X103183928Y-73229285D01*
X103541071Y-73979285D02*
X103541071Y-73229285D01*
X103719642Y-73229285D01*
X103826785Y-73265000D01*
X103898214Y-73336428D01*
X103933928Y-73407857D01*
X103969642Y-73550714D01*
X103969642Y-73657857D01*
X103933928Y-73800714D01*
X103898214Y-73872142D01*
X103826785Y-73943571D01*
X103719642Y-73979285D01*
X103541071Y-73979285D01*
X100112500Y-37669285D02*
X100576785Y-37669285D01*
X100326785Y-37955000D01*
X100433928Y-37955000D01*
X100505357Y-37990714D01*
X100541071Y-38026428D01*
X100576785Y-38097857D01*
X100576785Y-38276428D01*
X100541071Y-38347857D01*
X100505357Y-38383571D01*
X100433928Y-38419285D01*
X100219642Y-38419285D01*
X100148214Y-38383571D01*
X100112500Y-38347857D01*
X100791071Y-37669285D02*
X101041071Y-38419285D01*
X101291071Y-37669285D01*
X101469642Y-37669285D02*
X101933928Y-37669285D01*
X101683928Y-37955000D01*
X101791071Y-37955000D01*
X101862500Y-37990714D01*
X101898214Y-38026428D01*
X101933928Y-38097857D01*
X101933928Y-38276428D01*
X101898214Y-38347857D01*
X101862500Y-38383571D01*
X101791071Y-38419285D01*
X101576785Y-38419285D01*
X101505357Y-38383571D01*
X101469642Y-38347857D01*
X102076785Y-38490714D02*
X102648214Y-38490714D01*
X102826785Y-38026428D02*
X103076785Y-38026428D01*
X103183928Y-38419285D02*
X102826785Y-38419285D01*
X102826785Y-37669285D01*
X103183928Y-37669285D01*
X103505357Y-38419285D02*
X103505357Y-37669285D01*
X103933928Y-38419285D01*
X103933928Y-37669285D01*
X90718928Y-32625000D02*
X90647500Y-32589285D01*
X90540357Y-32589285D01*
X90433214Y-32625000D01*
X90361785Y-32696428D01*
X90326071Y-32767857D01*
X90290357Y-32910714D01*
X90290357Y-33017857D01*
X90326071Y-33160714D01*
X90361785Y-33232142D01*
X90433214Y-33303571D01*
X90540357Y-33339285D01*
X90611785Y-33339285D01*
X90718928Y-33303571D01*
X90754642Y-33267857D01*
X90754642Y-33017857D01*
X90611785Y-33017857D01*
X91076071Y-33339285D02*
X91076071Y-32589285D01*
X91361785Y-32589285D01*
X91433214Y-32625000D01*
X91468928Y-32660714D01*
X91504642Y-32732142D01*
X91504642Y-32839285D01*
X91468928Y-32910714D01*
X91433214Y-32946428D01*
X91361785Y-32982142D01*
X91076071Y-32982142D01*
X92218928Y-33339285D02*
X91790357Y-33339285D01*
X92004642Y-33339285D02*
X92004642Y-32589285D01*
X91933214Y-32696428D01*
X91861785Y-32767857D01*
X91790357Y-32803571D01*
X90718928Y-50405000D02*
X90647500Y-50369285D01*
X90540357Y-50369285D01*
X90433214Y-50405000D01*
X90361785Y-50476428D01*
X90326071Y-50547857D01*
X90290357Y-50690714D01*
X90290357Y-50797857D01*
X90326071Y-50940714D01*
X90361785Y-51012142D01*
X90433214Y-51083571D01*
X90540357Y-51119285D01*
X90611785Y-51119285D01*
X90718928Y-51083571D01*
X90754642Y-51047857D01*
X90754642Y-50797857D01*
X90611785Y-50797857D01*
X91076071Y-51119285D02*
X91076071Y-50369285D01*
X91361785Y-50369285D01*
X91433214Y-50405000D01*
X91468928Y-50440714D01*
X91504642Y-50512142D01*
X91504642Y-50619285D01*
X91468928Y-50690714D01*
X91433214Y-50726428D01*
X91361785Y-50762142D01*
X91076071Y-50762142D01*
X92147500Y-50369285D02*
X92004642Y-50369285D01*
X91933214Y-50405000D01*
X91897500Y-50440714D01*
X91826071Y-50547857D01*
X91790357Y-50690714D01*
X91790357Y-50976428D01*
X91826071Y-51047857D01*
X91861785Y-51083571D01*
X91933214Y-51119285D01*
X92076071Y-51119285D01*
X92147500Y-51083571D01*
X92183214Y-51047857D01*
X92218928Y-50976428D01*
X92218928Y-50797857D01*
X92183214Y-50726428D01*
X92147500Y-50690714D01*
X92076071Y-50655000D01*
X91933214Y-50655000D01*
X91861785Y-50690714D01*
X91826071Y-50726428D01*
X91790357Y-50797857D01*
X101291071Y-30049285D02*
X101541071Y-30799285D01*
X101791071Y-30049285D01*
X102291071Y-30406428D02*
X102398214Y-30442142D01*
X102433928Y-30477857D01*
X102469642Y-30549285D01*
X102469642Y-30656428D01*
X102433928Y-30727857D01*
X102398214Y-30763571D01*
X102326785Y-30799285D01*
X102041071Y-30799285D01*
X102041071Y-30049285D01*
X102291071Y-30049285D01*
X102362500Y-30085000D01*
X102398214Y-30120714D01*
X102433928Y-30192142D01*
X102433928Y-30263571D01*
X102398214Y-30335000D01*
X102362500Y-30370714D01*
X102291071Y-30406428D01*
X102041071Y-30406428D01*
X102791071Y-30049285D02*
X102791071Y-30656428D01*
X102826785Y-30727857D01*
X102862500Y-30763571D01*
X102933928Y-30799285D01*
X103076785Y-30799285D01*
X103148214Y-30763571D01*
X103183928Y-30727857D01*
X103219642Y-30656428D01*
X103219642Y-30049285D01*
X103541071Y-30763571D02*
X103648214Y-30799285D01*
X103826785Y-30799285D01*
X103898214Y-30763571D01*
X103933928Y-30727857D01*
X103969642Y-30656428D01*
X103969642Y-30585000D01*
X103933928Y-30513571D01*
X103898214Y-30477857D01*
X103826785Y-30442142D01*
X103683928Y-30406428D01*
X103612500Y-30370714D01*
X103576785Y-30335000D01*
X103541071Y-30263571D01*
X103541071Y-30192142D01*
X103576785Y-30120714D01*
X103612500Y-30085000D01*
X103683928Y-30049285D01*
X103862500Y-30049285D01*
X103969642Y-30085000D01*
X90718928Y-78345000D02*
X90647500Y-78309285D01*
X90540357Y-78309285D01*
X90433214Y-78345000D01*
X90361785Y-78416428D01*
X90326071Y-78487857D01*
X90290357Y-78630714D01*
X90290357Y-78737857D01*
X90326071Y-78880714D01*
X90361785Y-78952142D01*
X90433214Y-79023571D01*
X90540357Y-79059285D01*
X90611785Y-79059285D01*
X90718928Y-79023571D01*
X90754642Y-78987857D01*
X90754642Y-78737857D01*
X90611785Y-78737857D01*
X91076071Y-79059285D02*
X91076071Y-78309285D01*
X91361785Y-78309285D01*
X91433214Y-78345000D01*
X91468928Y-78380714D01*
X91504642Y-78452142D01*
X91504642Y-78559285D01*
X91468928Y-78630714D01*
X91433214Y-78666428D01*
X91361785Y-78702142D01*
X91076071Y-78702142D01*
X92218928Y-79059285D02*
X91790357Y-79059285D01*
X92004642Y-79059285D02*
X92004642Y-78309285D01*
X91933214Y-78416428D01*
X91861785Y-78487857D01*
X91790357Y-78523571D01*
X92897500Y-78309285D02*
X92540357Y-78309285D01*
X92504642Y-78666428D01*
X92540357Y-78630714D01*
X92611785Y-78595000D01*
X92790357Y-78595000D01*
X92861785Y-78630714D01*
X92897500Y-78666428D01*
X92933214Y-78737857D01*
X92933214Y-78916428D01*
X92897500Y-78987857D01*
X92861785Y-79023571D01*
X92790357Y-79059285D01*
X92611785Y-79059285D01*
X92540357Y-79023571D01*
X92504642Y-78987857D01*
X110703333Y-88974142D02*
X110655714Y-89021761D01*
X110512857Y-89069380D01*
X110417619Y-89069380D01*
X110274761Y-89021761D01*
X110179523Y-88926523D01*
X110131904Y-88831285D01*
X110084285Y-88640809D01*
X110084285Y-88497952D01*
X110131904Y-88307476D01*
X110179523Y-88212238D01*
X110274761Y-88117000D01*
X110417619Y-88069380D01*
X110512857Y-88069380D01*
X110655714Y-88117000D01*
X110703333Y-88164619D01*
X111655714Y-89069380D02*
X111084285Y-89069380D01*
X111370000Y-89069380D02*
X111370000Y-88069380D01*
X111274761Y-88212238D01*
X111179523Y-88307476D01*
X111084285Y-88355095D01*
X167727142Y-30377142D02*
X167679523Y-30424761D01*
X167536666Y-30472380D01*
X167441428Y-30472380D01*
X167298571Y-30424761D01*
X167203333Y-30329523D01*
X167155714Y-30234285D01*
X167108095Y-30043809D01*
X167108095Y-29900952D01*
X167155714Y-29710476D01*
X167203333Y-29615238D01*
X167298571Y-29520000D01*
X167441428Y-29472380D01*
X167536666Y-29472380D01*
X167679523Y-29520000D01*
X167727142Y-29567619D01*
X168679523Y-30472380D02*
X168108095Y-30472380D01*
X168393809Y-30472380D02*
X168393809Y-29472380D01*
X168298571Y-29615238D01*
X168203333Y-29710476D01*
X168108095Y-29758095D01*
X169298571Y-29472380D02*
X169393809Y-29472380D01*
X169489047Y-29520000D01*
X169536666Y-29567619D01*
X169584285Y-29662857D01*
X169631904Y-29853333D01*
X169631904Y-30091428D01*
X169584285Y-30281904D01*
X169536666Y-30377142D01*
X169489047Y-30424761D01*
X169393809Y-30472380D01*
X169298571Y-30472380D01*
X169203333Y-30424761D01*
X169155714Y-30377142D01*
X169108095Y-30281904D01*
X169060476Y-30091428D01*
X169060476Y-29853333D01*
X169108095Y-29662857D01*
X169155714Y-29567619D01*
X169203333Y-29520000D01*
X169298571Y-29472380D01*
X119219999Y-89014142D02*
X119172380Y-89061761D01*
X119029523Y-89109380D01*
X118934285Y-89109380D01*
X118791427Y-89061761D01*
X118696189Y-88966523D01*
X118648570Y-88871285D01*
X118600951Y-88680809D01*
X118600951Y-88537952D01*
X118648570Y-88347476D01*
X118696189Y-88252238D01*
X118791427Y-88157000D01*
X118934285Y-88109380D01*
X119029523Y-88109380D01*
X119172380Y-88157000D01*
X119219999Y-88204619D01*
X119600951Y-88204619D02*
X119648570Y-88157000D01*
X119743808Y-88109380D01*
X119981904Y-88109380D01*
X120077142Y-88157000D01*
X120124761Y-88204619D01*
X120172380Y-88299857D01*
X120172380Y-88395095D01*
X120124761Y-88537952D01*
X119553332Y-89109380D01*
X120172380Y-89109380D01*
X175791666Y-31122380D02*
X175791666Y-31836666D01*
X175744047Y-31979523D01*
X175648809Y-32074761D01*
X175505952Y-32122380D01*
X175410714Y-32122380D01*
X176267857Y-32122380D02*
X176267857Y-31122380D01*
X176648809Y-31122380D01*
X176744047Y-31170000D01*
X176791666Y-31217619D01*
X176839285Y-31312857D01*
X176839285Y-31455714D01*
X176791666Y-31550952D01*
X176744047Y-31598571D01*
X176648809Y-31646190D01*
X176267857Y-31646190D01*
X177172619Y-31122380D02*
X177839285Y-31122380D01*
X177410714Y-32122380D01*
X177034761Y-47934642D02*
X177082380Y-47791785D01*
X177082380Y-47553690D01*
X177034761Y-47458452D01*
X176987142Y-47410833D01*
X176891904Y-47363214D01*
X176796666Y-47363214D01*
X176701428Y-47410833D01*
X176653809Y-47458452D01*
X176606190Y-47553690D01*
X176558571Y-47744166D01*
X176510952Y-47839404D01*
X176463333Y-47887023D01*
X176368095Y-47934642D01*
X176272857Y-47934642D01*
X176177619Y-47887023D01*
X176130000Y-47839404D01*
X176082380Y-47744166D01*
X176082380Y-47506071D01*
X176130000Y-47363214D01*
X177082380Y-46934642D02*
X176082380Y-46934642D01*
X177082380Y-46363214D01*
X176082380Y-46363214D01*
X176558571Y-45887023D02*
X176558571Y-45553690D01*
X177082380Y-45410833D02*
X177082380Y-45887023D01*
X176082380Y-45887023D01*
X176082380Y-45410833D01*
X177034761Y-45029880D02*
X177082380Y-44887023D01*
X177082380Y-44648928D01*
X177034761Y-44553690D01*
X176987142Y-44506071D01*
X176891904Y-44458452D01*
X176796666Y-44458452D01*
X176701428Y-44506071D01*
X176653809Y-44553690D01*
X176606190Y-44648928D01*
X176558571Y-44839404D01*
X176510952Y-44934642D01*
X176463333Y-44982261D01*
X176368095Y-45029880D01*
X176272857Y-45029880D01*
X176177619Y-44982261D01*
X176130000Y-44934642D01*
X176082380Y-44839404D01*
X176082380Y-44601309D01*
X176130000Y-44458452D01*
X177177619Y-44267976D02*
X177177619Y-43506071D01*
X176082380Y-42791785D02*
X176082380Y-43267976D01*
X176558571Y-43315595D01*
X176510952Y-43267976D01*
X176463333Y-43172738D01*
X176463333Y-42934642D01*
X176510952Y-42839404D01*
X176558571Y-42791785D01*
X176653809Y-42744166D01*
X176891904Y-42744166D01*
X176987142Y-42791785D01*
X177034761Y-42839404D01*
X177082380Y-42934642D01*
X177082380Y-43172738D01*
X177034761Y-43267976D01*
X176987142Y-43315595D01*
X176082380Y-42458452D02*
X177082380Y-42125119D01*
X176082380Y-41791785D01*
X177177619Y-41696547D02*
X177177619Y-40934642D01*
X176082380Y-40506071D02*
X176082380Y-40315595D01*
X176130000Y-40220357D01*
X176225238Y-40125119D01*
X176415714Y-40077500D01*
X176749047Y-40077500D01*
X176939523Y-40125119D01*
X177034761Y-40220357D01*
X177082380Y-40315595D01*
X177082380Y-40506071D01*
X177034761Y-40601309D01*
X176939523Y-40696547D01*
X176749047Y-40744166D01*
X176415714Y-40744166D01*
X176225238Y-40696547D01*
X176130000Y-40601309D01*
X176082380Y-40506071D01*
X176082380Y-39648928D02*
X176891904Y-39648928D01*
X176987142Y-39601309D01*
X177034761Y-39553690D01*
X177082380Y-39458452D01*
X177082380Y-39267976D01*
X177034761Y-39172738D01*
X176987142Y-39125119D01*
X176891904Y-39077500D01*
X176082380Y-39077500D01*
X176082380Y-38744166D02*
X176082380Y-38172738D01*
X177082380Y-38458452D02*
X176082380Y-38458452D01*
X183403333Y-92577142D02*
X183355714Y-92624761D01*
X183212857Y-92672380D01*
X183117619Y-92672380D01*
X182974761Y-92624761D01*
X182879523Y-92529523D01*
X182831904Y-92434285D01*
X182784285Y-92243809D01*
X182784285Y-92100952D01*
X182831904Y-91910476D01*
X182879523Y-91815238D01*
X182974761Y-91720000D01*
X183117619Y-91672380D01*
X183212857Y-91672380D01*
X183355714Y-91720000D01*
X183403333Y-91767619D01*
X184308095Y-91672380D02*
X183831904Y-91672380D01*
X183784285Y-92148571D01*
X183831904Y-92100952D01*
X183927142Y-92053333D01*
X184165238Y-92053333D01*
X184260476Y-92100952D01*
X184308095Y-92148571D01*
X184355714Y-92243809D01*
X184355714Y-92481904D01*
X184308095Y-92577142D01*
X184260476Y-92624761D01*
X184165238Y-92672380D01*
X183927142Y-92672380D01*
X183831904Y-92624761D01*
X183784285Y-92577142D01*
X151247142Y-35337142D02*
X151199523Y-35384761D01*
X151056666Y-35432380D01*
X150961428Y-35432380D01*
X150818571Y-35384761D01*
X150723333Y-35289523D01*
X150675714Y-35194285D01*
X150628095Y-35003809D01*
X150628095Y-34860952D01*
X150675714Y-34670476D01*
X150723333Y-34575238D01*
X150818571Y-34480000D01*
X150961428Y-34432380D01*
X151056666Y-34432380D01*
X151199523Y-34480000D01*
X151247142Y-34527619D01*
X152199523Y-35432380D02*
X151628095Y-35432380D01*
X151913809Y-35432380D02*
X151913809Y-34432380D01*
X151818571Y-34575238D01*
X151723333Y-34670476D01*
X151628095Y-34718095D01*
X152770952Y-34860952D02*
X152675714Y-34813333D01*
X152628095Y-34765714D01*
X152580476Y-34670476D01*
X152580476Y-34622857D01*
X152628095Y-34527619D01*
X152675714Y-34480000D01*
X152770952Y-34432380D01*
X152961428Y-34432380D01*
X153056666Y-34480000D01*
X153104285Y-34527619D01*
X153151904Y-34622857D01*
X153151904Y-34670476D01*
X153104285Y-34765714D01*
X153056666Y-34813333D01*
X152961428Y-34860952D01*
X152770952Y-34860952D01*
X152675714Y-34908571D01*
X152628095Y-34956190D01*
X152580476Y-35051428D01*
X152580476Y-35241904D01*
X152628095Y-35337142D01*
X152675714Y-35384761D01*
X152770952Y-35432380D01*
X152961428Y-35432380D01*
X153056666Y-35384761D01*
X153104285Y-35337142D01*
X153151904Y-35241904D01*
X153151904Y-35051428D01*
X153104285Y-34956190D01*
X153056666Y-34908571D01*
X152961428Y-34860952D01*
X176967619Y-72182380D02*
X176967619Y-71182380D01*
X178015238Y-72087142D02*
X177967619Y-72134761D01*
X177824761Y-72182380D01*
X177729523Y-72182380D01*
X177586666Y-72134761D01*
X177491428Y-72039523D01*
X177443809Y-71944285D01*
X177396190Y-71753809D01*
X177396190Y-71610952D01*
X177443809Y-71420476D01*
X177491428Y-71325238D01*
X177586666Y-71230000D01*
X177729523Y-71182380D01*
X177824761Y-71182380D01*
X177967619Y-71230000D01*
X178015238Y-71277619D01*
X178396190Y-72134761D02*
X178539047Y-72182380D01*
X178777142Y-72182380D01*
X178872380Y-72134761D01*
X178920000Y-72087142D01*
X178967619Y-71991904D01*
X178967619Y-71896666D01*
X178920000Y-71801428D01*
X178872380Y-71753809D01*
X178777142Y-71706190D01*
X178586666Y-71658571D01*
X178491428Y-71610952D01*
X178443809Y-71563333D01*
X178396190Y-71468095D01*
X178396190Y-71372857D01*
X178443809Y-71277619D01*
X178491428Y-71230000D01*
X178586666Y-71182380D01*
X178824761Y-71182380D01*
X178967619Y-71230000D01*
X179396190Y-72182380D02*
X179396190Y-71182380D01*
X179777142Y-71182380D01*
X179872380Y-71230000D01*
X179920000Y-71277619D01*
X179967619Y-71372857D01*
X179967619Y-71515714D01*
X179920000Y-71610952D01*
X179872380Y-71658571D01*
X179777142Y-71706190D01*
X179396190Y-71706190D01*
X180920000Y-72182380D02*
X180348571Y-72182380D01*
X180634285Y-72182380D02*
X180634285Y-71182380D01*
X180539047Y-71325238D01*
X180443809Y-71420476D01*
X180348571Y-71468095D01*
X174882380Y-77112380D02*
X174882380Y-76112380D01*
X175263333Y-76112380D01*
X175358571Y-76160000D01*
X175406190Y-76207619D01*
X175453809Y-76302857D01*
X175453809Y-76445714D01*
X175406190Y-76540952D01*
X175358571Y-76588571D01*
X175263333Y-76636190D01*
X174882380Y-76636190D01*
X175882380Y-77112380D02*
X175882380Y-76112380D01*
X176930000Y-77017142D02*
X176882380Y-77064761D01*
X176739523Y-77112380D01*
X176644285Y-77112380D01*
X176501428Y-77064761D01*
X176406190Y-76969523D01*
X176358571Y-76874285D01*
X176310952Y-76683809D01*
X176310952Y-76540952D01*
X176358571Y-76350476D01*
X176406190Y-76255238D01*
X176501428Y-76160000D01*
X176644285Y-76112380D01*
X176739523Y-76112380D01*
X176882380Y-76160000D01*
X176930000Y-76207619D01*
X177882380Y-77112380D02*
X177310952Y-77112380D01*
X177596666Y-77112380D02*
X177596666Y-76112380D01*
X177501428Y-76255238D01*
X177406190Y-76350476D01*
X177310952Y-76398095D01*
X178263333Y-76207619D02*
X178310952Y-76160000D01*
X178406190Y-76112380D01*
X178644285Y-76112380D01*
X178739523Y-76160000D01*
X178787142Y-76207619D01*
X178834761Y-76302857D01*
X178834761Y-76398095D01*
X178787142Y-76540952D01*
X178215714Y-77112380D01*
X178834761Y-77112380D01*
X179025238Y-77207619D02*
X179787142Y-77207619D01*
X180025238Y-77112380D02*
X180025238Y-76112380D01*
X181072857Y-77017142D02*
X181025238Y-77064761D01*
X180882380Y-77112380D01*
X180787142Y-77112380D01*
X180644285Y-77064761D01*
X180549047Y-76969523D01*
X180501428Y-76874285D01*
X180453809Y-76683809D01*
X180453809Y-76540952D01*
X180501428Y-76350476D01*
X180549047Y-76255238D01*
X180644285Y-76160000D01*
X180787142Y-76112380D01*
X180882380Y-76112380D01*
X181025238Y-76160000D01*
X181072857Y-76207619D01*
X181453809Y-77064761D02*
X181596666Y-77112380D01*
X181834761Y-77112380D01*
X181930000Y-77064761D01*
X181977619Y-77017142D01*
X182025238Y-76921904D01*
X182025238Y-76826666D01*
X181977619Y-76731428D01*
X181930000Y-76683809D01*
X181834761Y-76636190D01*
X181644285Y-76588571D01*
X181549047Y-76540952D01*
X181501428Y-76493333D01*
X181453809Y-76398095D01*
X181453809Y-76302857D01*
X181501428Y-76207619D01*
X181549047Y-76160000D01*
X181644285Y-76112380D01*
X181882380Y-76112380D01*
X182025238Y-76160000D01*
X182453809Y-77112380D02*
X182453809Y-76112380D01*
X182834761Y-76112380D01*
X182930000Y-76160000D01*
X182977619Y-76207619D01*
X183025238Y-76302857D01*
X183025238Y-76445714D01*
X182977619Y-76540952D01*
X182930000Y-76588571D01*
X182834761Y-76636190D01*
X182453809Y-76636190D01*
X109866666Y-101214285D02*
X109866666Y-100738095D01*
X110152380Y-101309523D02*
X109152380Y-100976190D01*
X110152380Y-100642857D01*
X110152380Y-100309523D02*
X109152380Y-100309523D01*
X109152380Y-100071428D01*
X109200000Y-99928571D01*
X109295238Y-99833333D01*
X109390476Y-99785714D01*
X109580952Y-99738095D01*
X109723809Y-99738095D01*
X109914285Y-99785714D01*
X110009523Y-99833333D01*
X110104761Y-99928571D01*
X110152380Y-100071428D01*
X110152380Y-100309523D01*
X110152380Y-99309523D02*
X109152380Y-99309523D01*
X109152380Y-99071428D01*
X109200000Y-98928571D01*
X109295238Y-98833333D01*
X109390476Y-98785714D01*
X109580952Y-98738095D01*
X109723809Y-98738095D01*
X109914285Y-98785714D01*
X110009523Y-98833333D01*
X110104761Y-98928571D01*
X110152380Y-99071428D01*
X110152380Y-99309523D01*
X110152380Y-97738095D02*
X109676190Y-98071428D01*
X110152380Y-98309523D02*
X109152380Y-98309523D01*
X109152380Y-97928571D01*
X109200000Y-97833333D01*
X109247619Y-97785714D01*
X109342857Y-97738095D01*
X109485714Y-97738095D01*
X109580952Y-97785714D01*
X109628571Y-97833333D01*
X109676190Y-97928571D01*
X109676190Y-98309523D01*
X110152380Y-96785714D02*
X110152380Y-97357142D01*
X110152380Y-97071428D02*
X109152380Y-97071428D01*
X109295238Y-97166666D01*
X109390476Y-97261904D01*
X109438095Y-97357142D01*
X172096666Y-31122380D02*
X172096666Y-31836666D01*
X172049047Y-31979523D01*
X171953809Y-32074761D01*
X171810952Y-32122380D01*
X171715714Y-32122380D01*
X172572857Y-32122380D02*
X172572857Y-31122380D01*
X172953809Y-31122380D01*
X173049047Y-31170000D01*
X173096666Y-31217619D01*
X173144285Y-31312857D01*
X173144285Y-31455714D01*
X173096666Y-31550952D01*
X173049047Y-31598571D01*
X172953809Y-31646190D01*
X172572857Y-31646190D01*
X174049047Y-31122380D02*
X173572857Y-31122380D01*
X173525238Y-31598571D01*
X173572857Y-31550952D01*
X173668095Y-31503333D01*
X173906190Y-31503333D01*
X174001428Y-31550952D01*
X174049047Y-31598571D01*
X174096666Y-31693809D01*
X174096666Y-31931904D01*
X174049047Y-32027142D01*
X174001428Y-32074761D01*
X173906190Y-32122380D01*
X173668095Y-32122380D01*
X173572857Y-32074761D01*
X173525238Y-32027142D01*
X173372380Y-45097500D02*
X173372380Y-45573690D01*
X172372380Y-45573690D01*
X173372380Y-44764166D02*
X172372380Y-44764166D01*
X172372380Y-44526071D01*
X172420000Y-44383214D01*
X172515238Y-44287976D01*
X172610476Y-44240357D01*
X172800952Y-44192738D01*
X172943809Y-44192738D01*
X173134285Y-44240357D01*
X173229523Y-44287976D01*
X173324761Y-44383214D01*
X173372380Y-44526071D01*
X173372380Y-44764166D01*
X172372380Y-43573690D02*
X172372380Y-43383214D01*
X172420000Y-43287976D01*
X172515238Y-43192738D01*
X172705714Y-43145119D01*
X173039047Y-43145119D01*
X173229523Y-43192738D01*
X173324761Y-43287976D01*
X173372380Y-43383214D01*
X173372380Y-43573690D01*
X173324761Y-43668928D01*
X173229523Y-43764166D01*
X173039047Y-43811785D01*
X172705714Y-43811785D01*
X172515238Y-43764166D01*
X172420000Y-43668928D01*
X172372380Y-43573690D01*
X173467619Y-42954642D02*
X173467619Y-42192738D01*
X172372380Y-41478452D02*
X172372380Y-41954642D01*
X172848571Y-42002261D01*
X172800952Y-41954642D01*
X172753333Y-41859404D01*
X172753333Y-41621309D01*
X172800952Y-41526071D01*
X172848571Y-41478452D01*
X172943809Y-41430833D01*
X173181904Y-41430833D01*
X173277142Y-41478452D01*
X173324761Y-41526071D01*
X173372380Y-41621309D01*
X173372380Y-41859404D01*
X173324761Y-41954642D01*
X173277142Y-42002261D01*
X172372380Y-41145119D02*
X173372380Y-40811785D01*
X172372380Y-40478452D01*
X173467619Y-40383214D02*
X173467619Y-39621309D01*
X173372380Y-39383214D02*
X172372380Y-39383214D01*
X173372380Y-38907023D02*
X172372380Y-38907023D01*
X173372380Y-38335595D01*
X172372380Y-38335595D01*
X116327380Y-119690476D02*
X115851190Y-120023809D01*
X116327380Y-120261904D02*
X115327380Y-120261904D01*
X115327380Y-119880952D01*
X115375000Y-119785714D01*
X115422619Y-119738095D01*
X115517857Y-119690476D01*
X115660714Y-119690476D01*
X115755952Y-119738095D01*
X115803571Y-119785714D01*
X115851190Y-119880952D01*
X115851190Y-120261904D01*
X116327380Y-119261904D02*
X115327380Y-119261904D01*
X116327380Y-118690476D01*
X115327380Y-118690476D01*
X116327380Y-118166666D02*
X116327380Y-117976190D01*
X116279761Y-117880952D01*
X116232142Y-117833333D01*
X116089285Y-117738095D01*
X115898809Y-117690476D01*
X115517857Y-117690476D01*
X115422619Y-117738095D01*
X115375000Y-117785714D01*
X115327380Y-117880952D01*
X115327380Y-118071428D01*
X115375000Y-118166666D01*
X115422619Y-118214285D01*
X115517857Y-118261904D01*
X115755952Y-118261904D01*
X115851190Y-118214285D01*
X115898809Y-118166666D01*
X115946428Y-118071428D01*
X115946428Y-117880952D01*
X115898809Y-117785714D01*
X115851190Y-117738095D01*
X115755952Y-117690476D01*
X186097142Y-103576666D02*
X186144761Y-103624285D01*
X186192380Y-103767142D01*
X186192380Y-103862380D01*
X186144761Y-104005238D01*
X186049523Y-104100476D01*
X185954285Y-104148095D01*
X185763809Y-104195714D01*
X185620952Y-104195714D01*
X185430476Y-104148095D01*
X185335238Y-104100476D01*
X185240000Y-104005238D01*
X185192380Y-103862380D01*
X185192380Y-103767142D01*
X185240000Y-103624285D01*
X185287619Y-103576666D01*
X186192380Y-103100476D02*
X186192380Y-102910000D01*
X186144761Y-102814761D01*
X186097142Y-102767142D01*
X185954285Y-102671904D01*
X185763809Y-102624285D01*
X185382857Y-102624285D01*
X185287619Y-102671904D01*
X185240000Y-102719523D01*
X185192380Y-102814761D01*
X185192380Y-103005238D01*
X185240000Y-103100476D01*
X185287619Y-103148095D01*
X185382857Y-103195714D01*
X185620952Y-103195714D01*
X185716190Y-103148095D01*
X185763809Y-103100476D01*
X185811428Y-103005238D01*
X185811428Y-102814761D01*
X185763809Y-102719523D01*
X185716190Y-102671904D01*
X185620952Y-102624285D01*
X167727142Y-35382142D02*
X167679523Y-35429761D01*
X167536666Y-35477380D01*
X167441428Y-35477380D01*
X167298571Y-35429761D01*
X167203333Y-35334523D01*
X167155714Y-35239285D01*
X167108095Y-35048809D01*
X167108095Y-34905952D01*
X167155714Y-34715476D01*
X167203333Y-34620238D01*
X167298571Y-34525000D01*
X167441428Y-34477380D01*
X167536666Y-34477380D01*
X167679523Y-34525000D01*
X167727142Y-34572619D01*
X168679523Y-35477380D02*
X168108095Y-35477380D01*
X168393809Y-35477380D02*
X168393809Y-34477380D01*
X168298571Y-34620238D01*
X168203333Y-34715476D01*
X168108095Y-34763095D01*
X169584285Y-34477380D02*
X169108095Y-34477380D01*
X169060476Y-34953571D01*
X169108095Y-34905952D01*
X169203333Y-34858333D01*
X169441428Y-34858333D01*
X169536666Y-34905952D01*
X169584285Y-34953571D01*
X169631904Y-35048809D01*
X169631904Y-35286904D01*
X169584285Y-35382142D01*
X169536666Y-35429761D01*
X169441428Y-35477380D01*
X169203333Y-35477380D01*
X169108095Y-35429761D01*
X169060476Y-35382142D01*
X168618095Y-46654380D02*
X169189523Y-46654380D01*
X168903809Y-47654380D02*
X168903809Y-46654380D01*
X169522857Y-47654380D02*
X169522857Y-46654380D01*
X169903809Y-46654380D01*
X169999047Y-46702000D01*
X170046666Y-46749619D01*
X170094285Y-46844857D01*
X170094285Y-46987714D01*
X170046666Y-47082952D01*
X169999047Y-47130571D01*
X169903809Y-47178190D01*
X169522857Y-47178190D01*
X171046666Y-47654380D02*
X170475238Y-47654380D01*
X170760952Y-47654380D02*
X170760952Y-46654380D01*
X170665714Y-46797238D01*
X170570476Y-46892476D01*
X170475238Y-46940095D01*
X169118095Y-50750000D02*
X169022857Y-50702380D01*
X168880000Y-50702380D01*
X168737142Y-50750000D01*
X168641904Y-50845238D01*
X168594285Y-50940476D01*
X168546666Y-51130952D01*
X168546666Y-51273809D01*
X168594285Y-51464285D01*
X168641904Y-51559523D01*
X168737142Y-51654761D01*
X168880000Y-51702380D01*
X168975238Y-51702380D01*
X169118095Y-51654761D01*
X169165714Y-51607142D01*
X169165714Y-51273809D01*
X168975238Y-51273809D01*
X169594285Y-51702380D02*
X169594285Y-50702380D01*
X170165714Y-51702380D01*
X170165714Y-50702380D01*
X170641904Y-51702380D02*
X170641904Y-50702380D01*
X170880000Y-50702380D01*
X171022857Y-50750000D01*
X171118095Y-50845238D01*
X171165714Y-50940476D01*
X171213333Y-51130952D01*
X171213333Y-51273809D01*
X171165714Y-51464285D01*
X171118095Y-51559523D01*
X171022857Y-51654761D01*
X170880000Y-51702380D01*
X170641904Y-51702380D01*
X171327142Y-104065357D02*
X171374761Y-104112976D01*
X171422380Y-104255833D01*
X171422380Y-104351071D01*
X171374761Y-104493928D01*
X171279523Y-104589166D01*
X171184285Y-104636785D01*
X170993809Y-104684404D01*
X170850952Y-104684404D01*
X170660476Y-104636785D01*
X170565238Y-104589166D01*
X170470000Y-104493928D01*
X170422380Y-104351071D01*
X170422380Y-104255833D01*
X170470000Y-104112976D01*
X170517619Y-104065357D01*
X171422380Y-103112976D02*
X171422380Y-103684404D01*
X171422380Y-103398690D02*
X170422380Y-103398690D01*
X170565238Y-103493928D01*
X170660476Y-103589166D01*
X170708095Y-103684404D01*
X170517619Y-102732023D02*
X170470000Y-102684404D01*
X170422380Y-102589166D01*
X170422380Y-102351071D01*
X170470000Y-102255833D01*
X170517619Y-102208214D01*
X170612857Y-102160595D01*
X170708095Y-102160595D01*
X170850952Y-102208214D01*
X171422380Y-102779642D01*
X171422380Y-102160595D01*
X126327380Y-120166666D02*
X125851190Y-120500000D01*
X126327380Y-120738095D02*
X125327380Y-120738095D01*
X125327380Y-120357142D01*
X125375000Y-120261904D01*
X125422619Y-120214285D01*
X125517857Y-120166666D01*
X125660714Y-120166666D01*
X125755952Y-120214285D01*
X125803571Y-120261904D01*
X125851190Y-120357142D01*
X125851190Y-120738095D01*
X126327380Y-119738095D02*
X125327380Y-119738095D01*
X126327380Y-119166666D01*
X125327380Y-119166666D01*
X126327380Y-118166666D02*
X126327380Y-118738095D01*
X126327380Y-118452380D02*
X125327380Y-118452380D01*
X125470238Y-118547619D01*
X125565476Y-118642857D01*
X125613095Y-118738095D01*
X125327380Y-117547619D02*
X125327380Y-117452380D01*
X125375000Y-117357142D01*
X125422619Y-117309523D01*
X125517857Y-117261904D01*
X125708333Y-117214285D01*
X125946428Y-117214285D01*
X126136904Y-117261904D01*
X126232142Y-117309523D01*
X126279761Y-117357142D01*
X126327380Y-117452380D01*
X126327380Y-117547619D01*
X126279761Y-117642857D01*
X126232142Y-117690476D01*
X126136904Y-117738095D01*
X125946428Y-117785714D01*
X125708333Y-117785714D01*
X125517857Y-117738095D01*
X125422619Y-117690476D01*
X125375000Y-117642857D01*
X125327380Y-117547619D01*
X93702380Y-119665476D02*
X93226190Y-119998809D01*
X93702380Y-120236904D02*
X92702380Y-120236904D01*
X92702380Y-119855952D01*
X92750000Y-119760714D01*
X92797619Y-119713095D01*
X92892857Y-119665476D01*
X93035714Y-119665476D01*
X93130952Y-119713095D01*
X93178571Y-119760714D01*
X93226190Y-119855952D01*
X93226190Y-120236904D01*
X93702380Y-119236904D02*
X92702380Y-119236904D01*
X93702380Y-118665476D01*
X92702380Y-118665476D01*
X93702380Y-117665476D02*
X93702380Y-118236904D01*
X93702380Y-117951190D02*
X92702380Y-117951190D01*
X92845238Y-118046428D01*
X92940476Y-118141666D01*
X92988095Y-118236904D01*
X183997142Y-86097142D02*
X183949523Y-86144761D01*
X183806666Y-86192380D01*
X183711428Y-86192380D01*
X183568571Y-86144761D01*
X183473333Y-86049523D01*
X183425714Y-85954285D01*
X183378095Y-85763809D01*
X183378095Y-85620952D01*
X183425714Y-85430476D01*
X183473333Y-85335238D01*
X183568571Y-85240000D01*
X183711428Y-85192380D01*
X183806666Y-85192380D01*
X183949523Y-85240000D01*
X183997142Y-85287619D01*
X184949523Y-86192380D02*
X184378095Y-86192380D01*
X184663809Y-86192380D02*
X184663809Y-85192380D01*
X184568571Y-85335238D01*
X184473333Y-85430476D01*
X184378095Y-85478095D01*
X185901904Y-86192380D02*
X185330476Y-86192380D01*
X185616190Y-86192380D02*
X185616190Y-85192380D01*
X185520952Y-85335238D01*
X185425714Y-85430476D01*
X185330476Y-85478095D01*
X160812380Y-114546666D02*
X160336190Y-114880000D01*
X160812380Y-115118095D02*
X159812380Y-115118095D01*
X159812380Y-114737142D01*
X159860000Y-114641904D01*
X159907619Y-114594285D01*
X160002857Y-114546666D01*
X160145714Y-114546666D01*
X160240952Y-114594285D01*
X160288571Y-114641904D01*
X160336190Y-114737142D01*
X160336190Y-115118095D01*
X159812380Y-113641904D02*
X159812380Y-114118095D01*
X160288571Y-114165714D01*
X160240952Y-114118095D01*
X160193333Y-114022857D01*
X160193333Y-113784761D01*
X160240952Y-113689523D01*
X160288571Y-113641904D01*
X160383809Y-113594285D01*
X160621904Y-113594285D01*
X160717142Y-113641904D01*
X160764761Y-113689523D01*
X160812380Y-113784761D01*
X160812380Y-114022857D01*
X160764761Y-114118095D01*
X160717142Y-114165714D01*
X100187142Y-92434666D02*
X100234761Y-92482285D01*
X100282380Y-92625142D01*
X100282380Y-92720380D01*
X100234761Y-92863238D01*
X100139523Y-92958476D01*
X100044285Y-93006095D01*
X99853809Y-93053714D01*
X99710952Y-93053714D01*
X99520476Y-93006095D01*
X99425238Y-92958476D01*
X99330000Y-92863238D01*
X99282380Y-92720380D01*
X99282380Y-92625142D01*
X99330000Y-92482285D01*
X99377619Y-92434666D01*
X99710952Y-91863238D02*
X99663333Y-91958476D01*
X99615714Y-92006095D01*
X99520476Y-92053714D01*
X99472857Y-92053714D01*
X99377619Y-92006095D01*
X99330000Y-91958476D01*
X99282380Y-91863238D01*
X99282380Y-91672761D01*
X99330000Y-91577523D01*
X99377619Y-91529904D01*
X99472857Y-91482285D01*
X99520476Y-91482285D01*
X99615714Y-91529904D01*
X99663333Y-91577523D01*
X99710952Y-91672761D01*
X99710952Y-91863238D01*
X99758571Y-91958476D01*
X99806190Y-92006095D01*
X99901428Y-92053714D01*
X100091904Y-92053714D01*
X100187142Y-92006095D01*
X100234761Y-91958476D01*
X100282380Y-91863238D01*
X100282380Y-91672761D01*
X100234761Y-91577523D01*
X100187142Y-91529904D01*
X100091904Y-91482285D01*
X99901428Y-91482285D01*
X99806190Y-91529904D01*
X99758571Y-91577523D01*
X99710952Y-91672761D01*
X184473333Y-71722380D02*
X184140000Y-71246190D01*
X183901904Y-71722380D02*
X183901904Y-70722380D01*
X184282857Y-70722380D01*
X184378095Y-70770000D01*
X184425714Y-70817619D01*
X184473333Y-70912857D01*
X184473333Y-71055714D01*
X184425714Y-71150952D01*
X184378095Y-71198571D01*
X184282857Y-71246190D01*
X183901904Y-71246190D01*
X185044761Y-71150952D02*
X184949523Y-71103333D01*
X184901904Y-71055714D01*
X184854285Y-70960476D01*
X184854285Y-70912857D01*
X184901904Y-70817619D01*
X184949523Y-70770000D01*
X185044761Y-70722380D01*
X185235238Y-70722380D01*
X185330476Y-70770000D01*
X185378095Y-70817619D01*
X185425714Y-70912857D01*
X185425714Y-70960476D01*
X185378095Y-71055714D01*
X185330476Y-71103333D01*
X185235238Y-71150952D01*
X185044761Y-71150952D01*
X184949523Y-71198571D01*
X184901904Y-71246190D01*
X184854285Y-71341428D01*
X184854285Y-71531904D01*
X184901904Y-71627142D01*
X184949523Y-71674761D01*
X185044761Y-71722380D01*
X185235238Y-71722380D01*
X185330476Y-71674761D01*
X185378095Y-71627142D01*
X185425714Y-71531904D01*
X185425714Y-71341428D01*
X185378095Y-71246190D01*
X185330476Y-71198571D01*
X185235238Y-71150952D01*
X126899998Y-101214285D02*
X126899998Y-100738095D01*
X127185712Y-101309523D02*
X126185712Y-100976190D01*
X127185712Y-100642857D01*
X127185712Y-100309523D02*
X126185712Y-100309523D01*
X126185712Y-100071428D01*
X126233332Y-99928571D01*
X126328570Y-99833333D01*
X126423808Y-99785714D01*
X126614284Y-99738095D01*
X126757141Y-99738095D01*
X126947617Y-99785714D01*
X127042855Y-99833333D01*
X127138093Y-99928571D01*
X127185712Y-100071428D01*
X127185712Y-100309523D01*
X127185712Y-99309523D02*
X126185712Y-99309523D01*
X126185712Y-99071428D01*
X126233332Y-98928571D01*
X126328570Y-98833333D01*
X126423808Y-98785714D01*
X126614284Y-98738095D01*
X126757141Y-98738095D01*
X126947617Y-98785714D01*
X127042855Y-98833333D01*
X127138093Y-98928571D01*
X127185712Y-99071428D01*
X127185712Y-99309523D01*
X127185712Y-97738095D02*
X126709522Y-98071428D01*
X127185712Y-98309523D02*
X126185712Y-98309523D01*
X126185712Y-97928571D01*
X126233332Y-97833333D01*
X126280951Y-97785714D01*
X126376189Y-97738095D01*
X126519046Y-97738095D01*
X126614284Y-97785714D01*
X126661903Y-97833333D01*
X126709522Y-97928571D01*
X126709522Y-98309523D01*
X126185712Y-97404761D02*
X126185712Y-96785714D01*
X126566665Y-97119047D01*
X126566665Y-96976190D01*
X126614284Y-96880952D01*
X126661903Y-96833333D01*
X126757141Y-96785714D01*
X126995236Y-96785714D01*
X127090474Y-96833333D01*
X127138093Y-96880952D01*
X127185712Y-96976190D01*
X127185712Y-97261904D01*
X127138093Y-97357142D01*
X127090474Y-97404761D01*
X158958095Y-46654380D02*
X159529523Y-46654380D01*
X159243809Y-47654380D02*
X159243809Y-46654380D01*
X159862857Y-47654380D02*
X159862857Y-46654380D01*
X160243809Y-46654380D01*
X160339047Y-46702000D01*
X160386666Y-46749619D01*
X160434285Y-46844857D01*
X160434285Y-46987714D01*
X160386666Y-47082952D01*
X160339047Y-47130571D01*
X160243809Y-47178190D01*
X159862857Y-47178190D01*
X160815238Y-46749619D02*
X160862857Y-46702000D01*
X160958095Y-46654380D01*
X161196190Y-46654380D01*
X161291428Y-46702000D01*
X161339047Y-46749619D01*
X161386666Y-46844857D01*
X161386666Y-46940095D01*
X161339047Y-47082952D01*
X160767619Y-47654380D01*
X161386666Y-47654380D01*
X158981904Y-50702380D02*
X159600952Y-50702380D01*
X159267619Y-51083333D01*
X159410476Y-51083333D01*
X159505714Y-51130952D01*
X159553333Y-51178571D01*
X159600952Y-51273809D01*
X159600952Y-51511904D01*
X159553333Y-51607142D01*
X159505714Y-51654761D01*
X159410476Y-51702380D01*
X159124761Y-51702380D01*
X159029523Y-51654761D01*
X158981904Y-51607142D01*
X159886666Y-50702380D02*
X160220000Y-51702380D01*
X160553333Y-50702380D01*
X160791428Y-50702380D02*
X161410476Y-50702380D01*
X161077142Y-51083333D01*
X161220000Y-51083333D01*
X161315238Y-51130952D01*
X161362857Y-51178571D01*
X161410476Y-51273809D01*
X161410476Y-51511904D01*
X161362857Y-51607142D01*
X161315238Y-51654761D01*
X161220000Y-51702380D01*
X160934285Y-51702380D01*
X160839047Y-51654761D01*
X160791428Y-51607142D01*
X156327380Y-120166666D02*
X155851190Y-120500000D01*
X156327380Y-120738095D02*
X155327380Y-120738095D01*
X155327380Y-120357142D01*
X155375000Y-120261904D01*
X155422619Y-120214285D01*
X155517857Y-120166666D01*
X155660714Y-120166666D01*
X155755952Y-120214285D01*
X155803571Y-120261904D01*
X155851190Y-120357142D01*
X155851190Y-120738095D01*
X156327380Y-119738095D02*
X155327380Y-119738095D01*
X156327380Y-119166666D01*
X155327380Y-119166666D01*
X156327380Y-118166666D02*
X156327380Y-118738095D01*
X156327380Y-118452380D02*
X155327380Y-118452380D01*
X155470238Y-118547619D01*
X155565476Y-118642857D01*
X155613095Y-118738095D01*
X155327380Y-117833333D02*
X155327380Y-117214285D01*
X155708333Y-117547619D01*
X155708333Y-117404761D01*
X155755952Y-117309523D01*
X155803571Y-117261904D01*
X155898809Y-117214285D01*
X156136904Y-117214285D01*
X156232142Y-117261904D01*
X156279761Y-117309523D01*
X156327380Y-117404761D01*
X156327380Y-117690476D01*
X156279761Y-117785714D01*
X156232142Y-117833333D01*
X151832380Y-42593333D02*
X152546666Y-42593333D01*
X152689523Y-42640952D01*
X152784761Y-42736190D01*
X152832380Y-42879047D01*
X152832380Y-42974285D01*
X152832380Y-42117142D02*
X151832380Y-42117142D01*
X151832380Y-41736190D01*
X151880000Y-41640952D01*
X151927619Y-41593333D01*
X152022857Y-41545714D01*
X152165714Y-41545714D01*
X152260952Y-41593333D01*
X152308571Y-41640952D01*
X152356190Y-41736190D01*
X152356190Y-42117142D01*
X151927619Y-41164761D02*
X151880000Y-41117142D01*
X151832380Y-41021904D01*
X151832380Y-40783809D01*
X151880000Y-40688571D01*
X151927619Y-40640952D01*
X152022857Y-40593333D01*
X152118095Y-40593333D01*
X152260952Y-40640952D01*
X152832380Y-41212380D01*
X152832380Y-40593333D01*
X146093928Y-45902380D02*
X146093928Y-44902380D01*
X146474880Y-44902380D01*
X146570119Y-44950000D01*
X146617738Y-44997619D01*
X146665357Y-45092857D01*
X146665357Y-45235714D01*
X146617738Y-45330952D01*
X146570119Y-45378571D01*
X146474880Y-45426190D01*
X146093928Y-45426190D01*
X147093928Y-45902380D02*
X147093928Y-44902380D01*
X148141547Y-45807142D02*
X148093928Y-45854761D01*
X147951071Y-45902380D01*
X147855833Y-45902380D01*
X147712976Y-45854761D01*
X147617738Y-45759523D01*
X147570119Y-45664285D01*
X147522500Y-45473809D01*
X147522500Y-45330952D01*
X147570119Y-45140476D01*
X147617738Y-45045238D01*
X147712976Y-44950000D01*
X147855833Y-44902380D01*
X147951071Y-44902380D01*
X148093928Y-44950000D01*
X148141547Y-44997619D01*
X148760595Y-44902380D02*
X148951071Y-44902380D01*
X149046309Y-44950000D01*
X149141547Y-45045238D01*
X149189166Y-45235714D01*
X149189166Y-45569047D01*
X149141547Y-45759523D01*
X149046309Y-45854761D01*
X148951071Y-45902380D01*
X148760595Y-45902380D01*
X148665357Y-45854761D01*
X148570119Y-45759523D01*
X148522500Y-45569047D01*
X148522500Y-45235714D01*
X148570119Y-45045238D01*
X148665357Y-44950000D01*
X148760595Y-44902380D01*
X149379642Y-45997619D02*
X150141547Y-45997619D01*
X150284404Y-44902380D02*
X150903452Y-44902380D01*
X150570119Y-45283333D01*
X150712976Y-45283333D01*
X150808214Y-45330952D01*
X150855833Y-45378571D01*
X150903452Y-45473809D01*
X150903452Y-45711904D01*
X150855833Y-45807142D01*
X150808214Y-45854761D01*
X150712976Y-45902380D01*
X150427261Y-45902380D01*
X150332023Y-45854761D01*
X150284404Y-45807142D01*
X151189166Y-44902380D02*
X151522500Y-45902380D01*
X151855833Y-44902380D01*
X152093928Y-44902380D02*
X152712976Y-44902380D01*
X152379642Y-45283333D01*
X152522500Y-45283333D01*
X152617738Y-45330952D01*
X152665357Y-45378571D01*
X152712976Y-45473809D01*
X152712976Y-45711904D01*
X152665357Y-45807142D01*
X152617738Y-45854761D01*
X152522500Y-45902380D01*
X152236785Y-45902380D01*
X152141547Y-45854761D01*
X152093928Y-45807142D01*
X152903452Y-45997619D02*
X153665357Y-45997619D01*
X154093928Y-44902380D02*
X154284404Y-44902380D01*
X154379642Y-44950000D01*
X154474880Y-45045238D01*
X154522500Y-45235714D01*
X154522500Y-45569047D01*
X154474880Y-45759523D01*
X154379642Y-45854761D01*
X154284404Y-45902380D01*
X154093928Y-45902380D01*
X153998690Y-45854761D01*
X153903452Y-45759523D01*
X153855833Y-45569047D01*
X153855833Y-45235714D01*
X153903452Y-45045238D01*
X153998690Y-44950000D01*
X154093928Y-44902380D01*
X154951071Y-44902380D02*
X154951071Y-45711904D01*
X154998690Y-45807142D01*
X155046309Y-45854761D01*
X155141547Y-45902380D01*
X155332023Y-45902380D01*
X155427261Y-45854761D01*
X155474880Y-45807142D01*
X155522500Y-45711904D01*
X155522500Y-44902380D01*
X155855833Y-44902380D02*
X156427261Y-44902380D01*
X156141547Y-45902380D02*
X156141547Y-44902380D01*
X151247142Y-31527142D02*
X151199523Y-31574761D01*
X151056666Y-31622380D01*
X150961428Y-31622380D01*
X150818571Y-31574761D01*
X150723333Y-31479523D01*
X150675714Y-31384285D01*
X150628095Y-31193809D01*
X150628095Y-31050952D01*
X150675714Y-30860476D01*
X150723333Y-30765238D01*
X150818571Y-30670000D01*
X150961428Y-30622380D01*
X151056666Y-30622380D01*
X151199523Y-30670000D01*
X151247142Y-30717619D01*
X152199523Y-31622380D02*
X151628095Y-31622380D01*
X151913809Y-31622380D02*
X151913809Y-30622380D01*
X151818571Y-30765238D01*
X151723333Y-30860476D01*
X151628095Y-30908095D01*
X152532857Y-30622380D02*
X153199523Y-30622380D01*
X152770952Y-31622380D01*
X166812380Y-101500000D02*
X167621904Y-101500000D01*
X167717142Y-101452380D01*
X167764761Y-101404761D01*
X167812380Y-101309523D01*
X167812380Y-101119047D01*
X167764761Y-101023809D01*
X167717142Y-100976190D01*
X167621904Y-100928571D01*
X166812380Y-100928571D01*
X167812380Y-100452380D02*
X166812380Y-100452380D01*
X166812380Y-100214285D01*
X166860000Y-100071428D01*
X166955238Y-99976190D01*
X167050476Y-99928571D01*
X167240952Y-99880952D01*
X167383809Y-99880952D01*
X167574285Y-99928571D01*
X167669523Y-99976190D01*
X167764761Y-100071428D01*
X167812380Y-100214285D01*
X167812380Y-100452380D01*
X167526666Y-99500000D02*
X167526666Y-99023809D01*
X167812380Y-99595238D02*
X166812380Y-99261904D01*
X167812380Y-98928571D01*
X166812380Y-98738095D02*
X166812380Y-98166666D01*
X167812380Y-98452380D02*
X166812380Y-98452380D01*
X167526666Y-97880952D02*
X167526666Y-97404761D01*
X167812380Y-97976190D02*
X166812380Y-97642857D01*
X167812380Y-97309523D01*
X167812380Y-96452380D02*
X167812380Y-97023809D01*
X167812380Y-96738095D02*
X166812380Y-96738095D01*
X166955238Y-96833333D01*
X167050476Y-96928571D01*
X167098095Y-97023809D01*
X97323333Y-106387142D02*
X97275714Y-106434761D01*
X97132857Y-106482380D01*
X97037619Y-106482380D01*
X96894761Y-106434761D01*
X96799523Y-106339523D01*
X96751904Y-106244285D01*
X96704285Y-106053809D01*
X96704285Y-105910952D01*
X96751904Y-105720476D01*
X96799523Y-105625238D01*
X96894761Y-105530000D01*
X97037619Y-105482380D01*
X97132857Y-105482380D01*
X97275714Y-105530000D01*
X97323333Y-105577619D01*
X98180476Y-105482380D02*
X97990000Y-105482380D01*
X97894761Y-105530000D01*
X97847142Y-105577619D01*
X97751904Y-105720476D01*
X97704285Y-105910952D01*
X97704285Y-106291904D01*
X97751904Y-106387142D01*
X97799523Y-106434761D01*
X97894761Y-106482380D01*
X98085238Y-106482380D01*
X98180476Y-106434761D01*
X98228095Y-106387142D01*
X98275714Y-106291904D01*
X98275714Y-106053809D01*
X98228095Y-105958571D01*
X98180476Y-105910952D01*
X98085238Y-105863333D01*
X97894761Y-105863333D01*
X97799523Y-105910952D01*
X97751904Y-105958571D01*
X97704285Y-106053809D01*
X183166666Y-31122380D02*
X183166666Y-31836666D01*
X183119047Y-31979523D01*
X183023809Y-32074761D01*
X182880952Y-32122380D01*
X182785714Y-32122380D01*
X183642857Y-32122380D02*
X183642857Y-31122380D01*
X184023809Y-31122380D01*
X184119047Y-31170000D01*
X184166666Y-31217619D01*
X184214285Y-31312857D01*
X184214285Y-31455714D01*
X184166666Y-31550952D01*
X184119047Y-31598571D01*
X184023809Y-31646190D01*
X183642857Y-31646190D01*
X185166666Y-32122380D02*
X184595238Y-32122380D01*
X184880952Y-32122380D02*
X184880952Y-31122380D01*
X184785714Y-31265238D01*
X184690476Y-31360476D01*
X184595238Y-31408095D01*
X184462380Y-46270357D02*
X183462380Y-46270357D01*
X183462380Y-45889404D01*
X183510000Y-45794166D01*
X183557619Y-45746547D01*
X183652857Y-45698928D01*
X183795714Y-45698928D01*
X183890952Y-45746547D01*
X183938571Y-45794166D01*
X183986190Y-45889404D01*
X183986190Y-46270357D01*
X184462380Y-45270357D02*
X183462380Y-45270357D01*
X184367142Y-44222738D02*
X184414761Y-44270357D01*
X184462380Y-44413214D01*
X184462380Y-44508452D01*
X184414761Y-44651309D01*
X184319523Y-44746547D01*
X184224285Y-44794166D01*
X184033809Y-44841785D01*
X183890952Y-44841785D01*
X183700476Y-44794166D01*
X183605238Y-44746547D01*
X183510000Y-44651309D01*
X183462380Y-44508452D01*
X183462380Y-44413214D01*
X183510000Y-44270357D01*
X183557619Y-44222738D01*
X183462380Y-43603690D02*
X183462380Y-43413214D01*
X183510000Y-43317976D01*
X183605238Y-43222738D01*
X183795714Y-43175119D01*
X184129047Y-43175119D01*
X184319523Y-43222738D01*
X184414761Y-43317976D01*
X184462380Y-43413214D01*
X184462380Y-43603690D01*
X184414761Y-43698928D01*
X184319523Y-43794166D01*
X184129047Y-43841785D01*
X183795714Y-43841785D01*
X183605238Y-43794166D01*
X183510000Y-43698928D01*
X183462380Y-43603690D01*
X184557619Y-42984642D02*
X184557619Y-42222738D01*
X183462380Y-41508452D02*
X183462380Y-41984642D01*
X183938571Y-42032261D01*
X183890952Y-41984642D01*
X183843333Y-41889404D01*
X183843333Y-41651309D01*
X183890952Y-41556071D01*
X183938571Y-41508452D01*
X184033809Y-41460833D01*
X184271904Y-41460833D01*
X184367142Y-41508452D01*
X184414761Y-41556071D01*
X184462380Y-41651309D01*
X184462380Y-41889404D01*
X184414761Y-41984642D01*
X184367142Y-42032261D01*
X183462380Y-41175119D02*
X184462380Y-40841785D01*
X183462380Y-40508452D01*
X184557619Y-40413214D02*
X184557619Y-39651309D01*
X184462380Y-39413214D02*
X183462380Y-39413214D01*
X184462380Y-38937023D02*
X183462380Y-38937023D01*
X184462380Y-38365595D01*
X183462380Y-38365595D01*
X136258333Y-88954142D02*
X136210714Y-89001761D01*
X136067857Y-89049380D01*
X135972619Y-89049380D01*
X135829761Y-89001761D01*
X135734523Y-88906523D01*
X135686904Y-88811285D01*
X135639285Y-88620809D01*
X135639285Y-88477952D01*
X135686904Y-88287476D01*
X135734523Y-88192238D01*
X135829761Y-88097000D01*
X135972619Y-88049380D01*
X136067857Y-88049380D01*
X136210714Y-88097000D01*
X136258333Y-88144619D01*
X137115476Y-88382714D02*
X137115476Y-89049380D01*
X136877380Y-88001761D02*
X136639285Y-88716047D01*
X137258333Y-88716047D01*
X176052380Y-120166666D02*
X175576190Y-120500000D01*
X176052380Y-120738095D02*
X175052380Y-120738095D01*
X175052380Y-120357142D01*
X175100000Y-120261904D01*
X175147619Y-120214285D01*
X175242857Y-120166666D01*
X175385714Y-120166666D01*
X175480952Y-120214285D01*
X175528571Y-120261904D01*
X175576190Y-120357142D01*
X175576190Y-120738095D01*
X176052380Y-119738095D02*
X175052380Y-119738095D01*
X176052380Y-119166666D01*
X175052380Y-119166666D01*
X176052380Y-118166666D02*
X176052380Y-118738095D01*
X176052380Y-118452380D02*
X175052380Y-118452380D01*
X175195238Y-118547619D01*
X175290476Y-118642857D01*
X175338095Y-118738095D01*
X175385714Y-117309523D02*
X176052380Y-117309523D01*
X175004761Y-117547619D02*
X175719047Y-117785714D01*
X175719047Y-117166666D01*
X110934761Y-74611904D02*
X110982380Y-74469047D01*
X110982380Y-74230952D01*
X110934761Y-74135714D01*
X110887142Y-74088095D01*
X110791904Y-74040476D01*
X110696666Y-74040476D01*
X110601428Y-74088095D01*
X110553809Y-74135714D01*
X110506190Y-74230952D01*
X110458571Y-74421428D01*
X110410952Y-74516666D01*
X110363333Y-74564285D01*
X110268095Y-74611904D01*
X110172857Y-74611904D01*
X110077619Y-74564285D01*
X110030000Y-74516666D01*
X109982380Y-74421428D01*
X109982380Y-74183333D01*
X110030000Y-74040476D01*
X110982380Y-73040476D02*
X110506190Y-73373809D01*
X110982380Y-73611904D02*
X109982380Y-73611904D01*
X109982380Y-73230952D01*
X110030000Y-73135714D01*
X110077619Y-73088095D01*
X110172857Y-73040476D01*
X110315714Y-73040476D01*
X110410952Y-73088095D01*
X110458571Y-73135714D01*
X110506190Y-73230952D01*
X110506190Y-73611904D01*
X110696666Y-72659523D02*
X110696666Y-72183333D01*
X110982380Y-72754761D02*
X109982380Y-72421428D01*
X110982380Y-72088095D01*
X110982380Y-71754761D02*
X109982380Y-71754761D01*
X110696666Y-71421428D01*
X109982380Y-71088095D01*
X110982380Y-71088095D01*
X110982380Y-70088095D02*
X110982380Y-70659523D01*
X110982380Y-70373809D02*
X109982380Y-70373809D01*
X110125238Y-70469047D01*
X110220476Y-70564285D01*
X110268095Y-70659523D01*
X171227380Y-119690476D02*
X170751190Y-120023809D01*
X171227380Y-120261904D02*
X170227380Y-120261904D01*
X170227380Y-119880952D01*
X170275000Y-119785714D01*
X170322619Y-119738095D01*
X170417857Y-119690476D01*
X170560714Y-119690476D01*
X170655952Y-119738095D01*
X170703571Y-119785714D01*
X170751190Y-119880952D01*
X170751190Y-120261904D01*
X171227380Y-119261904D02*
X170227380Y-119261904D01*
X171227380Y-118690476D01*
X170227380Y-118690476D01*
X170227380Y-118309523D02*
X170227380Y-117642857D01*
X171227380Y-118071428D01*
X179486666Y-31122380D02*
X179486666Y-31836666D01*
X179439047Y-31979523D01*
X179343809Y-32074761D01*
X179200952Y-32122380D01*
X179105714Y-32122380D01*
X179962857Y-32122380D02*
X179962857Y-31122380D01*
X180343809Y-31122380D01*
X180439047Y-31170000D01*
X180486666Y-31217619D01*
X180534285Y-31312857D01*
X180534285Y-31455714D01*
X180486666Y-31550952D01*
X180439047Y-31598571D01*
X180343809Y-31646190D01*
X179962857Y-31646190D01*
X181391428Y-31122380D02*
X181200952Y-31122380D01*
X181105714Y-31170000D01*
X181058095Y-31217619D01*
X180962857Y-31360476D01*
X180915238Y-31550952D01*
X180915238Y-31931904D01*
X180962857Y-32027142D01*
X181010476Y-32074761D01*
X181105714Y-32122380D01*
X181296190Y-32122380D01*
X181391428Y-32074761D01*
X181439047Y-32027142D01*
X181486666Y-31931904D01*
X181486666Y-31693809D01*
X181439047Y-31598571D01*
X181391428Y-31550952D01*
X181296190Y-31503333D01*
X181105714Y-31503333D01*
X181010476Y-31550952D01*
X180962857Y-31598571D01*
X180915238Y-31693809D01*
X180772380Y-47533690D02*
X179772380Y-47533690D01*
X179772380Y-47152738D01*
X179820000Y-47057500D01*
X179867619Y-47009880D01*
X179962857Y-46962261D01*
X180105714Y-46962261D01*
X180200952Y-47009880D01*
X180248571Y-47057500D01*
X180296190Y-47152738D01*
X180296190Y-47533690D01*
X180772380Y-46533690D02*
X179772380Y-46533690D01*
X180677142Y-45486071D02*
X180724761Y-45533690D01*
X180772380Y-45676547D01*
X180772380Y-45771785D01*
X180724761Y-45914642D01*
X180629523Y-46009880D01*
X180534285Y-46057500D01*
X180343809Y-46105119D01*
X180200952Y-46105119D01*
X180010476Y-46057500D01*
X179915238Y-46009880D01*
X179820000Y-45914642D01*
X179772380Y-45771785D01*
X179772380Y-45676547D01*
X179820000Y-45533690D01*
X179867619Y-45486071D01*
X179772380Y-44867023D02*
X179772380Y-44676547D01*
X179820000Y-44581309D01*
X179915238Y-44486071D01*
X180105714Y-44438452D01*
X180439047Y-44438452D01*
X180629523Y-44486071D01*
X180724761Y-44581309D01*
X180772380Y-44676547D01*
X180772380Y-44867023D01*
X180724761Y-44962261D01*
X180629523Y-45057500D01*
X180439047Y-45105119D01*
X180105714Y-45105119D01*
X179915238Y-45057500D01*
X179820000Y-44962261D01*
X179772380Y-44867023D01*
X180867619Y-44247976D02*
X180867619Y-43486071D01*
X179772380Y-42771785D02*
X179772380Y-43247976D01*
X180248571Y-43295595D01*
X180200952Y-43247976D01*
X180153333Y-43152738D01*
X180153333Y-42914642D01*
X180200952Y-42819404D01*
X180248571Y-42771785D01*
X180343809Y-42724166D01*
X180581904Y-42724166D01*
X180677142Y-42771785D01*
X180724761Y-42819404D01*
X180772380Y-42914642D01*
X180772380Y-43152738D01*
X180724761Y-43247976D01*
X180677142Y-43295595D01*
X179772380Y-42438452D02*
X180772380Y-42105119D01*
X179772380Y-41771785D01*
X180867619Y-41676547D02*
X180867619Y-40914642D01*
X179772380Y-40486071D02*
X179772380Y-40295595D01*
X179820000Y-40200357D01*
X179915238Y-40105119D01*
X180105714Y-40057500D01*
X180439047Y-40057500D01*
X180629523Y-40105119D01*
X180724761Y-40200357D01*
X180772380Y-40295595D01*
X180772380Y-40486071D01*
X180724761Y-40581309D01*
X180629523Y-40676547D01*
X180439047Y-40724166D01*
X180105714Y-40724166D01*
X179915238Y-40676547D01*
X179820000Y-40581309D01*
X179772380Y-40486071D01*
X179772380Y-39628928D02*
X180581904Y-39628928D01*
X180677142Y-39581309D01*
X180724761Y-39533690D01*
X180772380Y-39438452D01*
X180772380Y-39247976D01*
X180724761Y-39152738D01*
X180677142Y-39105119D01*
X180581904Y-39057500D01*
X179772380Y-39057500D01*
X179772380Y-38724166D02*
X179772380Y-38152738D01*
X180772380Y-38438452D02*
X179772380Y-38438452D01*
X159019523Y-33262380D02*
X158543333Y-33262380D01*
X158543333Y-32262380D01*
X159352857Y-33262380D02*
X159352857Y-32262380D01*
X159590952Y-32262380D01*
X159733809Y-32310000D01*
X159829047Y-32405238D01*
X159876666Y-32500476D01*
X159924285Y-32690952D01*
X159924285Y-32833809D01*
X159876666Y-33024285D01*
X159829047Y-33119523D01*
X159733809Y-33214761D01*
X159590952Y-33262380D01*
X159352857Y-33262380D01*
X160543333Y-32262380D02*
X160733809Y-32262380D01*
X160829047Y-32310000D01*
X160924285Y-32405238D01*
X160971904Y-32595714D01*
X160971904Y-32929047D01*
X160924285Y-33119523D01*
X160829047Y-33214761D01*
X160733809Y-33262380D01*
X160543333Y-33262380D01*
X160448095Y-33214761D01*
X160352857Y-33119523D01*
X160305238Y-32929047D01*
X160305238Y-32595714D01*
X160352857Y-32405238D01*
X160448095Y-32310000D01*
X160543333Y-32262380D01*
X161924285Y-33262380D02*
X161352857Y-33262380D01*
X161638571Y-33262380D02*
X161638571Y-32262380D01*
X161543333Y-32405238D01*
X161448095Y-32500476D01*
X161352857Y-32548095D01*
X155210000Y-34846666D02*
X155686190Y-34846666D01*
X155114761Y-35132380D02*
X155448095Y-34132380D01*
X155781428Y-35132380D01*
X156114761Y-35132380D02*
X156114761Y-34132380D01*
X156448095Y-34846666D01*
X156781428Y-34132380D01*
X156781428Y-35132380D01*
X157210000Y-35084761D02*
X157352857Y-35132380D01*
X157590952Y-35132380D01*
X157686190Y-35084761D01*
X157733809Y-35037142D01*
X157781428Y-34941904D01*
X157781428Y-34846666D01*
X157733809Y-34751428D01*
X157686190Y-34703809D01*
X157590952Y-34656190D01*
X157400476Y-34608571D01*
X157305238Y-34560952D01*
X157257619Y-34513333D01*
X157210000Y-34418095D01*
X157210000Y-34322857D01*
X157257619Y-34227619D01*
X157305238Y-34180000D01*
X157400476Y-34132380D01*
X157638571Y-34132380D01*
X157781428Y-34180000D01*
X158733809Y-35132380D02*
X158162380Y-35132380D01*
X158448095Y-35132380D02*
X158448095Y-34132380D01*
X158352857Y-34275238D01*
X158257619Y-34370476D01*
X158162380Y-34418095D01*
X159686190Y-35132380D02*
X159114761Y-35132380D01*
X159400476Y-35132380D02*
X159400476Y-34132380D01*
X159305238Y-34275238D01*
X159210000Y-34370476D01*
X159114761Y-34418095D01*
X160638571Y-35132380D02*
X160067142Y-35132380D01*
X160352857Y-35132380D02*
X160352857Y-34132380D01*
X160257619Y-34275238D01*
X160162380Y-34370476D01*
X160067142Y-34418095D01*
X160971904Y-34132380D02*
X161638571Y-34132380D01*
X161210000Y-35132380D01*
X162019523Y-34751428D02*
X162781428Y-34751428D01*
X163162380Y-34132380D02*
X163781428Y-34132380D01*
X163448095Y-34513333D01*
X163590952Y-34513333D01*
X163686190Y-34560952D01*
X163733809Y-34608571D01*
X163781428Y-34703809D01*
X163781428Y-34941904D01*
X163733809Y-35037142D01*
X163686190Y-35084761D01*
X163590952Y-35132380D01*
X163305238Y-35132380D01*
X163210000Y-35084761D01*
X163162380Y-35037142D01*
X164210000Y-35037142D02*
X164257619Y-35084761D01*
X164210000Y-35132380D01*
X164162380Y-35084761D01*
X164210000Y-35037142D01*
X164210000Y-35132380D01*
X164590952Y-34132380D02*
X165210000Y-34132380D01*
X164876666Y-34513333D01*
X165019523Y-34513333D01*
X165114761Y-34560952D01*
X165162380Y-34608571D01*
X165210000Y-34703809D01*
X165210000Y-34941904D01*
X165162380Y-35037142D01*
X165114761Y-35084761D01*
X165019523Y-35132380D01*
X164733809Y-35132380D01*
X164638571Y-35084761D01*
X164590952Y-35037142D01*
X179892380Y-103589166D02*
X179416190Y-103922500D01*
X179892380Y-104160595D02*
X178892380Y-104160595D01*
X178892380Y-103779642D01*
X178940000Y-103684404D01*
X178987619Y-103636785D01*
X179082857Y-103589166D01*
X179225714Y-103589166D01*
X179320952Y-103636785D01*
X179368571Y-103684404D01*
X179416190Y-103779642D01*
X179416190Y-104160595D01*
X178987619Y-103208214D02*
X178940000Y-103160595D01*
X178892380Y-103065357D01*
X178892380Y-102827261D01*
X178940000Y-102732023D01*
X178987619Y-102684404D01*
X179082857Y-102636785D01*
X179178095Y-102636785D01*
X179320952Y-102684404D01*
X179892380Y-103255833D01*
X179892380Y-102636785D01*
X183769783Y-29320954D02*
X184150736Y-29320954D01*
X183912640Y-29987620D02*
X183912640Y-29130478D01*
X183960260Y-29035240D01*
X184055498Y-28987620D01*
X184150736Y-28987620D01*
X184484069Y-29987620D02*
X184484069Y-29320954D01*
X184484069Y-29511430D02*
X184531688Y-29416192D01*
X184579307Y-29368573D01*
X184674545Y-29320954D01*
X184769783Y-29320954D01*
X185245974Y-29987620D02*
X185150736Y-29940001D01*
X185103117Y-29892382D01*
X185055498Y-29797144D01*
X185055498Y-29511430D01*
X185103117Y-29416192D01*
X185150736Y-29368573D01*
X185245974Y-29320954D01*
X185388831Y-29320954D01*
X185484069Y-29368573D01*
X185531688Y-29416192D01*
X185579307Y-29511430D01*
X185579307Y-29797144D01*
X185531688Y-29892382D01*
X185484069Y-29940001D01*
X185388831Y-29987620D01*
X185245974Y-29987620D01*
X186007879Y-29320954D02*
X186007879Y-29987620D01*
X186007879Y-29416192D02*
X186055498Y-29368573D01*
X186150736Y-29320954D01*
X186293593Y-29320954D01*
X186388831Y-29368573D01*
X186436450Y-29463811D01*
X186436450Y-29987620D01*
X186769783Y-29320954D02*
X187150736Y-29320954D01*
X186912640Y-28987620D02*
X186912640Y-29844763D01*
X186960260Y-29940001D01*
X187055498Y-29987620D01*
X187150736Y-29987620D01*
X163788095Y-46524380D02*
X164359523Y-46524380D01*
X164073809Y-47524380D02*
X164073809Y-46524380D01*
X164692857Y-47524380D02*
X164692857Y-46524380D01*
X165073809Y-46524380D01*
X165169047Y-46572000D01*
X165216666Y-46619619D01*
X165264285Y-46714857D01*
X165264285Y-46857714D01*
X165216666Y-46952952D01*
X165169047Y-47000571D01*
X165073809Y-47048190D01*
X164692857Y-47048190D01*
X165597619Y-46524380D02*
X166216666Y-46524380D01*
X165883333Y-46905333D01*
X166026190Y-46905333D01*
X166121428Y-46952952D01*
X166169047Y-47000571D01*
X166216666Y-47095809D01*
X166216666Y-47333904D01*
X166169047Y-47429142D01*
X166121428Y-47476761D01*
X166026190Y-47524380D01*
X165740476Y-47524380D01*
X165645238Y-47476761D01*
X165597619Y-47429142D01*
X164859523Y-50572380D02*
X164383333Y-50572380D01*
X164335714Y-51048571D01*
X164383333Y-51000952D01*
X164478571Y-50953333D01*
X164716666Y-50953333D01*
X164811904Y-51000952D01*
X164859523Y-51048571D01*
X164907142Y-51143809D01*
X164907142Y-51381904D01*
X164859523Y-51477142D01*
X164811904Y-51524761D01*
X164716666Y-51572380D01*
X164478571Y-51572380D01*
X164383333Y-51524761D01*
X164335714Y-51477142D01*
X165192857Y-50572380D02*
X165526190Y-51572380D01*
X165859523Y-50572380D01*
X177067142Y-99722380D02*
X177638571Y-99722380D01*
X177352857Y-100722380D02*
X177352857Y-99722380D01*
X177876666Y-99722380D02*
X178543333Y-100722380D01*
X178543333Y-99722380D02*
X177876666Y-100722380D01*
X178876666Y-100674761D02*
X179019523Y-100722380D01*
X179257619Y-100722380D01*
X179352857Y-100674761D01*
X179400476Y-100627142D01*
X179448095Y-100531904D01*
X179448095Y-100436666D01*
X179400476Y-100341428D01*
X179352857Y-100293809D01*
X179257619Y-100246190D01*
X179067142Y-100198571D01*
X178971904Y-100150952D01*
X178924285Y-100103333D01*
X178876666Y-100008095D01*
X178876666Y-99912857D01*
X178924285Y-99817619D01*
X178971904Y-99770000D01*
X179067142Y-99722380D01*
X179305238Y-99722380D01*
X179448095Y-99770000D01*
X180067142Y-99722380D02*
X180162380Y-99722380D01*
X180257619Y-99770000D01*
X180305238Y-99817619D01*
X180352857Y-99912857D01*
X180400476Y-100103333D01*
X180400476Y-100341428D01*
X180352857Y-100531904D01*
X180305238Y-100627142D01*
X180257619Y-100674761D01*
X180162380Y-100722380D01*
X180067142Y-100722380D01*
X179971904Y-100674761D01*
X179924285Y-100627142D01*
X179876666Y-100531904D01*
X179829047Y-100341428D01*
X179829047Y-100103333D01*
X179876666Y-99912857D01*
X179924285Y-99817619D01*
X179971904Y-99770000D01*
X180067142Y-99722380D01*
X181352857Y-100722380D02*
X180781428Y-100722380D01*
X181067142Y-100722380D02*
X181067142Y-99722380D01*
X180971904Y-99865238D01*
X180876666Y-99960476D01*
X180781428Y-100008095D01*
X181971904Y-99722380D02*
X182067142Y-99722380D01*
X182162380Y-99770000D01*
X182210000Y-99817619D01*
X182257619Y-99912857D01*
X182305238Y-100103333D01*
X182305238Y-100341428D01*
X182257619Y-100531904D01*
X182210000Y-100627142D01*
X182162380Y-100674761D01*
X182067142Y-100722380D01*
X181971904Y-100722380D01*
X181876666Y-100674761D01*
X181829047Y-100627142D01*
X181781428Y-100531904D01*
X181733809Y-100341428D01*
X181733809Y-100103333D01*
X181781428Y-99912857D01*
X181829047Y-99817619D01*
X181876666Y-99770000D01*
X181971904Y-99722380D01*
X183257619Y-100722380D02*
X182686190Y-100722380D01*
X182971904Y-100722380D02*
X182971904Y-99722380D01*
X182876666Y-99865238D01*
X182781428Y-99960476D01*
X182686190Y-100008095D01*
X118383332Y-101214285D02*
X118383332Y-100738095D01*
X118669046Y-101309523D02*
X117669046Y-100976190D01*
X118669046Y-100642857D01*
X118669046Y-100309523D02*
X117669046Y-100309523D01*
X117669046Y-100071428D01*
X117716666Y-99928571D01*
X117811904Y-99833333D01*
X117907142Y-99785714D01*
X118097618Y-99738095D01*
X118240475Y-99738095D01*
X118430951Y-99785714D01*
X118526189Y-99833333D01*
X118621427Y-99928571D01*
X118669046Y-100071428D01*
X118669046Y-100309523D01*
X118669046Y-99309523D02*
X117669046Y-99309523D01*
X117669046Y-99071428D01*
X117716666Y-98928571D01*
X117811904Y-98833333D01*
X117907142Y-98785714D01*
X118097618Y-98738095D01*
X118240475Y-98738095D01*
X118430951Y-98785714D01*
X118526189Y-98833333D01*
X118621427Y-98928571D01*
X118669046Y-99071428D01*
X118669046Y-99309523D01*
X118669046Y-97738095D02*
X118192856Y-98071428D01*
X118669046Y-98309523D02*
X117669046Y-98309523D01*
X117669046Y-97928571D01*
X117716666Y-97833333D01*
X117764285Y-97785714D01*
X117859523Y-97738095D01*
X118002380Y-97738095D01*
X118097618Y-97785714D01*
X118145237Y-97833333D01*
X118192856Y-97928571D01*
X118192856Y-98309523D01*
X117764285Y-97357142D02*
X117716666Y-97309523D01*
X117669046Y-97214285D01*
X117669046Y-96976190D01*
X117716666Y-96880952D01*
X117764285Y-96833333D01*
X117859523Y-96785714D01*
X117954761Y-96785714D01*
X118097618Y-96833333D01*
X118669046Y-97404761D01*
X118669046Y-96785714D01*
X151227380Y-119715476D02*
X150751190Y-120048809D01*
X151227380Y-120286904D02*
X150227380Y-120286904D01*
X150227380Y-119905952D01*
X150275000Y-119810714D01*
X150322619Y-119763095D01*
X150417857Y-119715476D01*
X150560714Y-119715476D01*
X150655952Y-119763095D01*
X150703571Y-119810714D01*
X150751190Y-119905952D01*
X150751190Y-120286904D01*
X151227380Y-119286904D02*
X150227380Y-119286904D01*
X151227380Y-118715476D01*
X150227380Y-118715476D01*
X150227380Y-117810714D02*
X150227380Y-118001190D01*
X150275000Y-118096428D01*
X150322619Y-118144047D01*
X150465476Y-118239285D01*
X150655952Y-118286904D01*
X151036904Y-118286904D01*
X151132142Y-118239285D01*
X151179761Y-118191666D01*
X151227380Y-118096428D01*
X151227380Y-117905952D01*
X151179761Y-117810714D01*
X151132142Y-117763095D01*
X151036904Y-117715476D01*
X150798809Y-117715476D01*
X150703571Y-117763095D01*
X150655952Y-117810714D01*
X150608333Y-117905952D01*
X150608333Y-118096428D01*
X150655952Y-118191666D01*
X150703571Y-118239285D01*
X150798809Y-118286904D01*
X136327380Y-120166666D02*
X135851190Y-120500000D01*
X136327380Y-120738095D02*
X135327380Y-120738095D01*
X135327380Y-120357142D01*
X135375000Y-120261904D01*
X135422619Y-120214285D01*
X135517857Y-120166666D01*
X135660714Y-120166666D01*
X135755952Y-120214285D01*
X135803571Y-120261904D01*
X135851190Y-120357142D01*
X135851190Y-120738095D01*
X136327380Y-119738095D02*
X135327380Y-119738095D01*
X136327380Y-119166666D01*
X135327380Y-119166666D01*
X136327380Y-118166666D02*
X136327380Y-118738095D01*
X136327380Y-118452380D02*
X135327380Y-118452380D01*
X135470238Y-118547619D01*
X135565476Y-118642857D01*
X135613095Y-118738095D01*
X136327380Y-117214285D02*
X136327380Y-117785714D01*
X136327380Y-117500000D02*
X135327380Y-117500000D01*
X135470238Y-117595238D01*
X135565476Y-117690476D01*
X135613095Y-117785714D01*
X157222380Y-42553333D02*
X157936666Y-42553333D01*
X158079523Y-42600952D01*
X158174761Y-42696190D01*
X158222380Y-42839047D01*
X158222380Y-42934285D01*
X158222380Y-42077142D02*
X157222380Y-42077142D01*
X157222380Y-41696190D01*
X157270000Y-41600952D01*
X157317619Y-41553333D01*
X157412857Y-41505714D01*
X157555714Y-41505714D01*
X157650952Y-41553333D01*
X157698571Y-41600952D01*
X157746190Y-41696190D01*
X157746190Y-42077142D01*
X157555714Y-40648571D02*
X158222380Y-40648571D01*
X157174761Y-40886666D02*
X157889047Y-41124761D01*
X157889047Y-40505714D01*
X159181785Y-45902380D02*
X158705595Y-45902380D01*
X158705595Y-44902380D01*
X159515119Y-45902380D02*
X159515119Y-44902380D01*
X159753214Y-44902380D01*
X159896071Y-44950000D01*
X159991309Y-45045238D01*
X160038928Y-45140476D01*
X160086547Y-45330952D01*
X160086547Y-45473809D01*
X160038928Y-45664285D01*
X159991309Y-45759523D01*
X159896071Y-45854761D01*
X159753214Y-45902380D01*
X159515119Y-45902380D01*
X160705595Y-44902380D02*
X160896071Y-44902380D01*
X160991309Y-44950000D01*
X161086547Y-45045238D01*
X161134166Y-45235714D01*
X161134166Y-45569047D01*
X161086547Y-45759523D01*
X160991309Y-45854761D01*
X160896071Y-45902380D01*
X160705595Y-45902380D01*
X160610357Y-45854761D01*
X160515119Y-45759523D01*
X160467500Y-45569047D01*
X160467500Y-45235714D01*
X160515119Y-45045238D01*
X160610357Y-44950000D01*
X160705595Y-44902380D01*
X161324642Y-45997619D02*
X162086547Y-45997619D01*
X162229404Y-44902380D02*
X162848452Y-44902380D01*
X162515119Y-45283333D01*
X162657976Y-45283333D01*
X162753214Y-45330952D01*
X162800833Y-45378571D01*
X162848452Y-45473809D01*
X162848452Y-45711904D01*
X162800833Y-45807142D01*
X162753214Y-45854761D01*
X162657976Y-45902380D01*
X162372261Y-45902380D01*
X162277023Y-45854761D01*
X162229404Y-45807142D01*
X163134166Y-44902380D02*
X163467500Y-45902380D01*
X163800833Y-44902380D01*
X164038928Y-44902380D02*
X164657976Y-44902380D01*
X164324642Y-45283333D01*
X164467500Y-45283333D01*
X164562738Y-45330952D01*
X164610357Y-45378571D01*
X164657976Y-45473809D01*
X164657976Y-45711904D01*
X164610357Y-45807142D01*
X164562738Y-45854761D01*
X164467500Y-45902380D01*
X164181785Y-45902380D01*
X164086547Y-45854761D01*
X164038928Y-45807142D01*
X164848452Y-45997619D02*
X165610357Y-45997619D01*
X166038928Y-44902380D02*
X166229404Y-44902380D01*
X166324642Y-44950000D01*
X166419880Y-45045238D01*
X166467500Y-45235714D01*
X166467500Y-45569047D01*
X166419880Y-45759523D01*
X166324642Y-45854761D01*
X166229404Y-45902380D01*
X166038928Y-45902380D01*
X165943690Y-45854761D01*
X165848452Y-45759523D01*
X165800833Y-45569047D01*
X165800833Y-45235714D01*
X165848452Y-45045238D01*
X165943690Y-44950000D01*
X166038928Y-44902380D01*
X166896071Y-44902380D02*
X166896071Y-45711904D01*
X166943690Y-45807142D01*
X166991309Y-45854761D01*
X167086547Y-45902380D01*
X167277023Y-45902380D01*
X167372261Y-45854761D01*
X167419880Y-45807142D01*
X167467500Y-45711904D01*
X167467500Y-44902380D01*
X167800833Y-44902380D02*
X168372261Y-44902380D01*
X168086547Y-45902380D02*
X168086547Y-44902380D01*
X96642380Y-101500000D02*
X97451904Y-101500000D01*
X97547142Y-101452380D01*
X97594761Y-101404761D01*
X97642380Y-101309523D01*
X97642380Y-101119047D01*
X97594761Y-101023809D01*
X97547142Y-100976190D01*
X97451904Y-100928571D01*
X96642380Y-100928571D01*
X97642380Y-100452380D02*
X96642380Y-100452380D01*
X96642380Y-100214285D01*
X96690000Y-100071428D01*
X96785238Y-99976190D01*
X96880476Y-99928571D01*
X97070952Y-99880952D01*
X97213809Y-99880952D01*
X97404285Y-99928571D01*
X97499523Y-99976190D01*
X97594761Y-100071428D01*
X97642380Y-100214285D01*
X97642380Y-100452380D01*
X97356666Y-99500000D02*
X97356666Y-99023809D01*
X97642380Y-99595238D02*
X96642380Y-99261904D01*
X97642380Y-98928571D01*
X96642380Y-98738095D02*
X96642380Y-98166666D01*
X97642380Y-98452380D02*
X96642380Y-98452380D01*
X97356666Y-97880952D02*
X97356666Y-97404761D01*
X97642380Y-97976190D02*
X96642380Y-97642857D01*
X97642380Y-97309523D01*
X96737619Y-97023809D02*
X96690000Y-96976190D01*
X96642380Y-96880952D01*
X96642380Y-96642857D01*
X96690000Y-96547619D01*
X96737619Y-96500000D01*
X96832857Y-96452380D01*
X96928095Y-96452380D01*
X97070952Y-96500000D01*
X97642380Y-97071428D01*
X97642380Y-96452380D01*
X178722380Y-92416666D02*
X178246190Y-92750000D01*
X178722380Y-92988095D02*
X177722380Y-92988095D01*
X177722380Y-92607142D01*
X177770000Y-92511904D01*
X177817619Y-92464285D01*
X177912857Y-92416666D01*
X178055714Y-92416666D01*
X178150952Y-92464285D01*
X178198571Y-92511904D01*
X178246190Y-92607142D01*
X178246190Y-92988095D01*
X177722380Y-92083333D02*
X177722380Y-91416666D01*
X178722380Y-91845238D01*
X111227380Y-119690476D02*
X110751190Y-120023809D01*
X111227380Y-120261904D02*
X110227380Y-120261904D01*
X110227380Y-119880952D01*
X110275000Y-119785714D01*
X110322619Y-119738095D01*
X110417857Y-119690476D01*
X110560714Y-119690476D01*
X110655952Y-119738095D01*
X110703571Y-119785714D01*
X110751190Y-119880952D01*
X110751190Y-120261904D01*
X111227380Y-119261904D02*
X110227380Y-119261904D01*
X111227380Y-118690476D01*
X110227380Y-118690476D01*
X110322619Y-118261904D02*
X110275000Y-118214285D01*
X110227380Y-118119047D01*
X110227380Y-117880952D01*
X110275000Y-117785714D01*
X110322619Y-117738095D01*
X110417857Y-117690476D01*
X110513095Y-117690476D01*
X110655952Y-117738095D01*
X111227380Y-118309523D01*
X111227380Y-117690476D01*
X127746665Y-88864142D02*
X127699046Y-88911761D01*
X127556189Y-88959380D01*
X127460951Y-88959380D01*
X127318093Y-88911761D01*
X127222855Y-88816523D01*
X127175236Y-88721285D01*
X127127617Y-88530809D01*
X127127617Y-88387952D01*
X127175236Y-88197476D01*
X127222855Y-88102238D01*
X127318093Y-88007000D01*
X127460951Y-87959380D01*
X127556189Y-87959380D01*
X127699046Y-88007000D01*
X127746665Y-88054619D01*
X128079998Y-87959380D02*
X128699046Y-87959380D01*
X128365712Y-88340333D01*
X128508570Y-88340333D01*
X128603808Y-88387952D01*
X128651427Y-88435571D01*
X128699046Y-88530809D01*
X128699046Y-88768904D01*
X128651427Y-88864142D01*
X128603808Y-88911761D01*
X128508570Y-88959380D01*
X128222855Y-88959380D01*
X128127617Y-88911761D01*
X128079998Y-88864142D01*
X174577380Y-56238095D02*
X173577380Y-56238095D01*
X173577380Y-56000000D01*
X173625000Y-55857142D01*
X173720238Y-55761904D01*
X173815476Y-55714285D01*
X174005952Y-55666666D01*
X174148809Y-55666666D01*
X174339285Y-55714285D01*
X174434523Y-55761904D01*
X174529761Y-55857142D01*
X174577380Y-56000000D01*
X174577380Y-56238095D01*
X173577380Y-55333333D02*
X173577380Y-54714285D01*
X173958333Y-55047619D01*
X173958333Y-54904761D01*
X174005952Y-54809523D01*
X174053571Y-54761904D01*
X174148809Y-54714285D01*
X174386904Y-54714285D01*
X174482142Y-54761904D01*
X174529761Y-54809523D01*
X174577380Y-54904761D01*
X174577380Y-55190476D01*
X174529761Y-55285714D01*
X174482142Y-55333333D01*
X174947142Y-104065357D02*
X174994761Y-104112976D01*
X175042380Y-104255833D01*
X175042380Y-104351071D01*
X174994761Y-104493928D01*
X174899523Y-104589166D01*
X174804285Y-104636785D01*
X174613809Y-104684404D01*
X174470952Y-104684404D01*
X174280476Y-104636785D01*
X174185238Y-104589166D01*
X174090000Y-104493928D01*
X174042380Y-104351071D01*
X174042380Y-104255833D01*
X174090000Y-104112976D01*
X174137619Y-104065357D01*
X175042380Y-103112976D02*
X175042380Y-103684404D01*
X175042380Y-103398690D02*
X174042380Y-103398690D01*
X174185238Y-103493928D01*
X174280476Y-103589166D01*
X174328095Y-103684404D01*
X174042380Y-102779642D02*
X174042380Y-102160595D01*
X174423333Y-102493928D01*
X174423333Y-102351071D01*
X174470952Y-102255833D01*
X174518571Y-102208214D01*
X174613809Y-102160595D01*
X174851904Y-102160595D01*
X174947142Y-102208214D01*
X174994761Y-102255833D01*
X175042380Y-102351071D01*
X175042380Y-102636785D01*
X174994761Y-102732023D01*
X174947142Y-102779642D01*
X183997142Y-82447142D02*
X183949523Y-82494761D01*
X183806666Y-82542380D01*
X183711428Y-82542380D01*
X183568571Y-82494761D01*
X183473333Y-82399523D01*
X183425714Y-82304285D01*
X183378095Y-82113809D01*
X183378095Y-81970952D01*
X183425714Y-81780476D01*
X183473333Y-81685238D01*
X183568571Y-81590000D01*
X183711428Y-81542380D01*
X183806666Y-81542380D01*
X183949523Y-81590000D01*
X183997142Y-81637619D01*
X184949523Y-82542380D02*
X184378095Y-82542380D01*
X184663809Y-82542380D02*
X184663809Y-81542380D01*
X184568571Y-81685238D01*
X184473333Y-81780476D01*
X184378095Y-81828095D01*
X185806666Y-81542380D02*
X185616190Y-81542380D01*
X185520952Y-81590000D01*
X185473333Y-81637619D01*
X185378095Y-81780476D01*
X185330476Y-81970952D01*
X185330476Y-82351904D01*
X185378095Y-82447142D01*
X185425714Y-82494761D01*
X185520952Y-82542380D01*
X185711428Y-82542380D01*
X185806666Y-82494761D01*
X185854285Y-82447142D01*
X185901904Y-82351904D01*
X185901904Y-82113809D01*
X185854285Y-82018571D01*
X185806666Y-81970952D01*
X185711428Y-81923333D01*
X185520952Y-81923333D01*
X185425714Y-81970952D01*
X185378095Y-82018571D01*
X185330476Y-82113809D01*
X186952380Y-56238095D02*
X185952380Y-56238095D01*
X185952380Y-56000000D01*
X186000000Y-55857142D01*
X186095238Y-55761904D01*
X186190476Y-55714285D01*
X186380952Y-55666666D01*
X186523809Y-55666666D01*
X186714285Y-55714285D01*
X186809523Y-55761904D01*
X186904761Y-55857142D01*
X186952380Y-56000000D01*
X186952380Y-56238095D01*
X186952380Y-54714285D02*
X186952380Y-55285714D01*
X186952380Y-55000000D02*
X185952380Y-55000000D01*
X186095238Y-55095238D01*
X186190476Y-55190476D01*
X186238095Y-55285714D01*
X141227380Y-119690476D02*
X140751190Y-120023809D01*
X141227380Y-120261904D02*
X140227380Y-120261904D01*
X140227380Y-119880952D01*
X140275000Y-119785714D01*
X140322619Y-119738095D01*
X140417857Y-119690476D01*
X140560714Y-119690476D01*
X140655952Y-119738095D01*
X140703571Y-119785714D01*
X140751190Y-119880952D01*
X140751190Y-120261904D01*
X141227380Y-119261904D02*
X140227380Y-119261904D01*
X141227380Y-118690476D01*
X140227380Y-118690476D01*
X140227380Y-117738095D02*
X140227380Y-118214285D01*
X140703571Y-118261904D01*
X140655952Y-118214285D01*
X140608333Y-118119047D01*
X140608333Y-117880952D01*
X140655952Y-117785714D01*
X140703571Y-117738095D01*
X140798809Y-117690476D01*
X141036904Y-117690476D01*
X141132142Y-117738095D01*
X141179761Y-117785714D01*
X141227380Y-117880952D01*
X141227380Y-118119047D01*
X141179761Y-118214285D01*
X141132142Y-118261904D01*
X121252380Y-119690476D02*
X120776190Y-120023809D01*
X121252380Y-120261904D02*
X120252380Y-120261904D01*
X120252380Y-119880952D01*
X120300000Y-119785714D01*
X120347619Y-119738095D01*
X120442857Y-119690476D01*
X120585714Y-119690476D01*
X120680952Y-119738095D01*
X120728571Y-119785714D01*
X120776190Y-119880952D01*
X120776190Y-120261904D01*
X121252380Y-119261904D02*
X120252380Y-119261904D01*
X121252380Y-118690476D01*
X120252380Y-118690476D01*
X120252380Y-118309523D02*
X120252380Y-117690476D01*
X120633333Y-118023809D01*
X120633333Y-117880952D01*
X120680952Y-117785714D01*
X120728571Y-117738095D01*
X120823809Y-117690476D01*
X121061904Y-117690476D01*
X121157142Y-117738095D01*
X121204761Y-117785714D01*
X121252380Y-117880952D01*
X121252380Y-118166666D01*
X121204761Y-118261904D01*
X121157142Y-118309523D01*
X86917380Y-84973333D02*
X87631666Y-84973333D01*
X87774523Y-85020952D01*
X87869761Y-85116190D01*
X87917380Y-85259047D01*
X87917380Y-85354285D01*
X87917380Y-84497142D02*
X86917380Y-84497142D01*
X86917380Y-84116190D01*
X86965000Y-84020952D01*
X87012619Y-83973333D01*
X87107857Y-83925714D01*
X87250714Y-83925714D01*
X87345952Y-83973333D01*
X87393571Y-84020952D01*
X87441190Y-84116190D01*
X87441190Y-84497142D01*
X86917380Y-83592380D02*
X86917380Y-82973333D01*
X87298333Y-83306666D01*
X87298333Y-83163809D01*
X87345952Y-83068571D01*
X87393571Y-83020952D01*
X87488809Y-82973333D01*
X87726904Y-82973333D01*
X87822142Y-83020952D01*
X87869761Y-83068571D01*
X87917380Y-83163809D01*
X87917380Y-83449523D01*
X87869761Y-83544761D01*
X87822142Y-83592380D01*
X87200952Y-81362380D02*
X87439047Y-82362380D01*
X87629523Y-81648095D01*
X87820000Y-82362380D01*
X88058095Y-81362380D01*
X89010476Y-82362380D02*
X88677142Y-81886190D01*
X88439047Y-82362380D02*
X88439047Y-81362380D01*
X88820000Y-81362380D01*
X88915238Y-81410000D01*
X88962857Y-81457619D01*
X89010476Y-81552857D01*
X89010476Y-81695714D01*
X88962857Y-81790952D01*
X88915238Y-81838571D01*
X88820000Y-81886190D01*
X88439047Y-81886190D01*
X89391428Y-82076666D02*
X89867619Y-82076666D01*
X89296190Y-82362380D02*
X89629523Y-81362380D01*
X89962857Y-82362380D01*
X90296190Y-82362380D02*
X90296190Y-81362380D01*
X90629523Y-82076666D01*
X90962857Y-81362380D01*
X90962857Y-82362380D01*
X91200952Y-82457619D02*
X91962857Y-82457619D01*
X92391428Y-81362380D02*
X92581904Y-81362380D01*
X92677142Y-81410000D01*
X92772380Y-81505238D01*
X92820000Y-81695714D01*
X92820000Y-82029047D01*
X92772380Y-82219523D01*
X92677142Y-82314761D01*
X92581904Y-82362380D01*
X92391428Y-82362380D01*
X92296190Y-82314761D01*
X92200952Y-82219523D01*
X92153333Y-82029047D01*
X92153333Y-81695714D01*
X92200952Y-81505238D01*
X92296190Y-81410000D01*
X92391428Y-81362380D01*
X93820000Y-82362380D02*
X93486666Y-81886190D01*
X93248571Y-82362380D02*
X93248571Y-81362380D01*
X93629523Y-81362380D01*
X93724761Y-81410000D01*
X93772380Y-81457619D01*
X93820000Y-81552857D01*
X93820000Y-81695714D01*
X93772380Y-81790952D01*
X93724761Y-81838571D01*
X93629523Y-81886190D01*
X93248571Y-81886190D01*
X94010476Y-82457619D02*
X94772380Y-82457619D01*
X95581904Y-82267142D02*
X95534285Y-82314761D01*
X95391428Y-82362380D01*
X95296190Y-82362380D01*
X95153333Y-82314761D01*
X95058095Y-82219523D01*
X95010476Y-82124285D01*
X94962857Y-81933809D01*
X94962857Y-81790952D01*
X95010476Y-81600476D01*
X95058095Y-81505238D01*
X95153333Y-81410000D01*
X95296190Y-81362380D01*
X95391428Y-81362380D01*
X95534285Y-81410000D01*
X95581904Y-81457619D01*
X96486666Y-82362380D02*
X96010476Y-82362380D01*
X96010476Y-81362380D01*
X96820000Y-82362380D02*
X96820000Y-81362380D01*
X97391428Y-82362380D02*
X96962857Y-81790952D01*
X97391428Y-81362380D02*
X96820000Y-81933809D01*
X178272380Y-56238095D02*
X177272380Y-56238095D01*
X177272380Y-56000000D01*
X177320000Y-55857142D01*
X177415238Y-55761904D01*
X177510476Y-55714285D01*
X177700952Y-55666666D01*
X177843809Y-55666666D01*
X178034285Y-55714285D01*
X178129523Y-55761904D01*
X178224761Y-55857142D01*
X178272380Y-56000000D01*
X178272380Y-56238095D01*
X177367619Y-55285714D02*
X177320000Y-55238095D01*
X177272380Y-55142857D01*
X177272380Y-54904761D01*
X177320000Y-54809523D01*
X177367619Y-54761904D01*
X177462857Y-54714285D01*
X177558095Y-54714285D01*
X177700952Y-54761904D01*
X178272380Y-55333333D01*
X178272380Y-54714285D01*
X174083809Y-79422380D02*
X174083809Y-78422380D01*
X174464761Y-78422380D01*
X174560000Y-78470000D01*
X174607619Y-78517619D01*
X174655238Y-78612857D01*
X174655238Y-78755714D01*
X174607619Y-78850952D01*
X174560000Y-78898571D01*
X174464761Y-78946190D01*
X174083809Y-78946190D01*
X175083809Y-79422380D02*
X175083809Y-78422380D01*
X176131428Y-79327142D02*
X176083809Y-79374761D01*
X175940952Y-79422380D01*
X175845714Y-79422380D01*
X175702857Y-79374761D01*
X175607619Y-79279523D01*
X175560000Y-79184285D01*
X175512380Y-78993809D01*
X175512380Y-78850952D01*
X175560000Y-78660476D01*
X175607619Y-78565238D01*
X175702857Y-78470000D01*
X175845714Y-78422380D01*
X175940952Y-78422380D01*
X176083809Y-78470000D01*
X176131428Y-78517619D01*
X177083809Y-79422380D02*
X176512380Y-79422380D01*
X176798095Y-79422380D02*
X176798095Y-78422380D01*
X176702857Y-78565238D01*
X176607619Y-78660476D01*
X176512380Y-78708095D01*
X169369523Y-86222380D02*
X169369523Y-85222380D01*
X169750476Y-85222380D01*
X169845714Y-85270000D01*
X169893333Y-85317619D01*
X169940952Y-85412857D01*
X169940952Y-85555714D01*
X169893333Y-85650952D01*
X169845714Y-85698571D01*
X169750476Y-85746190D01*
X169369523Y-85746190D01*
X170369523Y-86222380D02*
X170369523Y-85222380D01*
X171417142Y-86127142D02*
X171369523Y-86174761D01*
X171226666Y-86222380D01*
X171131428Y-86222380D01*
X170988571Y-86174761D01*
X170893333Y-86079523D01*
X170845714Y-85984285D01*
X170798095Y-85793809D01*
X170798095Y-85650952D01*
X170845714Y-85460476D01*
X170893333Y-85365238D01*
X170988571Y-85270000D01*
X171131428Y-85222380D01*
X171226666Y-85222380D01*
X171369523Y-85270000D01*
X171417142Y-85317619D01*
X172369523Y-86222380D02*
X171798095Y-86222380D01*
X172083809Y-86222380D02*
X172083809Y-85222380D01*
X171988571Y-85365238D01*
X171893333Y-85460476D01*
X171798095Y-85508095D01*
X172750476Y-85317619D02*
X172798095Y-85270000D01*
X172893333Y-85222380D01*
X173131428Y-85222380D01*
X173226666Y-85270000D01*
X173274285Y-85317619D01*
X173321904Y-85412857D01*
X173321904Y-85508095D01*
X173274285Y-85650952D01*
X172702857Y-86222380D01*
X173321904Y-86222380D01*
X174083809Y-85698571D02*
X173750476Y-85698571D01*
X173750476Y-86222380D02*
X173750476Y-85222380D01*
X174226666Y-85222380D01*
X175036190Y-85222380D02*
X174845714Y-85222380D01*
X174750476Y-85270000D01*
X174702857Y-85317619D01*
X174607619Y-85460476D01*
X174560000Y-85650952D01*
X174560000Y-86031904D01*
X174607619Y-86127142D01*
X174655238Y-86174761D01*
X174750476Y-86222380D01*
X174940952Y-86222380D01*
X175036190Y-86174761D01*
X175083809Y-86127142D01*
X175131428Y-86031904D01*
X175131428Y-85793809D01*
X175083809Y-85698571D01*
X175036190Y-85650952D01*
X174940952Y-85603333D01*
X174750476Y-85603333D01*
X174655238Y-85650952D01*
X174607619Y-85698571D01*
X174560000Y-85793809D01*
X175512380Y-85317619D02*
X175560000Y-85270000D01*
X175655238Y-85222380D01*
X175893333Y-85222380D01*
X175988571Y-85270000D01*
X176036190Y-85317619D01*
X176083809Y-85412857D01*
X176083809Y-85508095D01*
X176036190Y-85650952D01*
X175464761Y-86222380D01*
X176083809Y-86222380D01*
X176560000Y-86222380D02*
X176750476Y-86222380D01*
X176845714Y-86174761D01*
X176893333Y-86127142D01*
X176988571Y-85984285D01*
X177036190Y-85793809D01*
X177036190Y-85412857D01*
X176988571Y-85317619D01*
X176940952Y-85270000D01*
X176845714Y-85222380D01*
X176655238Y-85222380D01*
X176560000Y-85270000D01*
X176512380Y-85317619D01*
X176464761Y-85412857D01*
X176464761Y-85650952D01*
X176512380Y-85746190D01*
X176560000Y-85793809D01*
X176655238Y-85841428D01*
X176845714Y-85841428D01*
X176940952Y-85793809D01*
X176988571Y-85746190D01*
X177036190Y-85650952D01*
X177464761Y-85841428D02*
X178226666Y-85841428D01*
X178702857Y-86222380D02*
X178702857Y-85222380D01*
X179893333Y-85174761D02*
X179036190Y-86460476D01*
X180179047Y-86174761D02*
X180321904Y-86222380D01*
X180560000Y-86222380D01*
X180655238Y-86174761D01*
X180702857Y-86127142D01*
X180750476Y-86031904D01*
X180750476Y-85936666D01*
X180702857Y-85841428D01*
X180655238Y-85793809D01*
X180560000Y-85746190D01*
X180369523Y-85698571D01*
X180274285Y-85650952D01*
X180226666Y-85603333D01*
X180179047Y-85508095D01*
X180179047Y-85412857D01*
X180226666Y-85317619D01*
X180274285Y-85270000D01*
X180369523Y-85222380D01*
X180607619Y-85222380D01*
X180750476Y-85270000D01*
X181179047Y-86222380D02*
X181179047Y-85222380D01*
X181750476Y-86222380D01*
X181750476Y-85222380D01*
X135416666Y-101214285D02*
X135416666Y-100738095D01*
X135702380Y-101309523D02*
X134702380Y-100976190D01*
X135702380Y-100642857D01*
X135702380Y-100309523D02*
X134702380Y-100309523D01*
X134702380Y-100071428D01*
X134750000Y-99928571D01*
X134845238Y-99833333D01*
X134940476Y-99785714D01*
X135130952Y-99738095D01*
X135273809Y-99738095D01*
X135464285Y-99785714D01*
X135559523Y-99833333D01*
X135654761Y-99928571D01*
X135702380Y-100071428D01*
X135702380Y-100309523D01*
X135702380Y-99309523D02*
X134702380Y-99309523D01*
X134702380Y-99071428D01*
X134750000Y-98928571D01*
X134845238Y-98833333D01*
X134940476Y-98785714D01*
X135130952Y-98738095D01*
X135273809Y-98738095D01*
X135464285Y-98785714D01*
X135559523Y-98833333D01*
X135654761Y-98928571D01*
X135702380Y-99071428D01*
X135702380Y-99309523D01*
X135702380Y-97738095D02*
X135226190Y-98071428D01*
X135702380Y-98309523D02*
X134702380Y-98309523D01*
X134702380Y-97928571D01*
X134750000Y-97833333D01*
X134797619Y-97785714D01*
X134892857Y-97738095D01*
X135035714Y-97738095D01*
X135130952Y-97785714D01*
X135178571Y-97833333D01*
X135226190Y-97928571D01*
X135226190Y-98309523D01*
X135035714Y-96880952D02*
X135702380Y-96880952D01*
X134654761Y-97119047D02*
X135369047Y-97357142D01*
X135369047Y-96738095D01*
D12*
X150195000Y-118600000D02*
X150195000Y-119400000D01*
X146755000Y-118600000D02*
X146755000Y-119400000D01*
X102670000Y-118600000D02*
X102670000Y-119400000D01*
X99230000Y-118600000D02*
X99230000Y-119400000D01*
X131680000Y-118600000D02*
X131680000Y-119400000D01*
X135120000Y-118600000D02*
X135120000Y-119400000D01*
X96778748Y-105040000D02*
X98201252Y-105040000D01*
X96778748Y-103220000D02*
X98201252Y-103220000D01*
X167000000Y-89854252D02*
X167000000Y-88431748D01*
X165180000Y-89854252D02*
X165180000Y-88431748D01*
X86920000Y-31730000D02*
X89580000Y-31730000D01*
X104700000Y-29130000D02*
X106030000Y-29130000D01*
X89580000Y-31730000D02*
X89580000Y-80050000D01*
X104700000Y-31730000D02*
X107360000Y-31730000D01*
X86920000Y-29130000D02*
X88250000Y-29130000D01*
X107360000Y-31730000D02*
X107360000Y-80050000D01*
X86920000Y-30460000D02*
X86920000Y-29130000D01*
X86920000Y-80050000D02*
X89580000Y-80050000D01*
X104700000Y-30460000D02*
X104700000Y-29130000D01*
X104700000Y-80050000D02*
X107360000Y-80050000D01*
X104700000Y-31730000D02*
X104700000Y-80050000D01*
X86920000Y-31730000D02*
X86920000Y-80050000D01*
X109965000Y-92511252D02*
X109965000Y-91088748D01*
X111785000Y-92511252D02*
X111785000Y-91088748D01*
X167658748Y-32780000D02*
X169081252Y-32780000D01*
X167658748Y-30960000D02*
X169081252Y-30960000D01*
X118481666Y-92511252D02*
X118481666Y-91088748D01*
X120301666Y-92511252D02*
X120301666Y-91088748D01*
X175295000Y-35270000D02*
X177955000Y-35270000D01*
X177955000Y-35270000D02*
X177955000Y-37870000D01*
X175295000Y-32670000D02*
X176625000Y-32670000D01*
X175295000Y-35270000D02*
X175295000Y-37870000D01*
X175295000Y-34000000D02*
X175295000Y-32670000D01*
X175295000Y-37870000D02*
X177955000Y-37870000D01*
X182660000Y-89854252D02*
X182660000Y-88431748D01*
X184480000Y-89854252D02*
X184480000Y-88431748D01*
X152601252Y-35920000D02*
X151178748Y-35920000D01*
X152601252Y-37740000D02*
X151178748Y-37740000D01*
X172500000Y-75470000D02*
X172500000Y-74140000D01*
X175100000Y-72810000D02*
X185320000Y-72810000D01*
X185320000Y-75470000D02*
X185320000Y-72810000D01*
X175100000Y-75470000D02*
X175100000Y-72810000D01*
X173830000Y-75470000D02*
X172500000Y-75470000D01*
X175100000Y-75470000D02*
X185320000Y-75470000D01*
X115885000Y-99000000D02*
X115885000Y-101200000D01*
X110415000Y-99000000D02*
X110415000Y-102600000D01*
X110415000Y-99000000D02*
X110415000Y-96800000D01*
X115885000Y-99000000D02*
X115885000Y-96800000D01*
X171600000Y-37870000D02*
X174260000Y-37870000D01*
X171600000Y-35270000D02*
X174260000Y-35270000D01*
X174260000Y-35270000D02*
X174260000Y-37870000D01*
X171600000Y-35270000D02*
X171600000Y-37870000D01*
X171600000Y-32670000D02*
X172930000Y-32670000D01*
X171600000Y-34000000D02*
X171600000Y-32670000D01*
X120195000Y-118600000D02*
X120195000Y-119400000D01*
X116755000Y-118600000D02*
X116755000Y-119400000D01*
X182980000Y-102698748D02*
X182980000Y-104121252D01*
X184800000Y-102698748D02*
X184800000Y-104121252D01*
X167658748Y-35965000D02*
X169081252Y-35965000D01*
X167658748Y-37785000D02*
X169081252Y-37785000D01*
X171080000Y-49200000D02*
G75*
G03*
X171080000Y-49200000I-1200000J0D01*
G01*
X168210000Y-102711248D02*
X168210000Y-104133752D01*
X170030000Y-102711248D02*
X170030000Y-104133752D01*
X130195000Y-118600000D02*
X130195000Y-119400000D01*
X126755000Y-118600000D02*
X126755000Y-119400000D01*
X94130000Y-118575000D02*
X94130000Y-119375000D01*
X97570000Y-118575000D02*
X97570000Y-119375000D01*
X185351252Y-84800000D02*
X183928748Y-84800000D01*
X185351252Y-82980000D02*
X183928748Y-82980000D01*
X163090000Y-115107064D02*
X163090000Y-113652936D01*
X161270000Y-115107064D02*
X161270000Y-113652936D01*
X97070000Y-91556748D02*
X97070000Y-92979252D01*
X98890000Y-91556748D02*
X98890000Y-92979252D01*
X185367064Y-68540000D02*
X183912936Y-68540000D01*
X185367064Y-70360000D02*
X183912936Y-70360000D01*
X132918332Y-99000000D02*
X132918332Y-101200000D01*
X132918332Y-99000000D02*
X132918332Y-96800000D01*
X127448332Y-99000000D02*
X127448332Y-96800000D01*
X127448332Y-99000000D02*
X127448332Y-102600000D01*
X161420000Y-49200000D02*
G75*
G03*
X161420000Y-49200000I-1200000J0D01*
G01*
X160195000Y-118600000D02*
X160195000Y-119400000D01*
X156755000Y-118600000D02*
X156755000Y-119400000D01*
X153430000Y-41880000D02*
X156090000Y-41880000D01*
X156090000Y-41880000D02*
X156090000Y-44480000D01*
X153430000Y-40610000D02*
X153430000Y-39280000D01*
X153430000Y-39280000D02*
X154760000Y-39280000D01*
X153430000Y-44480000D02*
X156090000Y-44480000D01*
X153430000Y-41880000D02*
X153430000Y-44480000D01*
X152601252Y-33930000D02*
X151178748Y-33930000D01*
X152601252Y-32110000D02*
X151178748Y-32110000D01*
X166545000Y-99000000D02*
X166545000Y-101200000D01*
X158475000Y-99000000D02*
X158475000Y-101200000D01*
X166545000Y-99000000D02*
X166545000Y-95400000D01*
X158475000Y-99000000D02*
X158475000Y-96800000D01*
X96778748Y-106970000D02*
X98201252Y-106970000D01*
X96778748Y-108790000D02*
X98201252Y-108790000D01*
X182670000Y-37870000D02*
X185330000Y-37870000D01*
X182670000Y-32670000D02*
X184000000Y-32670000D01*
X182670000Y-35270000D02*
X182670000Y-37870000D01*
X182670000Y-34000000D02*
X182670000Y-32670000D01*
X185330000Y-35270000D02*
X185330000Y-37870000D01*
X182670000Y-35270000D02*
X185330000Y-35270000D01*
X137335000Y-92511252D02*
X137335000Y-91088748D01*
X135515000Y-92511252D02*
X135515000Y-91088748D01*
X176480000Y-118600000D02*
X176480000Y-119400000D01*
X179920000Y-118600000D02*
X179920000Y-119400000D01*
X111370000Y-72350000D02*
X111370000Y-70400000D01*
X111370000Y-72350000D02*
X111370000Y-75800000D01*
X116490000Y-72350000D02*
X116490000Y-70400000D01*
X116490000Y-72350000D02*
X116490000Y-74300000D01*
X175095000Y-118600000D02*
X175095000Y-119400000D01*
X171655000Y-118600000D02*
X171655000Y-119400000D01*
X178990000Y-35270000D02*
X178990000Y-37870000D01*
X178990000Y-32670000D02*
X180320000Y-32670000D01*
X178990000Y-35270000D02*
X181650000Y-35270000D01*
X181650000Y-35270000D02*
X181650000Y-37870000D01*
X178990000Y-37870000D02*
X181650000Y-37870000D01*
X178990000Y-34000000D02*
X178990000Y-32670000D01*
X163620000Y-31820000D02*
X162360000Y-31820000D01*
X163620000Y-35580000D02*
X163620000Y-31820000D01*
X156800000Y-31820000D02*
X158060000Y-31820000D01*
X156800000Y-37830000D02*
X156800000Y-31820000D01*
X176710000Y-102695436D02*
X176710000Y-104149564D01*
X178530000Y-102695436D02*
X178530000Y-104149564D01*
X189864860Y-88849240D02*
X82164860Y-88849240D01*
X166250000Y-49070000D02*
G75*
G03*
X166250000Y-49070000I-1200000J0D01*
G01*
X181110000Y-96100000D02*
X179310000Y-96100000D01*
X179310000Y-99320000D02*
X182260000Y-99320000D01*
X124401666Y-99000000D02*
X124401666Y-101200000D01*
X124401666Y-99000000D02*
X124401666Y-96800000D01*
X118931666Y-99000000D02*
X118931666Y-96800000D01*
X118931666Y-99000000D02*
X118931666Y-102600000D01*
X155095000Y-118625000D02*
X155095000Y-119425000D01*
X151655000Y-118625000D02*
X151655000Y-119425000D01*
X136755000Y-118600000D02*
X136755000Y-119400000D01*
X140195000Y-118600000D02*
X140195000Y-119400000D01*
X158890000Y-39280000D02*
X160220000Y-39280000D01*
X158890000Y-40610000D02*
X158890000Y-39280000D01*
X158890000Y-41880000D02*
X158890000Y-44480000D01*
X161550000Y-41880000D02*
X161550000Y-44480000D01*
X158890000Y-41880000D02*
X161550000Y-41880000D01*
X158890000Y-44480000D02*
X161550000Y-44480000D01*
X96375000Y-99000000D02*
X96375000Y-101200000D01*
X96375000Y-99000000D02*
X96375000Y-95400000D01*
X88305000Y-99000000D02*
X88305000Y-101200000D01*
X88305000Y-99000000D02*
X88305000Y-96800000D01*
X181000000Y-92977064D02*
X181000000Y-91522936D01*
X179180000Y-92977064D02*
X179180000Y-91522936D01*
X115095000Y-118600000D02*
X115095000Y-119400000D01*
X111655000Y-118600000D02*
X111655000Y-119400000D01*
X126998332Y-92511252D02*
X126998332Y-91088748D01*
X128818332Y-92511252D02*
X128818332Y-91088748D01*
X178275000Y-59900000D02*
X178275000Y-53000000D01*
X174975000Y-59900000D02*
X174975000Y-53000000D01*
X174975000Y-59900000D02*
X178275000Y-59900000D01*
X173650000Y-102711248D02*
X173650000Y-104133752D01*
X171830000Y-102711248D02*
X171830000Y-104133752D01*
X185351252Y-79330000D02*
X183928748Y-79330000D01*
X185351252Y-81150000D02*
X183928748Y-81150000D01*
X182350000Y-51100000D02*
X182350000Y-58000000D01*
X185650000Y-51100000D02*
X185650000Y-58000000D01*
X185650000Y-51100000D02*
X182350000Y-51100000D01*
X141655000Y-118600000D02*
X141655000Y-119400000D01*
X145095000Y-118600000D02*
X145095000Y-119400000D01*
X121680000Y-118600000D02*
X121680000Y-119400000D01*
X125120000Y-118600000D02*
X125120000Y-119400000D01*
X91065000Y-85470000D02*
X96205000Y-85470000D01*
X88465000Y-85470000D02*
X88465000Y-84140000D01*
X91065000Y-82810000D02*
X96205000Y-82810000D01*
X96205000Y-85470000D02*
X96205000Y-82810000D01*
X89795000Y-85470000D02*
X88465000Y-85470000D01*
X91065000Y-85470000D02*
X91065000Y-82810000D01*
X178670000Y-59900000D02*
X181970000Y-59900000D01*
X178670000Y-59900000D02*
X178670000Y-53000000D01*
X181970000Y-59900000D02*
X181970000Y-53000000D01*
X175560000Y-79810000D02*
X172110000Y-79810000D01*
X175560000Y-79810000D02*
X177510000Y-79810000D01*
X175560000Y-84930000D02*
X173610000Y-84930000D01*
X175560000Y-84930000D02*
X177510000Y-84930000D01*
X135965000Y-99000000D02*
X135965000Y-96800000D01*
X141435000Y-99000000D02*
X141435000Y-101200000D01*
X135965000Y-99000000D02*
X135965000Y-102600000D01*
X141435000Y-99000000D02*
X141435000Y-96800000D01*
%LPC*%
D13*
X147275000Y-119850000D03*
X148075000Y-119850000D03*
X148875000Y-119850000D03*
X149675000Y-119850000D03*
X149675000Y-118150000D03*
X148875000Y-118150000D03*
X148075000Y-118150000D03*
X147275000Y-118150000D03*
X99750000Y-119850000D03*
X100550000Y-119850000D03*
X101350000Y-119850000D03*
X102150000Y-119850000D03*
X102150000Y-118150000D03*
X101350000Y-118150000D03*
X100550000Y-118150000D03*
X99750000Y-118150000D03*
X132200000Y-119850000D03*
X133000000Y-119850000D03*
X133800000Y-119850000D03*
X134600000Y-119850000D03*
X134600000Y-118150000D03*
X133800000Y-118150000D03*
X133000000Y-118150000D03*
X132200000Y-118150000D03*
D14*
X95927500Y-104130000D03*
X99052500Y-104130000D03*
D15*
X166085000Y-90705500D03*
X166090000Y-87580500D03*
D16*
X88250000Y-30460000D03*
X88250000Y-33000000D03*
D17*
X88250000Y-35540000D03*
D16*
X88250000Y-38080000D03*
X88250000Y-40620000D03*
X88250000Y-43160000D03*
X88250000Y-45700000D03*
D17*
X88250000Y-48240000D03*
D16*
X88250000Y-50780000D03*
X88250000Y-53320000D03*
X88250000Y-55860000D03*
X88250000Y-58400000D03*
D17*
X88250000Y-60940000D03*
D16*
X88250000Y-63480000D03*
X88250000Y-66020000D03*
X88250000Y-68560000D03*
X88250000Y-71100000D03*
D17*
X88250000Y-73640000D03*
D16*
X88250000Y-76180000D03*
X88250000Y-78720000D03*
X106030000Y-78720000D03*
X106030000Y-76180000D03*
D17*
X106030000Y-73640000D03*
D16*
X106030000Y-71100000D03*
X106030000Y-68560000D03*
X106030000Y-66020000D03*
X106030000Y-63480000D03*
D17*
X106030000Y-60940000D03*
D16*
X106030000Y-58400000D03*
X106030000Y-55860000D03*
X106030000Y-53320000D03*
X106030000Y-50780000D03*
D17*
X106030000Y-48240000D03*
D16*
X106030000Y-45700000D03*
X106030000Y-43160000D03*
X106030000Y-40620000D03*
X106030000Y-38080000D03*
D17*
X106030000Y-35540000D03*
D16*
X106030000Y-33000000D03*
X106030000Y-30460000D03*
D15*
X110875000Y-93362500D03*
X110875000Y-90237500D03*
D14*
X166807500Y-31870000D03*
X169932500Y-31870000D03*
D15*
X119391666Y-93362500D03*
X119391666Y-90237500D03*
D17*
X176625000Y-34000000D03*
D16*
X176625000Y-36540000D03*
D15*
X183570000Y-90705500D03*
X183570000Y-87580500D03*
D18*
X153452500Y-36830000D03*
X150327500Y-36830000D03*
D17*
X173830000Y-74140000D03*
D16*
X176370000Y-74140000D03*
X178910000Y-74140000D03*
X181450000Y-74140000D03*
X183990000Y-74140000D03*
D19*
X110875000Y-101862500D03*
X111525000Y-101862500D03*
X112175000Y-101862500D03*
X112825000Y-101862500D03*
X113475000Y-101862500D03*
X114125000Y-101862500D03*
X114775000Y-101862500D03*
X115425000Y-101862500D03*
X115425000Y-96137500D03*
X114775000Y-96137500D03*
X114125000Y-96137500D03*
X113475000Y-96137500D03*
X112825000Y-96137500D03*
X112175000Y-96137500D03*
X111525000Y-96137500D03*
X110875000Y-96137500D03*
D17*
X172930000Y-34000000D03*
D16*
X172930000Y-36540000D03*
D13*
X117275000Y-119850000D03*
X118075000Y-119850000D03*
X118875000Y-119850000D03*
X119675000Y-119850000D03*
X119675000Y-118150000D03*
X118875000Y-118150000D03*
X118075000Y-118150000D03*
X117275000Y-118150000D03*
D20*
X183890000Y-101847500D03*
X183890000Y-104972500D03*
D14*
X166807500Y-36875000D03*
X169932500Y-36875000D03*
D21*
X169880000Y-49200000D03*
D20*
X169120000Y-101860000D03*
X169120000Y-104985000D03*
D13*
X127275000Y-119850000D03*
X128075000Y-119850000D03*
X128875000Y-119850000D03*
X129675000Y-119850000D03*
X129675000Y-118150000D03*
X128875000Y-118150000D03*
X128075000Y-118150000D03*
X127275000Y-118150000D03*
X94650000Y-119825000D03*
X95450000Y-119825000D03*
X96250000Y-119825000D03*
X97050000Y-119825000D03*
X97050000Y-118125000D03*
X96250000Y-118125000D03*
X95450000Y-118125000D03*
X94650000Y-118125000D03*
D18*
X186202500Y-83890000D03*
X183077500Y-83890000D03*
D22*
X162180000Y-115930000D03*
X162180000Y-112830000D03*
D20*
X97980000Y-90705500D03*
X97980000Y-93830500D03*
D23*
X186190000Y-69450000D03*
X183090000Y-69450000D03*
D19*
X127908332Y-101862500D03*
X128558332Y-101862500D03*
X129208332Y-101862500D03*
X129858332Y-101862500D03*
X130508332Y-101862500D03*
X131158332Y-101862500D03*
X131808332Y-101862500D03*
X132458332Y-101862500D03*
X132458332Y-96137500D03*
X131808332Y-96137500D03*
X131158332Y-96137500D03*
X130508332Y-96137500D03*
X129858332Y-96137500D03*
X129208332Y-96137500D03*
X128558332Y-96137500D03*
X127908332Y-96137500D03*
D21*
X160220000Y-49200000D03*
D13*
X157275000Y-119850000D03*
X158075000Y-119850000D03*
X158875000Y-119850000D03*
X159675000Y-119850000D03*
X159675000Y-118150000D03*
X158875000Y-118150000D03*
X158075000Y-118150000D03*
X157275000Y-118150000D03*
D17*
X154760000Y-40610000D03*
D16*
X154760000Y-43150000D03*
D18*
X153452500Y-33020000D03*
X150327500Y-33020000D03*
D24*
X166085000Y-96137500D03*
X165435000Y-96137500D03*
X164785000Y-96137500D03*
X164135000Y-96137500D03*
X163485000Y-96137500D03*
X162835000Y-96137500D03*
X162185000Y-96137500D03*
X161535000Y-96137500D03*
X160885000Y-96137500D03*
X160235000Y-96137500D03*
X159585000Y-96137500D03*
X158935000Y-96137500D03*
X158935000Y-101862500D03*
X159585000Y-101862500D03*
X160235000Y-101862500D03*
X160885000Y-101862500D03*
X161535000Y-101862500D03*
X162185000Y-101862500D03*
X162835000Y-101862500D03*
X163485000Y-101862500D03*
X164135000Y-101862500D03*
X164785000Y-101862500D03*
X165435000Y-101862500D03*
X166085000Y-101862500D03*
D14*
X95927500Y-107880000D03*
X99052500Y-107880000D03*
D17*
X184000000Y-34000000D03*
D16*
X184000000Y-36540000D03*
D15*
X136425000Y-93362500D03*
X136425000Y-90237500D03*
D13*
X177000000Y-119850000D03*
X177800000Y-119850000D03*
X178600000Y-119850000D03*
X179400000Y-119850000D03*
X179400000Y-118150000D03*
X178600000Y-118150000D03*
X177800000Y-118150000D03*
X177000000Y-118150000D03*
D25*
X112025000Y-74825000D03*
X113295000Y-74825000D03*
X114565000Y-74825000D03*
X115835000Y-74825000D03*
X115835000Y-69875000D03*
X114565000Y-69875000D03*
X113295000Y-69875000D03*
X112025000Y-69875000D03*
D13*
X172175000Y-119850000D03*
X172975000Y-119850000D03*
X173775000Y-119850000D03*
X174575000Y-119850000D03*
X174575000Y-118150000D03*
X173775000Y-118150000D03*
X172975000Y-118150000D03*
X172175000Y-118150000D03*
D17*
X180320000Y-34000000D03*
D16*
X180320000Y-36540000D03*
D26*
X157910000Y-36880000D03*
D27*
X160210000Y-30580000D03*
D26*
X160210000Y-36880000D03*
X162510000Y-36880000D03*
D28*
X177620000Y-101872500D03*
X177620000Y-104972500D03*
D29*
X175925100Y-129850000D03*
D30*
X186501660Y-121457840D03*
X182513860Y-29738440D03*
D29*
X98424620Y-129850000D03*
D31*
X137174860Y-129850000D03*
D30*
X87695660Y-121432440D03*
D21*
X165050000Y-49070000D03*
D32*
X181560000Y-98660000D03*
X181560000Y-97710000D03*
X181560000Y-96760000D03*
X178860000Y-96760000D03*
X178860000Y-97710000D03*
X178860000Y-98660000D03*
D19*
X119391666Y-101862500D03*
X120041666Y-101862500D03*
X120691666Y-101862500D03*
X121341666Y-101862500D03*
X121991666Y-101862500D03*
X122641666Y-101862500D03*
X123291666Y-101862500D03*
X123941666Y-101862500D03*
X123941666Y-96137500D03*
X123291666Y-96137500D03*
X122641666Y-96137500D03*
X121991666Y-96137500D03*
X121341666Y-96137500D03*
X120691666Y-96137500D03*
X120041666Y-96137500D03*
X119391666Y-96137500D03*
D13*
X152175000Y-119875000D03*
X152975000Y-119875000D03*
X153775000Y-119875000D03*
X154575000Y-119875000D03*
X154575000Y-118175000D03*
X153775000Y-118175000D03*
X152975000Y-118175000D03*
X152175000Y-118175000D03*
X137275000Y-119850000D03*
X138075000Y-119850000D03*
X138875000Y-119850000D03*
X139675000Y-119850000D03*
X139675000Y-118150000D03*
X138875000Y-118150000D03*
X138075000Y-118150000D03*
X137275000Y-118150000D03*
D17*
X160220000Y-40610000D03*
D16*
X160220000Y-43150000D03*
D24*
X95915000Y-96137500D03*
X95265000Y-96137500D03*
X94615000Y-96137500D03*
X93965000Y-96137500D03*
X93315000Y-96137500D03*
X92665000Y-96137500D03*
X92015000Y-96137500D03*
X91365000Y-96137500D03*
X90715000Y-96137500D03*
X90065000Y-96137500D03*
X89415000Y-96137500D03*
X88765000Y-96137500D03*
X88765000Y-101862500D03*
X89415000Y-101862500D03*
X90065000Y-101862500D03*
X90715000Y-101862500D03*
X91365000Y-101862500D03*
X92015000Y-101862500D03*
X92665000Y-101862500D03*
X93315000Y-101862500D03*
X93965000Y-101862500D03*
X94615000Y-101862500D03*
X95265000Y-101862500D03*
X95915000Y-101862500D03*
D22*
X180090000Y-93800000D03*
X180090000Y-90700000D03*
D13*
X112175000Y-119850000D03*
X112975000Y-119850000D03*
X113775000Y-119850000D03*
X114575000Y-119850000D03*
X114575000Y-118150000D03*
X113775000Y-118150000D03*
X112975000Y-118150000D03*
X112175000Y-118150000D03*
D15*
X127908332Y-93362500D03*
X127908332Y-90237500D03*
D33*
X176625000Y-58000000D03*
X176625000Y-53000000D03*
D20*
X172740000Y-101860000D03*
X172740000Y-104985000D03*
D18*
X186202500Y-80240000D03*
X183077500Y-80240000D03*
D33*
X184000000Y-53000000D03*
X184000000Y-58000000D03*
D13*
X142175000Y-119850000D03*
X142975000Y-119850000D03*
X143775000Y-119850000D03*
X144575000Y-119850000D03*
X144575000Y-118150000D03*
X143775000Y-118150000D03*
X142975000Y-118150000D03*
X142175000Y-118150000D03*
X122200000Y-119850000D03*
X123000000Y-119850000D03*
X123800000Y-119850000D03*
X124600000Y-119850000D03*
X124600000Y-118150000D03*
X123800000Y-118150000D03*
X123000000Y-118150000D03*
X122200000Y-118150000D03*
D17*
X89795000Y-84140000D03*
D16*
X92335000Y-84140000D03*
X94875000Y-84140000D03*
D33*
X180320000Y-58000000D03*
X180320000Y-53000000D03*
D34*
X173085000Y-80465000D03*
X173085000Y-81735000D03*
X173085000Y-83005000D03*
X173085000Y-84275000D03*
X178035000Y-84275000D03*
X178035000Y-83005000D03*
X178035000Y-81735000D03*
X178035000Y-80465000D03*
D19*
X136425000Y-101862500D03*
X137075000Y-101862500D03*
X137725000Y-101862500D03*
X138375000Y-101862500D03*
X139025000Y-101862500D03*
X139675000Y-101862500D03*
X140325000Y-101862500D03*
X140975000Y-101862500D03*
X140975000Y-96137500D03*
X140325000Y-96137500D03*
X139675000Y-96137500D03*
X139025000Y-96137500D03*
X138375000Y-96137500D03*
X137725000Y-96137500D03*
X137075000Y-96137500D03*
X136425000Y-96137500D03*
M02*
