G04 #@! TF.GenerationSoftware,KiCad,Pcbnew,(6.0.6)*
G04 #@! TF.CreationDate,2022-08-18T19:45:56-05:00*
G04 #@! TF.ProjectId,v1,76312e6b-6963-4616-945f-706362585858,v1*
G04 #@! TF.SameCoordinates,Original*
G04 #@! TF.FileFunction,Soldermask,Top*
G04 #@! TF.FilePolarity,Negative*
%FSLAX46Y46*%
G04 Gerber Fmt 4.6, Leading zero omitted, Abs format (unit mm)*
G04 Created by KiCad (PCBNEW (6.0.6)) date 2022-08-18 19:45:56*
%MOMM*%
%LPD*%
G01*
G04 APERTURE LIST*
G04 Aperture macros list*
%AMRoundRect*
0 Rectangle with rounded corners*
0 $1 Rounding radius*
0 $2 $3 $4 $5 $6 $7 $8 $9 X,Y pos of 4 corners*
0 Add a 4 corners polygon primitive as box body*
4,1,4,$2,$3,$4,$5,$6,$7,$8,$9,$2,$3,0*
0 Add four circle primitives for the rounded corners*
1,1,$1+$1,$2,$3*
1,1,$1+$1,$4,$5*
1,1,$1+$1,$6,$7*
1,1,$1+$1,$8,$9*
0 Add four rect primitives between the rounded corners*
20,1,$1+$1,$2,$3,$4,$5,0*
20,1,$1+$1,$4,$5,$6,$7,0*
20,1,$1+$1,$6,$7,$8,$9,0*
20,1,$1+$1,$8,$9,$2,$3,0*%
G04 Aperture macros list end*
%ADD10R,0.400000X0.900000*%
%ADD11RoundRect,0.250000X-0.412500X-0.650000X0.412500X-0.650000X0.412500X0.650000X-0.412500X0.650000X0*%
%ADD12RoundRect,0.250000X0.650000X-0.412500X0.650000X0.412500X-0.650000X0.412500X-0.650000X-0.412500X0*%
%ADD13O,1.700000X1.700000*%
%ADD14R,1.700000X1.700000*%
%ADD15RoundRect,0.250000X0.412500X0.650000X-0.412500X0.650000X-0.412500X-0.650000X0.412500X-0.650000X0*%
%ADD16RoundRect,0.100000X0.100000X-0.637500X0.100000X0.637500X-0.100000X0.637500X-0.100000X-0.637500X0*%
%ADD17RoundRect,0.250000X-0.650000X0.412500X-0.650000X-0.412500X0.650000X-0.412500X0.650000X0.412500X0*%
%ADD18C,2.000000*%
%ADD19RoundRect,0.250000X0.625000X-0.400000X0.625000X0.400000X-0.625000X0.400000X-0.625000X-0.400000X0*%
%ADD20RoundRect,0.250000X0.400000X0.625000X-0.400000X0.625000X-0.400000X-0.625000X0.400000X-0.625000X0*%
%ADD21RoundRect,0.100000X-0.100000X0.637500X-0.100000X-0.637500X0.100000X-0.637500X0.100000X0.637500X0*%
%ADD22RoundRect,0.150000X0.150000X-0.825000X0.150000X0.825000X-0.150000X0.825000X-0.150000X-0.825000X0*%
%ADD23R,1.500000X2.000000*%
%ADD24R,3.800000X2.000000*%
%ADD25RoundRect,0.250000X-0.625000X0.400000X-0.625000X-0.400000X0.625000X-0.400000X0.625000X0.400000X0*%
%ADD26R,12.499340X8.001000*%
%ADD27C,1.448000*%
%ADD28R,59.999880X8.001000*%
%ADD29R,1.560000X0.650000*%
%ADD30R,1.800000X3.500000*%
%ADD31RoundRect,0.150000X-0.825000X-0.150000X0.825000X-0.150000X0.825000X0.150000X-0.825000X0.150000X0*%
G04 APERTURE END LIST*
D10*
X147275000Y-119850000D03*
X148075000Y-119850000D03*
X148875000Y-119850000D03*
X149675000Y-119850000D03*
X149675000Y-118150000D03*
X148875000Y-118150000D03*
X148075000Y-118150000D03*
X147275000Y-118150000D03*
X99750000Y-119850000D03*
X100550000Y-119850000D03*
X101350000Y-119850000D03*
X102150000Y-119850000D03*
X102150000Y-118150000D03*
X101350000Y-118150000D03*
X100550000Y-118150000D03*
X99750000Y-118150000D03*
X132200000Y-119850000D03*
X133000000Y-119850000D03*
X133800000Y-119850000D03*
X134600000Y-119850000D03*
X134600000Y-118150000D03*
X133800000Y-118150000D03*
X133000000Y-118150000D03*
X132200000Y-118150000D03*
D11*
X95927500Y-104130000D03*
X99052500Y-104130000D03*
D12*
X166085000Y-90705500D03*
X166090000Y-87580500D03*
D13*
X88250000Y-30460000D03*
X88250000Y-33000000D03*
D14*
X88250000Y-35540000D03*
D13*
X88250000Y-38080000D03*
X88250000Y-40620000D03*
X88250000Y-43160000D03*
X88250000Y-45700000D03*
D14*
X88250000Y-48240000D03*
D13*
X88250000Y-50780000D03*
X88250000Y-53320000D03*
X88250000Y-55860000D03*
X88250000Y-58400000D03*
D14*
X88250000Y-60940000D03*
D13*
X88250000Y-63480000D03*
X88250000Y-66020000D03*
X88250000Y-68560000D03*
X88250000Y-71100000D03*
D14*
X88250000Y-73640000D03*
D13*
X88250000Y-76180000D03*
X88250000Y-78720000D03*
X106030000Y-78720000D03*
X106030000Y-76180000D03*
D14*
X106030000Y-73640000D03*
D13*
X106030000Y-71100000D03*
X106030000Y-68560000D03*
X106030000Y-66020000D03*
X106030000Y-63480000D03*
D14*
X106030000Y-60940000D03*
D13*
X106030000Y-58400000D03*
X106030000Y-55860000D03*
X106030000Y-53320000D03*
X106030000Y-50780000D03*
D14*
X106030000Y-48240000D03*
D13*
X106030000Y-45700000D03*
X106030000Y-43160000D03*
X106030000Y-40620000D03*
X106030000Y-38080000D03*
D14*
X106030000Y-35540000D03*
D13*
X106030000Y-33000000D03*
X106030000Y-30460000D03*
D12*
X110875000Y-93362500D03*
X110875000Y-90237500D03*
D11*
X166807500Y-31870000D03*
X169932500Y-31870000D03*
D12*
X119391666Y-93362500D03*
X119391666Y-90237500D03*
D14*
X176625000Y-34000000D03*
D13*
X176625000Y-36540000D03*
D12*
X183570000Y-90705500D03*
X183570000Y-87580500D03*
D15*
X153452500Y-36830000D03*
X150327500Y-36830000D03*
D14*
X173830000Y-74140000D03*
D13*
X176370000Y-74140000D03*
X178910000Y-74140000D03*
X181450000Y-74140000D03*
X183990000Y-74140000D03*
D16*
X110875000Y-101862500D03*
X111525000Y-101862500D03*
X112175000Y-101862500D03*
X112825000Y-101862500D03*
X113475000Y-101862500D03*
X114125000Y-101862500D03*
X114775000Y-101862500D03*
X115425000Y-101862500D03*
X115425000Y-96137500D03*
X114775000Y-96137500D03*
X114125000Y-96137500D03*
X113475000Y-96137500D03*
X112825000Y-96137500D03*
X112175000Y-96137500D03*
X111525000Y-96137500D03*
X110875000Y-96137500D03*
D14*
X172930000Y-34000000D03*
D13*
X172930000Y-36540000D03*
D10*
X117275000Y-119850000D03*
X118075000Y-119850000D03*
X118875000Y-119850000D03*
X119675000Y-119850000D03*
X119675000Y-118150000D03*
X118875000Y-118150000D03*
X118075000Y-118150000D03*
X117275000Y-118150000D03*
D17*
X183890000Y-101847500D03*
X183890000Y-104972500D03*
D11*
X166807500Y-36875000D03*
X169932500Y-36875000D03*
D18*
X169880000Y-49200000D03*
D17*
X169120000Y-101860000D03*
X169120000Y-104985000D03*
D10*
X127275000Y-119850000D03*
X128075000Y-119850000D03*
X128875000Y-119850000D03*
X129675000Y-119850000D03*
X129675000Y-118150000D03*
X128875000Y-118150000D03*
X128075000Y-118150000D03*
X127275000Y-118150000D03*
X94650000Y-119825000D03*
X95450000Y-119825000D03*
X96250000Y-119825000D03*
X97050000Y-119825000D03*
X97050000Y-118125000D03*
X96250000Y-118125000D03*
X95450000Y-118125000D03*
X94650000Y-118125000D03*
D15*
X186202500Y-83890000D03*
X183077500Y-83890000D03*
D19*
X162180000Y-115930000D03*
X162180000Y-112830000D03*
D17*
X97980000Y-90705500D03*
X97980000Y-93830500D03*
D20*
X186190000Y-69450000D03*
X183090000Y-69450000D03*
D16*
X127908332Y-101862500D03*
X128558332Y-101862500D03*
X129208332Y-101862500D03*
X129858332Y-101862500D03*
X130508332Y-101862500D03*
X131158332Y-101862500D03*
X131808332Y-101862500D03*
X132458332Y-101862500D03*
X132458332Y-96137500D03*
X131808332Y-96137500D03*
X131158332Y-96137500D03*
X130508332Y-96137500D03*
X129858332Y-96137500D03*
X129208332Y-96137500D03*
X128558332Y-96137500D03*
X127908332Y-96137500D03*
D18*
X160220000Y-49200000D03*
D10*
X157275000Y-119850000D03*
X158075000Y-119850000D03*
X158875000Y-119850000D03*
X159675000Y-119850000D03*
X159675000Y-118150000D03*
X158875000Y-118150000D03*
X158075000Y-118150000D03*
X157275000Y-118150000D03*
D14*
X154760000Y-40610000D03*
D13*
X154760000Y-43150000D03*
D15*
X153452500Y-33020000D03*
X150327500Y-33020000D03*
D21*
X166085000Y-96137500D03*
X165435000Y-96137500D03*
X164785000Y-96137500D03*
X164135000Y-96137500D03*
X163485000Y-96137500D03*
X162835000Y-96137500D03*
X162185000Y-96137500D03*
X161535000Y-96137500D03*
X160885000Y-96137500D03*
X160235000Y-96137500D03*
X159585000Y-96137500D03*
X158935000Y-96137500D03*
X158935000Y-101862500D03*
X159585000Y-101862500D03*
X160235000Y-101862500D03*
X160885000Y-101862500D03*
X161535000Y-101862500D03*
X162185000Y-101862500D03*
X162835000Y-101862500D03*
X163485000Y-101862500D03*
X164135000Y-101862500D03*
X164785000Y-101862500D03*
X165435000Y-101862500D03*
X166085000Y-101862500D03*
D11*
X95927500Y-107880000D03*
X99052500Y-107880000D03*
D14*
X184000000Y-34000000D03*
D13*
X184000000Y-36540000D03*
D12*
X136425000Y-93362500D03*
X136425000Y-90237500D03*
D10*
X177000000Y-119850000D03*
X177800000Y-119850000D03*
X178600000Y-119850000D03*
X179400000Y-119850000D03*
X179400000Y-118150000D03*
X178600000Y-118150000D03*
X177800000Y-118150000D03*
X177000000Y-118150000D03*
D22*
X112025000Y-74825000D03*
X113295000Y-74825000D03*
X114565000Y-74825000D03*
X115835000Y-74825000D03*
X115835000Y-69875000D03*
X114565000Y-69875000D03*
X113295000Y-69875000D03*
X112025000Y-69875000D03*
D10*
X172175000Y-119850000D03*
X172975000Y-119850000D03*
X173775000Y-119850000D03*
X174575000Y-119850000D03*
X174575000Y-118150000D03*
X173775000Y-118150000D03*
X172975000Y-118150000D03*
X172175000Y-118150000D03*
D14*
X180320000Y-34000000D03*
D13*
X180320000Y-36540000D03*
D23*
X157910000Y-36880000D03*
D24*
X160210000Y-30580000D03*
D23*
X160210000Y-36880000D03*
X162510000Y-36880000D03*
D25*
X177620000Y-101872500D03*
X177620000Y-104972500D03*
D26*
X175925100Y-129850000D03*
D27*
X186501660Y-121457840D03*
X182513860Y-29738440D03*
D26*
X98424620Y-129850000D03*
D28*
X137174860Y-129850000D03*
D27*
X87695660Y-121432440D03*
D18*
X165050000Y-49070000D03*
D29*
X181560000Y-98660000D03*
X181560000Y-97710000D03*
X181560000Y-96760000D03*
X178860000Y-96760000D03*
X178860000Y-97710000D03*
X178860000Y-98660000D03*
D16*
X119391666Y-101862500D03*
X120041666Y-101862500D03*
X120691666Y-101862500D03*
X121341666Y-101862500D03*
X121991666Y-101862500D03*
X122641666Y-101862500D03*
X123291666Y-101862500D03*
X123941666Y-101862500D03*
X123941666Y-96137500D03*
X123291666Y-96137500D03*
X122641666Y-96137500D03*
X121991666Y-96137500D03*
X121341666Y-96137500D03*
X120691666Y-96137500D03*
X120041666Y-96137500D03*
X119391666Y-96137500D03*
D10*
X152175000Y-119875000D03*
X152975000Y-119875000D03*
X153775000Y-119875000D03*
X154575000Y-119875000D03*
X154575000Y-118175000D03*
X153775000Y-118175000D03*
X152975000Y-118175000D03*
X152175000Y-118175000D03*
X137275000Y-119850000D03*
X138075000Y-119850000D03*
X138875000Y-119850000D03*
X139675000Y-119850000D03*
X139675000Y-118150000D03*
X138875000Y-118150000D03*
X138075000Y-118150000D03*
X137275000Y-118150000D03*
D14*
X160220000Y-40610000D03*
D13*
X160220000Y-43150000D03*
D21*
X95915000Y-96137500D03*
X95265000Y-96137500D03*
X94615000Y-96137500D03*
X93965000Y-96137500D03*
X93315000Y-96137500D03*
X92665000Y-96137500D03*
X92015000Y-96137500D03*
X91365000Y-96137500D03*
X90715000Y-96137500D03*
X90065000Y-96137500D03*
X89415000Y-96137500D03*
X88765000Y-96137500D03*
X88765000Y-101862500D03*
X89415000Y-101862500D03*
X90065000Y-101862500D03*
X90715000Y-101862500D03*
X91365000Y-101862500D03*
X92015000Y-101862500D03*
X92665000Y-101862500D03*
X93315000Y-101862500D03*
X93965000Y-101862500D03*
X94615000Y-101862500D03*
X95265000Y-101862500D03*
X95915000Y-101862500D03*
D19*
X180090000Y-93800000D03*
X180090000Y-90700000D03*
D10*
X112175000Y-119850000D03*
X112975000Y-119850000D03*
X113775000Y-119850000D03*
X114575000Y-119850000D03*
X114575000Y-118150000D03*
X113775000Y-118150000D03*
X112975000Y-118150000D03*
X112175000Y-118150000D03*
D12*
X127908332Y-93362500D03*
X127908332Y-90237500D03*
D30*
X176625000Y-58000000D03*
X176625000Y-53000000D03*
D17*
X172740000Y-101860000D03*
X172740000Y-104985000D03*
D15*
X186202500Y-80240000D03*
X183077500Y-80240000D03*
D30*
X184000000Y-53000000D03*
X184000000Y-58000000D03*
D10*
X142175000Y-119850000D03*
X142975000Y-119850000D03*
X143775000Y-119850000D03*
X144575000Y-119850000D03*
X144575000Y-118150000D03*
X143775000Y-118150000D03*
X142975000Y-118150000D03*
X142175000Y-118150000D03*
X122200000Y-119850000D03*
X123000000Y-119850000D03*
X123800000Y-119850000D03*
X124600000Y-119850000D03*
X124600000Y-118150000D03*
X123800000Y-118150000D03*
X123000000Y-118150000D03*
X122200000Y-118150000D03*
D14*
X89795000Y-84140000D03*
D13*
X92335000Y-84140000D03*
X94875000Y-84140000D03*
D30*
X180320000Y-58000000D03*
X180320000Y-53000000D03*
D31*
X173085000Y-80465000D03*
X173085000Y-81735000D03*
X173085000Y-83005000D03*
X173085000Y-84275000D03*
X178035000Y-84275000D03*
X178035000Y-83005000D03*
X178035000Y-81735000D03*
X178035000Y-80465000D03*
D16*
X136425000Y-101862500D03*
X137075000Y-101862500D03*
X137725000Y-101862500D03*
X138375000Y-101862500D03*
X139025000Y-101862500D03*
X139675000Y-101862500D03*
X140325000Y-101862500D03*
X140975000Y-101862500D03*
X140975000Y-96137500D03*
X140325000Y-96137500D03*
X139675000Y-96137500D03*
X139025000Y-96137500D03*
X138375000Y-96137500D03*
X137725000Y-96137500D03*
X137075000Y-96137500D03*
X136425000Y-96137500D03*
M02*
