%FSLAX45Y45*%
G04 Gerber Fmt 4.5, Leading zero omitted, Abs format (unit mm)*
G04 Created by KiCad (PCBNEW (6.0.6)) date 2022-08-18 19:45:59*
%MOMM*%
%LPD*%
G01*
G04 APERTURE LIST*
%ADD10C,0.200000*%
%ADD11C,0.115200*%
G04 APERTURE END LIST*
D10*
D11*
X8711966Y-12085644D02*
X8827166Y-12200844D01*
X8827166Y-12085644D02*
X8711966Y-12200844D01*
X18193786Y-2916244D02*
X18308986Y-3031444D01*
X18308986Y-2916244D02*
X18193786Y-3031444D01*
X18592566Y-12088184D02*
X18707766Y-12203384D01*
X18707766Y-12088184D02*
X18592566Y-12203384D01*
D10*
X8879175Y-13700606D02*
X8879175Y-13500606D01*
X8926794Y-13500606D01*
X8955366Y-13510130D01*
X8974413Y-13529178D01*
X8983937Y-13548225D01*
X8993461Y-13586320D01*
X8993461Y-13614892D01*
X8983937Y-13652987D01*
X8974413Y-13672035D01*
X8955366Y-13691082D01*
X8926794Y-13700606D01*
X8879175Y-13700606D01*
X9079175Y-13700606D02*
X9079175Y-13567273D01*
X9079175Y-13605368D02*
X9088699Y-13586320D01*
X9098223Y-13576797D01*
X9117270Y-13567273D01*
X9136318Y-13567273D01*
X9202985Y-13700606D02*
X9202985Y-13567273D01*
X9202985Y-13500606D02*
X9193461Y-13510130D01*
X9202985Y-13519654D01*
X9212508Y-13510130D01*
X9202985Y-13500606D01*
X9202985Y-13519654D01*
X9326794Y-13700606D02*
X9307746Y-13691082D01*
X9298223Y-13672035D01*
X9298223Y-13500606D01*
X9431556Y-13700606D02*
X9412508Y-13691082D01*
X9402985Y-13672035D01*
X9402985Y-13500606D01*
X9660127Y-13700606D02*
X9660127Y-13500606D01*
X9726794Y-13643463D01*
X9793461Y-13500606D01*
X9793461Y-13700606D01*
X9974413Y-13700606D02*
X9974413Y-13595844D01*
X9964889Y-13576797D01*
X9945842Y-13567273D01*
X9907746Y-13567273D01*
X9888699Y-13576797D01*
X9974413Y-13691082D02*
X9955366Y-13700606D01*
X9907746Y-13700606D01*
X9888699Y-13691082D01*
X9879175Y-13672035D01*
X9879175Y-13652987D01*
X9888699Y-13633939D01*
X9907746Y-13624416D01*
X9955366Y-13624416D01*
X9974413Y-13614892D01*
X10069651Y-13567273D02*
X10069651Y-13767273D01*
X10069651Y-13576797D02*
X10088699Y-13567273D01*
X10126794Y-13567273D01*
X10145842Y-13576797D01*
X10155366Y-13586320D01*
X10164889Y-13605368D01*
X10164889Y-13662511D01*
X10155366Y-13681558D01*
X10145842Y-13691082D01*
X10126794Y-13700606D01*
X10088699Y-13700606D01*
X10069651Y-13691082D01*
X10250604Y-13681558D02*
X10260127Y-13691082D01*
X10250604Y-13700606D01*
X10241080Y-13691082D01*
X10250604Y-13681558D01*
X10250604Y-13700606D01*
X10250604Y-13576797D02*
X10260127Y-13586320D01*
X10250604Y-13595844D01*
X10241080Y-13586320D01*
X10250604Y-13576797D01*
X10250604Y-13595844D01*
D11*
X8506356Y-13972530D02*
X8621556Y-14087730D01*
X8621556Y-13972530D02*
X8506356Y-14087730D01*
D10*
X8983937Y-14120606D02*
X8869651Y-14120606D01*
X8926794Y-14120606D02*
X8926794Y-13920606D01*
X8907746Y-13949178D01*
X8888699Y-13968225D01*
X8869651Y-13977749D01*
X9069651Y-14101558D02*
X9079175Y-14111082D01*
X9069651Y-14120606D01*
X9060127Y-14111082D01*
X9069651Y-14101558D01*
X9069651Y-14120606D01*
X9269651Y-14120606D02*
X9155366Y-14120606D01*
X9212508Y-14120606D02*
X9212508Y-13920606D01*
X9193461Y-13949178D01*
X9174413Y-13968225D01*
X9155366Y-13977749D01*
X9450604Y-13920606D02*
X9355366Y-13920606D01*
X9345842Y-14015844D01*
X9355366Y-14006320D01*
X9374413Y-13996797D01*
X9422032Y-13996797D01*
X9441080Y-14006320D01*
X9450604Y-14015844D01*
X9460127Y-14034892D01*
X9460127Y-14082511D01*
X9450604Y-14101558D01*
X9441080Y-14111082D01*
X9422032Y-14120606D01*
X9374413Y-14120606D01*
X9355366Y-14111082D01*
X9345842Y-14101558D01*
X9536318Y-13939654D02*
X9545842Y-13930130D01*
X9564889Y-13920606D01*
X9612508Y-13920606D01*
X9631556Y-13930130D01*
X9641080Y-13939654D01*
X9650604Y-13958701D01*
X9650604Y-13977749D01*
X9641080Y-14006320D01*
X9526794Y-14120606D01*
X9650604Y-14120606D01*
X9736318Y-14120606D02*
X9736318Y-13987273D01*
X9736318Y-14006320D02*
X9745842Y-13996797D01*
X9764889Y-13987273D01*
X9793461Y-13987273D01*
X9812508Y-13996797D01*
X9822032Y-14015844D01*
X9822032Y-14120606D01*
X9822032Y-14015844D02*
X9831556Y-13996797D01*
X9850604Y-13987273D01*
X9879175Y-13987273D01*
X9898223Y-13996797D01*
X9907746Y-14015844D01*
X9907746Y-14120606D01*
X10002985Y-14120606D02*
X10002985Y-13987273D01*
X10002985Y-14006320D02*
X10012508Y-13996797D01*
X10031556Y-13987273D01*
X10060127Y-13987273D01*
X10079175Y-13996797D01*
X10088699Y-14015844D01*
X10088699Y-14120606D01*
X10088699Y-14015844D02*
X10098223Y-13996797D01*
X10117270Y-13987273D01*
X10145842Y-13987273D01*
X10164889Y-13996797D01*
X10174413Y-14015844D01*
X10174413Y-14120606D01*
X10564889Y-13911082D02*
X10393461Y-14168225D01*
X10822032Y-13920606D02*
X10841080Y-13920606D01*
X10860127Y-13930130D01*
X10869651Y-13939654D01*
X10879175Y-13958701D01*
X10888699Y-13996797D01*
X10888699Y-14044416D01*
X10879175Y-14082511D01*
X10869651Y-14101558D01*
X10860127Y-14111082D01*
X10841080Y-14120606D01*
X10822032Y-14120606D01*
X10802985Y-14111082D01*
X10793461Y-14101558D01*
X10783937Y-14082511D01*
X10774413Y-14044416D01*
X10774413Y-13996797D01*
X10783937Y-13958701D01*
X10793461Y-13939654D01*
X10802985Y-13930130D01*
X10822032Y-13920606D01*
X10974413Y-14101558D02*
X10983937Y-14111082D01*
X10974413Y-14120606D01*
X10964889Y-14111082D01*
X10974413Y-14101558D01*
X10974413Y-14120606D01*
X11107746Y-13920606D02*
X11126794Y-13920606D01*
X11145842Y-13930130D01*
X11155366Y-13939654D01*
X11164889Y-13958701D01*
X11174413Y-13996797D01*
X11174413Y-14044416D01*
X11164889Y-14082511D01*
X11155366Y-14101558D01*
X11145842Y-14111082D01*
X11126794Y-14120606D01*
X11107746Y-14120606D01*
X11088699Y-14111082D01*
X11079175Y-14101558D01*
X11069651Y-14082511D01*
X11060127Y-14044416D01*
X11060127Y-13996797D01*
X11069651Y-13958701D01*
X11079175Y-13939654D01*
X11088699Y-13930130D01*
X11107746Y-13920606D01*
X11345842Y-13987273D02*
X11345842Y-14120606D01*
X11298223Y-13911082D02*
X11250604Y-14053939D01*
X11374413Y-14053939D01*
X11545842Y-13920606D02*
X11450604Y-13920606D01*
X11441080Y-14015844D01*
X11450604Y-14006320D01*
X11469651Y-13996797D01*
X11517270Y-13996797D01*
X11536318Y-14006320D01*
X11545842Y-14015844D01*
X11555365Y-14034892D01*
X11555365Y-14082511D01*
X11545842Y-14101558D01*
X11536318Y-14111082D01*
X11517270Y-14120606D01*
X11469651Y-14120606D01*
X11450604Y-14111082D01*
X11441080Y-14101558D01*
X11726794Y-13987273D02*
X11726794Y-14120606D01*
X11679175Y-13911082D02*
X11631556Y-14053939D01*
X11755365Y-14053939D01*
X11822032Y-13920606D02*
X11822032Y-13958701D01*
X11898223Y-13920606D02*
X11898223Y-13958701D01*
X12193461Y-14196797D02*
X12183937Y-14187273D01*
X12164889Y-14158701D01*
X12155365Y-14139654D01*
X12145842Y-14111082D01*
X12136318Y-14063463D01*
X12136318Y-14025368D01*
X12145842Y-13977749D01*
X12155365Y-13949178D01*
X12164889Y-13930130D01*
X12183937Y-13901558D01*
X12193461Y-13892035D01*
X12250604Y-13920606D02*
X12374413Y-13920606D01*
X12307746Y-13996797D01*
X12336318Y-13996797D01*
X12355365Y-14006320D01*
X12364889Y-14015844D01*
X12374413Y-14034892D01*
X12374413Y-14082511D01*
X12364889Y-14101558D01*
X12355365Y-14111082D01*
X12336318Y-14120606D01*
X12279175Y-14120606D01*
X12260127Y-14111082D01*
X12250604Y-14101558D01*
X12612508Y-14120606D02*
X12612508Y-13920606D01*
X12698223Y-14120606D02*
X12698223Y-14015844D01*
X12688699Y-13996797D01*
X12669651Y-13987273D01*
X12641080Y-13987273D01*
X12622032Y-13996797D01*
X12612508Y-14006320D01*
X12822032Y-14120606D02*
X12802984Y-14111082D01*
X12793461Y-14101558D01*
X12783937Y-14082511D01*
X12783937Y-14025368D01*
X12793461Y-14006320D01*
X12802984Y-13996797D01*
X12822032Y-13987273D01*
X12850604Y-13987273D01*
X12869651Y-13996797D01*
X12879175Y-14006320D01*
X12888699Y-14025368D01*
X12888699Y-14082511D01*
X12879175Y-14101558D01*
X12869651Y-14111082D01*
X12850604Y-14120606D01*
X12822032Y-14120606D01*
X13002984Y-14120606D02*
X12983937Y-14111082D01*
X12974413Y-14092035D01*
X12974413Y-13920606D01*
X13155365Y-14111082D02*
X13136318Y-14120606D01*
X13098223Y-14120606D01*
X13079175Y-14111082D01*
X13069651Y-14092035D01*
X13069651Y-14015844D01*
X13079175Y-13996797D01*
X13098223Y-13987273D01*
X13136318Y-13987273D01*
X13155365Y-13996797D01*
X13164889Y-14015844D01*
X13164889Y-14034892D01*
X13069651Y-14053939D01*
X13241080Y-14111082D02*
X13260127Y-14120606D01*
X13298223Y-14120606D01*
X13317270Y-14111082D01*
X13326794Y-14092035D01*
X13326794Y-14082511D01*
X13317270Y-14063463D01*
X13298223Y-14053939D01*
X13269651Y-14053939D01*
X13250604Y-14044416D01*
X13241080Y-14025368D01*
X13241080Y-14015844D01*
X13250604Y-13996797D01*
X13269651Y-13987273D01*
X13298223Y-13987273D01*
X13317270Y-13996797D01*
X13393461Y-14196797D02*
X13402984Y-14187273D01*
X13422032Y-14158701D01*
X13431556Y-14139654D01*
X13441080Y-14111082D01*
X13450604Y-14063463D01*
X13450604Y-14025368D01*
X13441080Y-13977749D01*
X13431556Y-13949178D01*
X13422032Y-13930130D01*
X13402984Y-13901558D01*
X13393461Y-13892035D01*
X13755365Y-14196797D02*
X13745842Y-14187273D01*
X13726794Y-14158701D01*
X13717270Y-14139654D01*
X13707746Y-14111082D01*
X13698223Y-14063463D01*
X13698223Y-14025368D01*
X13707746Y-13977749D01*
X13717270Y-13949178D01*
X13726794Y-13930130D01*
X13745842Y-13901558D01*
X13755365Y-13892035D01*
X13831556Y-13987273D02*
X13831556Y-14120606D01*
X13831556Y-14006320D02*
X13841080Y-13996797D01*
X13860127Y-13987273D01*
X13888699Y-13987273D01*
X13907746Y-13996797D01*
X13917270Y-14015844D01*
X13917270Y-14120606D01*
X14041080Y-14120606D02*
X14022032Y-14111082D01*
X14012508Y-14101558D01*
X14002984Y-14082511D01*
X14002984Y-14025368D01*
X14012508Y-14006320D01*
X14022032Y-13996797D01*
X14041080Y-13987273D01*
X14069651Y-13987273D01*
X14088699Y-13996797D01*
X14098223Y-14006320D01*
X14107746Y-14025368D01*
X14107746Y-14082511D01*
X14098223Y-14101558D01*
X14088699Y-14111082D01*
X14069651Y-14120606D01*
X14041080Y-14120606D01*
X14164889Y-13987273D02*
X14241080Y-13987273D01*
X14193461Y-13920606D02*
X14193461Y-14092035D01*
X14202984Y-14111082D01*
X14222032Y-14120606D01*
X14241080Y-14120606D01*
X14460127Y-13987273D02*
X14460127Y-14187273D01*
X14460127Y-13996797D02*
X14479175Y-13987273D01*
X14517270Y-13987273D01*
X14536318Y-13996797D01*
X14545842Y-14006320D01*
X14555365Y-14025368D01*
X14555365Y-14082511D01*
X14545842Y-14101558D01*
X14536318Y-14111082D01*
X14517270Y-14120606D01*
X14479175Y-14120606D01*
X14460127Y-14111082D01*
X14669651Y-14120606D02*
X14650604Y-14111082D01*
X14641080Y-14092035D01*
X14641080Y-13920606D01*
X14831556Y-14120606D02*
X14831556Y-14015844D01*
X14822032Y-13996797D01*
X14802984Y-13987273D01*
X14764889Y-13987273D01*
X14745842Y-13996797D01*
X14831556Y-14111082D02*
X14812508Y-14120606D01*
X14764889Y-14120606D01*
X14745842Y-14111082D01*
X14736318Y-14092035D01*
X14736318Y-14072987D01*
X14745842Y-14053939D01*
X14764889Y-14044416D01*
X14812508Y-14044416D01*
X14831556Y-14034892D01*
X14898223Y-13987273D02*
X14974413Y-13987273D01*
X14926794Y-13920606D02*
X14926794Y-14092035D01*
X14936318Y-14111082D01*
X14955365Y-14120606D01*
X14974413Y-14120606D01*
X15117270Y-14111082D02*
X15098223Y-14120606D01*
X15060127Y-14120606D01*
X15041080Y-14111082D01*
X15031556Y-14092035D01*
X15031556Y-14015844D01*
X15041080Y-13996797D01*
X15060127Y-13987273D01*
X15098223Y-13987273D01*
X15117270Y-13996797D01*
X15126794Y-14015844D01*
X15126794Y-14034892D01*
X15031556Y-14053939D01*
X15298223Y-14120606D02*
X15298223Y-13920606D01*
X15298223Y-14111082D02*
X15279175Y-14120606D01*
X15241080Y-14120606D01*
X15222032Y-14111082D01*
X15212508Y-14101558D01*
X15202984Y-14082511D01*
X15202984Y-14025368D01*
X15212508Y-14006320D01*
X15222032Y-13996797D01*
X15241080Y-13987273D01*
X15279175Y-13987273D01*
X15298223Y-13996797D01*
X15374413Y-14196797D02*
X15383937Y-14187273D01*
X15402984Y-14158701D01*
X15412508Y-14139654D01*
X15422032Y-14111082D01*
X15431556Y-14063463D01*
X15431556Y-14025368D01*
X15422032Y-13977749D01*
X15412508Y-13949178D01*
X15402984Y-13930130D01*
X15383937Y-13901558D01*
X15374413Y-13892035D01*
M02*
