%FSLAX45Y45*%
G04 Gerber Fmt 4.5, Leading zero omitted, Abs format (unit mm)*
G04 Created by KiCad (PCBNEW (6.0.6)) date 2022-08-18 11:59:36*
%MOMM*%
%LPD*%
G01*
G04 APERTURE LIST*
%ADD10C,0.200000*%
G04 APERTURE END LIST*
D10*
X8879175Y-13700606D02*
X8879175Y-13500606D01*
X8926794Y-13500606D01*
X8955366Y-13510130D01*
X8974413Y-13529178D01*
X8983937Y-13548225D01*
X8993461Y-13586320D01*
X8993461Y-13614892D01*
X8983937Y-13652987D01*
X8974413Y-13672035D01*
X8955366Y-13691082D01*
X8926794Y-13700606D01*
X8879175Y-13700606D01*
X9079175Y-13700606D02*
X9079175Y-13567273D01*
X9079175Y-13605368D02*
X9088699Y-13586320D01*
X9098223Y-13576797D01*
X9117270Y-13567273D01*
X9136318Y-13567273D01*
X9202985Y-13700606D02*
X9202985Y-13567273D01*
X9202985Y-13500606D02*
X9193461Y-13510130D01*
X9202985Y-13519654D01*
X9212508Y-13510130D01*
X9202985Y-13500606D01*
X9202985Y-13519654D01*
X9326794Y-13700606D02*
X9307746Y-13691082D01*
X9298223Y-13672035D01*
X9298223Y-13500606D01*
X9431556Y-13700606D02*
X9412508Y-13691082D01*
X9402985Y-13672035D01*
X9402985Y-13500606D01*
X9660127Y-13700606D02*
X9660127Y-13500606D01*
X9726794Y-13643463D01*
X9793461Y-13500606D01*
X9793461Y-13700606D01*
X9974413Y-13700606D02*
X9974413Y-13595844D01*
X9964889Y-13576797D01*
X9945842Y-13567273D01*
X9907746Y-13567273D01*
X9888699Y-13576797D01*
X9974413Y-13691082D02*
X9955366Y-13700606D01*
X9907746Y-13700606D01*
X9888699Y-13691082D01*
X9879175Y-13672035D01*
X9879175Y-13652987D01*
X9888699Y-13633939D01*
X9907746Y-13624416D01*
X9955366Y-13624416D01*
X9974413Y-13614892D01*
X10069651Y-13567273D02*
X10069651Y-13767273D01*
X10069651Y-13576797D02*
X10088699Y-13567273D01*
X10126794Y-13567273D01*
X10145842Y-13576797D01*
X10155366Y-13586320D01*
X10164889Y-13605368D01*
X10164889Y-13662511D01*
X10155366Y-13681558D01*
X10145842Y-13691082D01*
X10126794Y-13700606D01*
X10088699Y-13700606D01*
X10069651Y-13691082D01*
X10250604Y-13681558D02*
X10260127Y-13691082D01*
X10250604Y-13700606D01*
X10241080Y-13691082D01*
X10250604Y-13681558D01*
X10250604Y-13700606D01*
X10250604Y-13576797D02*
X10260127Y-13586320D01*
X10250604Y-13595844D01*
X10241080Y-13586320D01*
X10250604Y-13576797D01*
X10250604Y-13595844D01*
M02*
