%FSLAX45Y45*%
G04 Gerber Fmt 4.5, Leading zero omitted, Abs format (unit mm)*
G04 Created by KiCad (PCBNEW (6.0.6)) date 2022-08-18 19:45:59*
%MOMM*%
%LPD*%
G01*
G04 APERTURE LIST*
%ADD10C,0.200000*%
%ADD11C,0.030000*%
%ADD12C,0.040000*%
%ADD13C,0.100000*%
G04 APERTURE END LIST*
D10*
D11*
X9450000Y-12053000D02*
X9480000Y-12083000D01*
X9480000Y-12053000D02*
X9450000Y-12083000D01*
X9530000Y-12131000D02*
X9560000Y-12161000D01*
X9560000Y-12131000D02*
X9530000Y-12161000D01*
X9578000Y-12536000D02*
X9608000Y-12566000D01*
X9608000Y-12536000D02*
X9578000Y-12566000D01*
X9610000Y-12210000D02*
X9640000Y-12240000D01*
X9640000Y-12210000D02*
X9610000Y-12240000D01*
X9702000Y-12510000D02*
X9732000Y-12540000D01*
X9732000Y-12510000D02*
X9702000Y-12540000D01*
X9797679Y-10968334D02*
X9827679Y-10998334D01*
X9827679Y-10968334D02*
X9797679Y-10998334D01*
X9827000Y-12536000D02*
X9857000Y-12566000D01*
X9857000Y-12536000D02*
X9827000Y-12566000D01*
X9846431Y-11265569D02*
X9876431Y-11295569D01*
X9876431Y-11265569D02*
X9846431Y-11295569D01*
X9868922Y-11040784D02*
X9898922Y-11070784D01*
X9898922Y-11040784D02*
X9868922Y-11070784D01*
X9931000Y-6333000D02*
X9961000Y-6363000D01*
X9961000Y-6333000D02*
X9931000Y-6363000D01*
X9940344Y-11112206D02*
X9970344Y-11142206D01*
X9970344Y-11112206D02*
X9940344Y-11142206D01*
X9954000Y-12510000D02*
X9984000Y-12540000D01*
X9984000Y-12510000D02*
X9954000Y-12540000D01*
X9959000Y-11708000D02*
X9989000Y-11738000D01*
X9989000Y-11708000D02*
X9959000Y-11738000D01*
X10013069Y-11184931D02*
X10043069Y-11214931D01*
X10043069Y-11184931D02*
X10013069Y-11214931D01*
X10077000Y-12536000D02*
X10107000Y-12566000D01*
X10107000Y-12536000D02*
X10077000Y-12566000D01*
X10160569Y-11332431D02*
X10190569Y-11362431D01*
X10190569Y-11332431D02*
X10160569Y-11362431D01*
X10202000Y-12509000D02*
X10232000Y-12539000D01*
X10232000Y-12509000D02*
X10202000Y-12539000D01*
X10327000Y-12536000D02*
X10357000Y-12566000D01*
X10357000Y-12536000D02*
X10327000Y-12566000D01*
X10336600Y-8052087D02*
X10366600Y-8082087D01*
X10366600Y-8052087D02*
X10336600Y-8082087D01*
X10336600Y-8207000D02*
X10366600Y-8237000D01*
X10366600Y-8207000D02*
X10336600Y-8237000D01*
X10336600Y-8362000D02*
X10366600Y-8392000D01*
X10366600Y-8362000D02*
X10336600Y-8392000D01*
X10570000Y-11341000D02*
X10600000Y-11371000D01*
X10600000Y-11341000D02*
X10570000Y-11371000D01*
X10727000Y-11402450D02*
X10757000Y-11432450D01*
X10757000Y-11402450D02*
X10727000Y-11432450D01*
X10906760Y-11299398D02*
X10936760Y-11329398D01*
X10936760Y-11299398D02*
X10906760Y-11329398D01*
X10968000Y-11248000D02*
X10998000Y-11278000D01*
X10998000Y-11248000D02*
X10968000Y-11278000D01*
X11073000Y-9215000D02*
X11103000Y-9245000D01*
X11103000Y-9215000D02*
X11073000Y-9245000D01*
X11073000Y-9959000D02*
X11103000Y-9989000D01*
X11103000Y-9959000D02*
X11073000Y-9989000D01*
X11111270Y-9730270D02*
X11141270Y-9760270D01*
X11141270Y-9730270D02*
X11111270Y-9760270D01*
X11152000Y-10050000D02*
X11182000Y-10080000D01*
X11182000Y-10050000D02*
X11152000Y-10080000D01*
X11203000Y-12055000D02*
X11233000Y-12085000D01*
X11233000Y-12055000D02*
X11203000Y-12085000D01*
X11269000Y-10618000D02*
X11299000Y-10648000D01*
X11299000Y-10618000D02*
X11269000Y-10648000D01*
X11283000Y-10699000D02*
X11313000Y-10729000D01*
X11313000Y-10699000D02*
X11283000Y-10729000D01*
X11283000Y-12128000D02*
X11313000Y-12158000D01*
X11313000Y-12128000D02*
X11283000Y-12158000D01*
X11301000Y-9844000D02*
X11331000Y-9874000D01*
X11331000Y-9844000D02*
X11301000Y-9874000D01*
X11327459Y-12536932D02*
X11357459Y-12566932D01*
X11357459Y-12536932D02*
X11327459Y-12566932D01*
X11333000Y-10544000D02*
X11363000Y-10574000D01*
X11363000Y-10544000D02*
X11333000Y-10574000D01*
X11342950Y-10992091D02*
X11372950Y-11022091D01*
X11372950Y-10992091D02*
X11342950Y-11022091D01*
X11363000Y-12201000D02*
X11393000Y-12231000D01*
X11393000Y-12201000D02*
X11363000Y-12231000D01*
X11403000Y-11054000D02*
X11433000Y-11084000D01*
X11433000Y-11054000D02*
X11403000Y-11084000D01*
X11452000Y-12510000D02*
X11482000Y-12540000D01*
X11482000Y-12510000D02*
X11452000Y-12540000D01*
X11491231Y-10758950D02*
X11521231Y-10788950D01*
X11521231Y-10758950D02*
X11491231Y-10788950D01*
X11568000Y-7110000D02*
X11598000Y-7140000D01*
X11598000Y-7110000D02*
X11568000Y-7140000D01*
X11577522Y-12536740D02*
X11607522Y-12566740D01*
X11607522Y-12536740D02*
X11577522Y-12566740D01*
X11596259Y-11224050D02*
X11626259Y-11254050D01*
X11626259Y-11224050D02*
X11596259Y-11254050D01*
X11644000Y-5592000D02*
X11674000Y-5622000D01*
X11674000Y-5592000D02*
X11644000Y-5622000D01*
X11652550Y-11149000D02*
X11682550Y-11179000D01*
X11682550Y-11149000D02*
X11652550Y-11179000D01*
X11702000Y-12510000D02*
X11732000Y-12540000D01*
X11732000Y-12510000D02*
X11702000Y-12540000D01*
X11722244Y-10602055D02*
X11752244Y-10632055D01*
X11752244Y-10602055D02*
X11722244Y-10632055D01*
X11793000Y-11393000D02*
X11823000Y-11423000D01*
X11823000Y-11393000D02*
X11793000Y-11423000D01*
X11827458Y-12536740D02*
X11857458Y-12566740D01*
X11857458Y-12536740D02*
X11827458Y-12566740D01*
X11873000Y-11115950D02*
X11903000Y-11145950D01*
X11903000Y-11115950D02*
X11873000Y-11145950D01*
X11922000Y-5697000D02*
X11952000Y-5727000D01*
X11952000Y-5697000D02*
X11922000Y-5727000D01*
X11925000Y-9215000D02*
X11955000Y-9245000D01*
X11955000Y-9215000D02*
X11925000Y-9245000D01*
X11925000Y-9959000D02*
X11955000Y-9989000D01*
X11955000Y-9959000D02*
X11925000Y-9989000D01*
X11952000Y-12510000D02*
X11982000Y-12540000D01*
X11982000Y-12510000D02*
X11952000Y-12540000D01*
X11959000Y-10902000D02*
X11989000Y-10932000D01*
X11989000Y-10902000D02*
X11959000Y-10932000D01*
X11977000Y-8665000D02*
X12007000Y-8695000D01*
X12007000Y-8665000D02*
X11977000Y-8695000D01*
X11977000Y-9724000D02*
X12007000Y-9754000D01*
X12007000Y-9724000D02*
X11977000Y-9754000D01*
X12010000Y-10046000D02*
X12040000Y-10076000D01*
X12040000Y-10046000D02*
X12010000Y-10076000D01*
X12054000Y-10677000D02*
X12084000Y-10707000D01*
X12084000Y-10677000D02*
X12054000Y-10707000D01*
X12077394Y-12536740D02*
X12107394Y-12566740D01*
X12107394Y-12536740D02*
X12077394Y-12566740D01*
X12115000Y-11392000D02*
X12145000Y-11422000D01*
X12145000Y-11392000D02*
X12115000Y-11422000D01*
X12185000Y-10940000D02*
X12215000Y-10970000D01*
X12215000Y-10940000D02*
X12185000Y-10970000D01*
X12204000Y-11346000D02*
X12234000Y-11376000D01*
X12234000Y-11346000D02*
X12204000Y-11376000D01*
X12205000Y-12054000D02*
X12235000Y-12084000D01*
X12235000Y-12054000D02*
X12205000Y-12084000D01*
X12244117Y-10788139D02*
X12274117Y-10818139D01*
X12274117Y-10788139D02*
X12244117Y-10818139D01*
X12285000Y-12132000D02*
X12315000Y-12162000D01*
X12315000Y-12132000D02*
X12285000Y-12162000D01*
X12327457Y-12536932D02*
X12357457Y-12566932D01*
X12357457Y-12536932D02*
X12327457Y-12566932D01*
X12365000Y-12205000D02*
X12395000Y-12235000D01*
X12395000Y-12205000D02*
X12365000Y-12235000D01*
X12374000Y-10667000D02*
X12404000Y-10697000D01*
X12404000Y-10667000D02*
X12374000Y-10697000D01*
X12446498Y-10839950D02*
X12476498Y-10869950D01*
X12476498Y-10839950D02*
X12446498Y-10869950D01*
X12453000Y-12510000D02*
X12483000Y-12540000D01*
X12483000Y-12510000D02*
X12453000Y-12540000D01*
X12549000Y-11344000D02*
X12579000Y-11374000D01*
X12579000Y-11344000D02*
X12549000Y-11374000D01*
X12577520Y-12536740D02*
X12607520Y-12566740D01*
X12607520Y-12536740D02*
X12577520Y-12566740D01*
X12580762Y-10265761D02*
X12610762Y-10295761D01*
X12610762Y-10265761D02*
X12580762Y-10295761D01*
X12642000Y-10211000D02*
X12672000Y-10241000D01*
X12672000Y-10211000D02*
X12642000Y-10241000D01*
X12656582Y-10600638D02*
X12686582Y-10630638D01*
X12686582Y-10600638D02*
X12656582Y-10630638D01*
X12702000Y-12510000D02*
X12732000Y-12540000D01*
X12732000Y-12510000D02*
X12702000Y-12540000D01*
X12717000Y-10653000D02*
X12747000Y-10683000D01*
X12747000Y-10653000D02*
X12717000Y-10683000D01*
X12776000Y-9215000D02*
X12806000Y-9245000D01*
X12806000Y-9215000D02*
X12776000Y-9245000D01*
X12794000Y-10942000D02*
X12824000Y-10972000D01*
X12824000Y-10942000D02*
X12794000Y-10972000D01*
X12795783Y-9960190D02*
X12825783Y-9990190D01*
X12825783Y-9960190D02*
X12795783Y-9990190D01*
X12827456Y-12536740D02*
X12857456Y-12566740D01*
X12857456Y-12536740D02*
X12827456Y-12566740D01*
X12833383Y-9715083D02*
X12863383Y-9745083D01*
X12863383Y-9715083D02*
X12833383Y-9745083D01*
X12844833Y-11009050D02*
X12874833Y-11039050D01*
X12874833Y-11009050D02*
X12844833Y-11039050D01*
X12853000Y-10047000D02*
X12883000Y-10077000D01*
X12883000Y-10047000D02*
X12853000Y-10077000D01*
X12873000Y-11394000D02*
X12903000Y-11424000D01*
X12903000Y-11394000D02*
X12873000Y-11424000D01*
X12909215Y-11140150D02*
X12939215Y-11170150D01*
X12939215Y-11140150D02*
X12909215Y-11170150D01*
X12952000Y-12510000D02*
X12982000Y-12540000D01*
X12982000Y-12510000D02*
X12952000Y-12540000D01*
X12976050Y-10964993D02*
X13006050Y-10994993D01*
X13006050Y-10964993D02*
X12976050Y-10994993D01*
X13036000Y-11394000D02*
X13066000Y-11424000D01*
X13066000Y-11394000D02*
X13036000Y-11424000D01*
X13077392Y-12536740D02*
X13107392Y-12566740D01*
X13107392Y-12536740D02*
X13077392Y-12566740D01*
X13103000Y-11017000D02*
X13133000Y-11047000D01*
X13133000Y-11017000D02*
X13103000Y-11047000D01*
X13176000Y-6275000D02*
X13206000Y-6305000D01*
X13206000Y-6275000D02*
X13176000Y-6305000D01*
X13203000Y-11274100D02*
X13233000Y-11304100D01*
X13233000Y-11274100D02*
X13203000Y-11304100D01*
X13205000Y-12055000D02*
X13235000Y-12085000D01*
X13235000Y-12055000D02*
X13205000Y-12085000D01*
X13273000Y-11347000D02*
X13303000Y-11377000D01*
X13303000Y-11347000D02*
X13273000Y-11377000D01*
X13285000Y-12133000D02*
X13315000Y-12163000D01*
X13315000Y-12133000D02*
X13285000Y-12163000D01*
X13327455Y-12536932D02*
X13357455Y-12566932D01*
X13357455Y-12536932D02*
X13327455Y-12566932D01*
X13365000Y-12207000D02*
X13395000Y-12237000D01*
X13395000Y-12207000D02*
X13365000Y-12237000D01*
X13425000Y-11374000D02*
X13455000Y-11404000D01*
X13455000Y-11374000D02*
X13425000Y-11404000D01*
X13452000Y-12510000D02*
X13482000Y-12540000D01*
X13482000Y-12510000D02*
X13452000Y-12540000D01*
X13480929Y-11123573D02*
X13510929Y-11153573D01*
X13510929Y-11123573D02*
X13480929Y-11153573D01*
X13540850Y-10839950D02*
X13570850Y-10869950D01*
X13570850Y-10839950D02*
X13540850Y-10869950D01*
X13542110Y-11015950D02*
X13572110Y-11045950D01*
X13572110Y-11015950D02*
X13542110Y-11045950D01*
X13577518Y-12536740D02*
X13607518Y-12566740D01*
X13607518Y-12536740D02*
X13577518Y-12566740D01*
X13628000Y-9215000D02*
X13658000Y-9245000D01*
X13658000Y-9215000D02*
X13628000Y-9245000D01*
X13636000Y-9959000D02*
X13666000Y-9989000D01*
X13666000Y-9959000D02*
X13636000Y-9989000D01*
X13684751Y-9714789D02*
X13714751Y-9744789D01*
X13714751Y-9714789D02*
X13684751Y-9744789D01*
X13702000Y-12510000D02*
X13732000Y-12540000D01*
X13732000Y-12510000D02*
X13702000Y-12540000D01*
X13708000Y-11225000D02*
X13738000Y-11255000D01*
X13738000Y-11225000D02*
X13708000Y-11255000D01*
X13714350Y-5381050D02*
X13744350Y-5411050D01*
X13744350Y-5381050D02*
X13714350Y-5411050D01*
X13715000Y-10045000D02*
X13745000Y-10075000D01*
X13745000Y-10045000D02*
X13715000Y-10075000D01*
X13755000Y-10727000D02*
X13785000Y-10757000D01*
X13785000Y-10727000D02*
X13755000Y-10757000D01*
X13755560Y-10813677D02*
X13785560Y-10843677D01*
X13785560Y-10813677D02*
X13755560Y-10843677D01*
X13794000Y-9881000D02*
X13824000Y-9911000D01*
X13824000Y-9881000D02*
X13794000Y-9911000D01*
X13820000Y-10861000D02*
X13850000Y-10891000D01*
X13850000Y-10861000D02*
X13820000Y-10891000D01*
X13827454Y-12536740D02*
X13857454Y-12566740D01*
X13857454Y-12536740D02*
X13827454Y-12566740D01*
X13872000Y-10956000D02*
X13902000Y-10986000D01*
X13902000Y-10956000D02*
X13872000Y-10986000D01*
X13872000Y-11166000D02*
X13902000Y-11196000D01*
X13902000Y-11166000D02*
X13872000Y-11196000D01*
X13951568Y-5381050D02*
X13981568Y-5411050D01*
X13981568Y-5381050D02*
X13951568Y-5411050D01*
X13952000Y-12510000D02*
X13982000Y-12540000D01*
X13982000Y-12510000D02*
X13952000Y-12540000D01*
X14036000Y-11024000D02*
X14066000Y-11054000D01*
X14066000Y-11024000D02*
X14036000Y-11054000D01*
X14054000Y-6719000D02*
X14084000Y-6749000D01*
X14084000Y-6719000D02*
X14054000Y-6749000D01*
X14077517Y-12536932D02*
X14107517Y-12566932D01*
X14107517Y-12536932D02*
X14077517Y-12566932D01*
X14109000Y-11418050D02*
X14139000Y-11448050D01*
X14139000Y-11418050D02*
X14109000Y-11448050D01*
X14160000Y-5381000D02*
X14190000Y-5411000D01*
X14190000Y-5381000D02*
X14160000Y-5411000D01*
X14203000Y-10872000D02*
X14233000Y-10902000D01*
X14233000Y-10872000D02*
X14203000Y-10902000D01*
X14203000Y-12055000D02*
X14233000Y-12085000D01*
X14233000Y-12055000D02*
X14203000Y-12085000D01*
X14232000Y-9218000D02*
X14262000Y-9248000D01*
X14262000Y-9218000D02*
X14232000Y-9248000D01*
X14282000Y-10950000D02*
X14312000Y-10980000D01*
X14312000Y-10950000D02*
X14282000Y-10980000D01*
X14283000Y-12128000D02*
X14313000Y-12158000D01*
X14313000Y-12128000D02*
X14283000Y-12158000D01*
X14327580Y-12536740D02*
X14357580Y-12566740D01*
X14357580Y-12536740D02*
X14327580Y-12566740D01*
X14362000Y-11015000D02*
X14392000Y-11045000D01*
X14392000Y-11015000D02*
X14362000Y-11045000D01*
X14363000Y-12206000D02*
X14393000Y-12236000D01*
X14393000Y-12206000D02*
X14363000Y-12236000D01*
X14442000Y-11715000D02*
X14472000Y-11745000D01*
X14472000Y-11715000D02*
X14442000Y-11745000D01*
X14452000Y-12510000D02*
X14482000Y-12540000D01*
X14482000Y-12510000D02*
X14452000Y-12540000D01*
X14534000Y-9797000D02*
X14564000Y-9827000D01*
X14564000Y-9797000D02*
X14534000Y-9827000D01*
X14577516Y-12536740D02*
X14607516Y-12566740D01*
X14607516Y-12536740D02*
X14577516Y-12566740D01*
X14702000Y-12510000D02*
X14732000Y-12540000D01*
X14732000Y-12510000D02*
X14702000Y-12540000D01*
X14712000Y-11593800D02*
X14742000Y-11623800D01*
X14742000Y-11593800D02*
X14712000Y-11623800D01*
X14791000Y-10757000D02*
X14821000Y-10787000D01*
X14821000Y-10757000D02*
X14791000Y-10787000D01*
X14827452Y-12536740D02*
X14857452Y-12566740D01*
X14857452Y-12536740D02*
X14827452Y-12566740D01*
X14871482Y-10653550D02*
X14901482Y-10683550D01*
X14901482Y-10653550D02*
X14871482Y-10683550D01*
X14952000Y-12510000D02*
X14982000Y-12540000D01*
X14982000Y-12510000D02*
X14952000Y-12540000D01*
X14954000Y-10587550D02*
X14984000Y-10617550D01*
X14984000Y-10587550D02*
X14954000Y-10617550D01*
X15077515Y-12536932D02*
X15107515Y-12566932D01*
X15107515Y-12536932D02*
X15077515Y-12566932D01*
X15206000Y-10799000D02*
X15236000Y-10829000D01*
X15236000Y-10799000D02*
X15206000Y-10829000D01*
X15281000Y-11463000D02*
X15311000Y-11493000D01*
X15311000Y-11463000D02*
X15281000Y-11493000D01*
X15362000Y-11716000D02*
X15392000Y-11746000D01*
X15392000Y-11716000D02*
X15362000Y-11746000D01*
X15443000Y-11641000D02*
X15473000Y-11671000D01*
X15473000Y-11641000D02*
X15443000Y-11671000D01*
X15712000Y-12076000D02*
X15742000Y-12106000D01*
X15742000Y-12076000D02*
X15712000Y-12106000D01*
X15792000Y-11502000D02*
X15822000Y-11532000D01*
X15822000Y-11502000D02*
X15792000Y-11532000D01*
X15792000Y-12141000D02*
X15822000Y-12171000D01*
X15822000Y-12141000D02*
X15792000Y-12171000D01*
X15872000Y-12202000D02*
X15902000Y-12232000D01*
X15902000Y-12202000D02*
X15872000Y-12232000D01*
X15881000Y-11703000D02*
X15911000Y-11733000D01*
X15911000Y-11703000D02*
X15881000Y-11733000D01*
X15912000Y-9328000D02*
X15942000Y-9358000D01*
X15942000Y-9328000D02*
X15912000Y-9358000D01*
X15936937Y-10558951D02*
X15966937Y-10588951D01*
X15966937Y-10558951D02*
X15936937Y-10588951D01*
X16008072Y-10629165D02*
X16038072Y-10659165D01*
X16038072Y-10629165D02*
X16008072Y-10659165D01*
X16021000Y-11762950D02*
X16051000Y-11792950D01*
X16051000Y-11762950D02*
X16021000Y-11792950D01*
X16077513Y-12536932D02*
X16107513Y-12566932D01*
X16107513Y-12536932D02*
X16077513Y-12566932D01*
X16081862Y-10696582D02*
X16111862Y-10726582D01*
X16111862Y-10696582D02*
X16081862Y-10726582D01*
X16162364Y-10755824D02*
X16192364Y-10785824D01*
X16192364Y-10755824D02*
X16162364Y-10785824D01*
X16201000Y-11446000D02*
X16231000Y-11476000D01*
X16231000Y-11446000D02*
X16201000Y-11476000D01*
X16203000Y-12179000D02*
X16233000Y-12209000D01*
X16233000Y-12179000D02*
X16203000Y-12209000D01*
X16244883Y-10812221D02*
X16274883Y-10842221D01*
X16274883Y-10812221D02*
X16244883Y-10842221D01*
X16326050Y-10870547D02*
X16356050Y-10900547D01*
X16356050Y-10870547D02*
X16326050Y-10900547D01*
X16393000Y-10945000D02*
X16423000Y-10975000D01*
X16423000Y-10945000D02*
X16393000Y-10975000D01*
X16496000Y-9730000D02*
X16526000Y-9760000D01*
X16526000Y-9730000D02*
X16496000Y-9760000D01*
X16593500Y-9210000D02*
X16623500Y-9240000D01*
X16623500Y-9210000D02*
X16593500Y-9240000D01*
X17282000Y-11495000D02*
X17312000Y-11525000D01*
X17312000Y-11495000D02*
X17282000Y-11525000D01*
X17283000Y-12120450D02*
X17313000Y-12150450D01*
X17313000Y-12120450D02*
X17283000Y-12150450D01*
X17327574Y-12536740D02*
X17357574Y-12566740D01*
X17357574Y-12536740D02*
X17327574Y-12566740D01*
X17354848Y-11315572D02*
X17384848Y-11345572D01*
X17384848Y-11315572D02*
X17354848Y-11345572D01*
X17361000Y-12192900D02*
X17391000Y-12222900D01*
X17391000Y-12192900D02*
X17361000Y-12222900D01*
X17431000Y-8157000D02*
X17461000Y-8187000D01*
X17461000Y-8157000D02*
X17431000Y-8187000D01*
X17452000Y-12510000D02*
X17482000Y-12540000D01*
X17482000Y-12510000D02*
X17452000Y-12540000D01*
X17453532Y-11388022D02*
X17483532Y-11418022D01*
X17483532Y-11388022D02*
X17453532Y-11418022D01*
X17577510Y-12536740D02*
X17607510Y-12566740D01*
X17607510Y-12536740D02*
X17577510Y-12566740D01*
X17619000Y-9210000D02*
X17649000Y-9240000D01*
X17649000Y-9210000D02*
X17619000Y-9240000D01*
X17668000Y-10857000D02*
X17698000Y-10887000D01*
X17698000Y-10857000D02*
X17668000Y-10887000D01*
X17702000Y-12510000D02*
X17732000Y-12540000D01*
X17732000Y-12510000D02*
X17702000Y-12540000D01*
X17765000Y-10813000D02*
X17795000Y-10843000D01*
X17795000Y-10813000D02*
X17765000Y-10843000D01*
X17827446Y-12536740D02*
X17857446Y-12566740D01*
X17857446Y-12536740D02*
X17827446Y-12566740D01*
X17841000Y-10958000D02*
X17871000Y-10988000D01*
X17871000Y-10958000D02*
X17841000Y-10988000D01*
X17926000Y-8159000D02*
X17956000Y-8189000D01*
X17956000Y-8159000D02*
X17926000Y-8189000D01*
X17926000Y-8285000D02*
X17956000Y-8315000D01*
X17956000Y-8285000D02*
X17926000Y-8315000D01*
X17927000Y-8412000D02*
X17957000Y-8442000D01*
X17957000Y-8412000D02*
X17927000Y-8442000D01*
X17995000Y-8844000D02*
X18025000Y-8874000D01*
X18025000Y-8844000D02*
X17995000Y-8874000D01*
X18141000Y-9543000D02*
X18171000Y-9573000D01*
X18171000Y-9543000D02*
X18141000Y-9573000D01*
D12*
X9610000Y-10600000D02*
G75*
G03*
X9610000Y-10600000I-20000J0D01*
G01*
X16512436Y-12538436D02*
G75*
G03*
X16512436Y-12538436I-20000J0D01*
G01*
X18620000Y-11512000D02*
G75*
G03*
X18620000Y-11512000I-20000J0D01*
G01*
D13*
X8825000Y-2996000D02*
X8825000Y-3096000D01*
X8775000Y-3046000D02*
X8875000Y-3046000D01*
X8825000Y-3250000D02*
X8825000Y-3350000D01*
X8775000Y-3300000D02*
X8875000Y-3300000D01*
X8825000Y-3504000D02*
X8825000Y-3604000D01*
X8775000Y-3554000D02*
X8875000Y-3554000D01*
X8825000Y-3758000D02*
X8825000Y-3858000D01*
X8775000Y-3808000D02*
X8875000Y-3808000D01*
X8825000Y-4012000D02*
X8825000Y-4112000D01*
X8775000Y-4062000D02*
X8875000Y-4062000D01*
X8825000Y-4266000D02*
X8825000Y-4366000D01*
X8775000Y-4316000D02*
X8875000Y-4316000D01*
X8825000Y-4520000D02*
X8825000Y-4620000D01*
X8775000Y-4570000D02*
X8875000Y-4570000D01*
X8825000Y-4774000D02*
X8825000Y-4874000D01*
X8775000Y-4824000D02*
X8875000Y-4824000D01*
X8825000Y-5028000D02*
X8825000Y-5128000D01*
X8775000Y-5078000D02*
X8875000Y-5078000D01*
X8825000Y-5282000D02*
X8825000Y-5382000D01*
X8775000Y-5332000D02*
X8875000Y-5332000D01*
X8825000Y-5536000D02*
X8825000Y-5636000D01*
X8775000Y-5586000D02*
X8875000Y-5586000D01*
X8825000Y-5790000D02*
X8825000Y-5890000D01*
X8775000Y-5840000D02*
X8875000Y-5840000D01*
X8825000Y-6044000D02*
X8825000Y-6144000D01*
X8775000Y-6094000D02*
X8875000Y-6094000D01*
X8825000Y-6298000D02*
X8825000Y-6398000D01*
X8775000Y-6348000D02*
X8875000Y-6348000D01*
X8825000Y-6552000D02*
X8825000Y-6652000D01*
X8775000Y-6602000D02*
X8875000Y-6602000D01*
X8825000Y-6806000D02*
X8825000Y-6906000D01*
X8775000Y-6856000D02*
X8875000Y-6856000D01*
X8825000Y-7060000D02*
X8825000Y-7160000D01*
X8775000Y-7110000D02*
X8875000Y-7110000D01*
X8825000Y-7314000D02*
X8825000Y-7414000D01*
X8775000Y-7364000D02*
X8875000Y-7364000D01*
X8825000Y-7568000D02*
X8825000Y-7668000D01*
X8775000Y-7618000D02*
X8875000Y-7618000D01*
X8825000Y-7822000D02*
X8825000Y-7922000D01*
X8775000Y-7872000D02*
X8875000Y-7872000D01*
X8979500Y-8364000D02*
X8979500Y-8464000D01*
X8929500Y-8414000D02*
X9029500Y-8414000D01*
X9233500Y-8364000D02*
X9233500Y-8464000D01*
X9183500Y-8414000D02*
X9283500Y-8414000D01*
X9487500Y-8364000D02*
X9487500Y-8464000D01*
X9437500Y-8414000D02*
X9537500Y-8414000D01*
X10603000Y-2996000D02*
X10603000Y-3096000D01*
X10553000Y-3046000D02*
X10653000Y-3046000D01*
X10603000Y-3250000D02*
X10603000Y-3350000D01*
X10553000Y-3300000D02*
X10653000Y-3300000D01*
X10603000Y-3504000D02*
X10603000Y-3604000D01*
X10553000Y-3554000D02*
X10653000Y-3554000D01*
X10603000Y-3758000D02*
X10603000Y-3858000D01*
X10553000Y-3808000D02*
X10653000Y-3808000D01*
X10603000Y-4012000D02*
X10603000Y-4112000D01*
X10553000Y-4062000D02*
X10653000Y-4062000D01*
X10603000Y-4266000D02*
X10603000Y-4366000D01*
X10553000Y-4316000D02*
X10653000Y-4316000D01*
X10603000Y-4520000D02*
X10603000Y-4620000D01*
X10553000Y-4570000D02*
X10653000Y-4570000D01*
X10603000Y-4774000D02*
X10603000Y-4874000D01*
X10553000Y-4824000D02*
X10653000Y-4824000D01*
X10603000Y-5028000D02*
X10603000Y-5128000D01*
X10553000Y-5078000D02*
X10653000Y-5078000D01*
X10603000Y-5282000D02*
X10603000Y-5382000D01*
X10553000Y-5332000D02*
X10653000Y-5332000D01*
X10603000Y-5536000D02*
X10603000Y-5636000D01*
X10553000Y-5586000D02*
X10653000Y-5586000D01*
X10603000Y-5790000D02*
X10603000Y-5890000D01*
X10553000Y-5840000D02*
X10653000Y-5840000D01*
X10603000Y-6044000D02*
X10603000Y-6144000D01*
X10553000Y-6094000D02*
X10653000Y-6094000D01*
X10603000Y-6298000D02*
X10603000Y-6398000D01*
X10553000Y-6348000D02*
X10653000Y-6348000D01*
X10603000Y-6552000D02*
X10603000Y-6652000D01*
X10553000Y-6602000D02*
X10653000Y-6602000D01*
X10603000Y-6806000D02*
X10603000Y-6906000D01*
X10553000Y-6856000D02*
X10653000Y-6856000D01*
X10603000Y-7060000D02*
X10603000Y-7160000D01*
X10553000Y-7110000D02*
X10653000Y-7110000D01*
X10603000Y-7314000D02*
X10603000Y-7414000D01*
X10553000Y-7364000D02*
X10653000Y-7364000D01*
X10603000Y-7568000D02*
X10603000Y-7668000D01*
X10553000Y-7618000D02*
X10653000Y-7618000D01*
X10603000Y-7822000D02*
X10603000Y-7922000D01*
X10553000Y-7872000D02*
X10653000Y-7872000D01*
X15476000Y-4011000D02*
X15476000Y-4111000D01*
X15426000Y-4061000D02*
X15526000Y-4061000D01*
X15476000Y-4265000D02*
X15476000Y-4365000D01*
X15426000Y-4315000D02*
X15526000Y-4315000D01*
X16022000Y-4011000D02*
X16022000Y-4111000D01*
X15972000Y-4061000D02*
X16072000Y-4061000D01*
X16022000Y-4265000D02*
X16022000Y-4365000D01*
X15972000Y-4315000D02*
X16072000Y-4315000D01*
X16022000Y-4870000D02*
X16022000Y-4970000D01*
X15972000Y-4920000D02*
X16072000Y-4920000D01*
X16505000Y-4857000D02*
X16505000Y-4957000D01*
X16455000Y-4907000D02*
X16555000Y-4907000D01*
X16988000Y-4870000D02*
X16988000Y-4970000D01*
X16938000Y-4920000D02*
X17038000Y-4920000D01*
X17293000Y-3350000D02*
X17293000Y-3450000D01*
X17243000Y-3400000D02*
X17343000Y-3400000D01*
X17293000Y-3604000D02*
X17293000Y-3704000D01*
X17243000Y-3654000D02*
X17343000Y-3654000D01*
X17383000Y-7364000D02*
X17383000Y-7464000D01*
X17333000Y-7414000D02*
X17433000Y-7414000D01*
X17637000Y-7364000D02*
X17637000Y-7464000D01*
X17587000Y-7414000D02*
X17687000Y-7414000D01*
X17662500Y-3350000D02*
X17662500Y-3450000D01*
X17612500Y-3400000D02*
X17712500Y-3400000D01*
X17662500Y-3604000D02*
X17662500Y-3704000D01*
X17612500Y-3654000D02*
X17712500Y-3654000D01*
X17891000Y-7364000D02*
X17891000Y-7464000D01*
X17841000Y-7414000D02*
X17941000Y-7414000D01*
X18032000Y-3350000D02*
X18032000Y-3450000D01*
X17982000Y-3400000D02*
X18082000Y-3400000D01*
X18032000Y-3604000D02*
X18032000Y-3704000D01*
X17982000Y-3654000D02*
X18082000Y-3654000D01*
X18145000Y-7364000D02*
X18145000Y-7464000D01*
X18095000Y-7414000D02*
X18195000Y-7414000D01*
X18399000Y-7364000D02*
X18399000Y-7464000D01*
X18349000Y-7414000D02*
X18449000Y-7414000D01*
X18400000Y-3350000D02*
X18400000Y-3450000D01*
X18350000Y-3400000D02*
X18450000Y-3400000D01*
X18400000Y-3604000D02*
X18400000Y-3704000D01*
X18350000Y-3654000D02*
X18450000Y-3654000D01*
D10*
X8879175Y-13700606D02*
X8879175Y-13500606D01*
X8926794Y-13500606D01*
X8955366Y-13510130D01*
X8974413Y-13529178D01*
X8983937Y-13548225D01*
X8993461Y-13586320D01*
X8993461Y-13614892D01*
X8983937Y-13652987D01*
X8974413Y-13672035D01*
X8955366Y-13691082D01*
X8926794Y-13700606D01*
X8879175Y-13700606D01*
X9079175Y-13700606D02*
X9079175Y-13567273D01*
X9079175Y-13605368D02*
X9088699Y-13586320D01*
X9098223Y-13576797D01*
X9117270Y-13567273D01*
X9136318Y-13567273D01*
X9202985Y-13700606D02*
X9202985Y-13567273D01*
X9202985Y-13500606D02*
X9193461Y-13510130D01*
X9202985Y-13519654D01*
X9212508Y-13510130D01*
X9202985Y-13500606D01*
X9202985Y-13519654D01*
X9326794Y-13700606D02*
X9307746Y-13691082D01*
X9298223Y-13672035D01*
X9298223Y-13500606D01*
X9431556Y-13700606D02*
X9412508Y-13691082D01*
X9402985Y-13672035D01*
X9402985Y-13500606D01*
X9660127Y-13700606D02*
X9660127Y-13500606D01*
X9726794Y-13643463D01*
X9793461Y-13500606D01*
X9793461Y-13700606D01*
X9974413Y-13700606D02*
X9974413Y-13595844D01*
X9964889Y-13576797D01*
X9945842Y-13567273D01*
X9907746Y-13567273D01*
X9888699Y-13576797D01*
X9974413Y-13691082D02*
X9955366Y-13700606D01*
X9907746Y-13700606D01*
X9888699Y-13691082D01*
X9879175Y-13672035D01*
X9879175Y-13652987D01*
X9888699Y-13633939D01*
X9907746Y-13624416D01*
X9955366Y-13624416D01*
X9974413Y-13614892D01*
X10069651Y-13567273D02*
X10069651Y-13767273D01*
X10069651Y-13576797D02*
X10088699Y-13567273D01*
X10126794Y-13567273D01*
X10145842Y-13576797D01*
X10155366Y-13586320D01*
X10164889Y-13605368D01*
X10164889Y-13662511D01*
X10155366Y-13681558D01*
X10145842Y-13691082D01*
X10126794Y-13700606D01*
X10088699Y-13700606D01*
X10069651Y-13691082D01*
X10250604Y-13681558D02*
X10260127Y-13691082D01*
X10250604Y-13700606D01*
X10241080Y-13691082D01*
X10250604Y-13681558D01*
X10250604Y-13700606D01*
X10250604Y-13576797D02*
X10260127Y-13586320D01*
X10250604Y-13595844D01*
X10241080Y-13586320D01*
X10250604Y-13576797D01*
X10250604Y-13595844D01*
D11*
X8591556Y-14015130D02*
X8621556Y-14045130D01*
X8621556Y-14015130D02*
X8591556Y-14045130D01*
D10*
X8917270Y-13920606D02*
X8936318Y-13920606D01*
X8955366Y-13930130D01*
X8964889Y-13939654D01*
X8974413Y-13958701D01*
X8983937Y-13996797D01*
X8983937Y-14044416D01*
X8974413Y-14082511D01*
X8964889Y-14101558D01*
X8955366Y-14111082D01*
X8936318Y-14120606D01*
X8917270Y-14120606D01*
X8898223Y-14111082D01*
X8888699Y-14101558D01*
X8879175Y-14082511D01*
X8869651Y-14044416D01*
X8869651Y-13996797D01*
X8879175Y-13958701D01*
X8888699Y-13939654D01*
X8898223Y-13930130D01*
X8917270Y-13920606D01*
X9069651Y-14101558D02*
X9079175Y-14111082D01*
X9069651Y-14120606D01*
X9060127Y-14111082D01*
X9069651Y-14101558D01*
X9069651Y-14120606D01*
X9145842Y-13920606D02*
X9269651Y-13920606D01*
X9202985Y-13996797D01*
X9231556Y-13996797D01*
X9250604Y-14006320D01*
X9260127Y-14015844D01*
X9269651Y-14034892D01*
X9269651Y-14082511D01*
X9260127Y-14101558D01*
X9250604Y-14111082D01*
X9231556Y-14120606D01*
X9174413Y-14120606D01*
X9155366Y-14111082D01*
X9145842Y-14101558D01*
X9393461Y-13920606D02*
X9412508Y-13920606D01*
X9431556Y-13930130D01*
X9441080Y-13939654D01*
X9450604Y-13958701D01*
X9460127Y-13996797D01*
X9460127Y-14044416D01*
X9450604Y-14082511D01*
X9441080Y-14101558D01*
X9431556Y-14111082D01*
X9412508Y-14120606D01*
X9393461Y-14120606D01*
X9374413Y-14111082D01*
X9364889Y-14101558D01*
X9355366Y-14082511D01*
X9345842Y-14044416D01*
X9345842Y-13996797D01*
X9355366Y-13958701D01*
X9364889Y-13939654D01*
X9374413Y-13930130D01*
X9393461Y-13920606D01*
X9583937Y-13920606D02*
X9602985Y-13920606D01*
X9622032Y-13930130D01*
X9631556Y-13939654D01*
X9641080Y-13958701D01*
X9650604Y-13996797D01*
X9650604Y-14044416D01*
X9641080Y-14082511D01*
X9631556Y-14101558D01*
X9622032Y-14111082D01*
X9602985Y-14120606D01*
X9583937Y-14120606D01*
X9564889Y-14111082D01*
X9555366Y-14101558D01*
X9545842Y-14082511D01*
X9536318Y-14044416D01*
X9536318Y-13996797D01*
X9545842Y-13958701D01*
X9555366Y-13939654D01*
X9564889Y-13930130D01*
X9583937Y-13920606D01*
X9736318Y-14120606D02*
X9736318Y-13987273D01*
X9736318Y-14006320D02*
X9745842Y-13996797D01*
X9764889Y-13987273D01*
X9793461Y-13987273D01*
X9812508Y-13996797D01*
X9822032Y-14015844D01*
X9822032Y-14120606D01*
X9822032Y-14015844D02*
X9831556Y-13996797D01*
X9850604Y-13987273D01*
X9879175Y-13987273D01*
X9898223Y-13996797D01*
X9907746Y-14015844D01*
X9907746Y-14120606D01*
X10002985Y-14120606D02*
X10002985Y-13987273D01*
X10002985Y-14006320D02*
X10012508Y-13996797D01*
X10031556Y-13987273D01*
X10060127Y-13987273D01*
X10079175Y-13996797D01*
X10088699Y-14015844D01*
X10088699Y-14120606D01*
X10088699Y-14015844D02*
X10098223Y-13996797D01*
X10117270Y-13987273D01*
X10145842Y-13987273D01*
X10164889Y-13996797D01*
X10174413Y-14015844D01*
X10174413Y-14120606D01*
X10564889Y-13911082D02*
X10393461Y-14168225D01*
X10822032Y-13920606D02*
X10841080Y-13920606D01*
X10860127Y-13930130D01*
X10869651Y-13939654D01*
X10879175Y-13958701D01*
X10888699Y-13996797D01*
X10888699Y-14044416D01*
X10879175Y-14082511D01*
X10869651Y-14101558D01*
X10860127Y-14111082D01*
X10841080Y-14120606D01*
X10822032Y-14120606D01*
X10802985Y-14111082D01*
X10793461Y-14101558D01*
X10783937Y-14082511D01*
X10774413Y-14044416D01*
X10774413Y-13996797D01*
X10783937Y-13958701D01*
X10793461Y-13939654D01*
X10802985Y-13930130D01*
X10822032Y-13920606D01*
X10974413Y-14101558D02*
X10983937Y-14111082D01*
X10974413Y-14120606D01*
X10964889Y-14111082D01*
X10974413Y-14101558D01*
X10974413Y-14120606D01*
X11107746Y-13920606D02*
X11126794Y-13920606D01*
X11145842Y-13930130D01*
X11155366Y-13939654D01*
X11164889Y-13958701D01*
X11174413Y-13996797D01*
X11174413Y-14044416D01*
X11164889Y-14082511D01*
X11155366Y-14101558D01*
X11145842Y-14111082D01*
X11126794Y-14120606D01*
X11107746Y-14120606D01*
X11088699Y-14111082D01*
X11079175Y-14101558D01*
X11069651Y-14082511D01*
X11060127Y-14044416D01*
X11060127Y-13996797D01*
X11069651Y-13958701D01*
X11079175Y-13939654D01*
X11088699Y-13930130D01*
X11107746Y-13920606D01*
X11364889Y-14120606D02*
X11250604Y-14120606D01*
X11307746Y-14120606D02*
X11307746Y-13920606D01*
X11288699Y-13949178D01*
X11269651Y-13968225D01*
X11250604Y-13977749D01*
X11555365Y-14120606D02*
X11441080Y-14120606D01*
X11498223Y-14120606D02*
X11498223Y-13920606D01*
X11479175Y-13949178D01*
X11460127Y-13968225D01*
X11441080Y-13977749D01*
X11669651Y-14006320D02*
X11650604Y-13996797D01*
X11641080Y-13987273D01*
X11631556Y-13968225D01*
X11631556Y-13958701D01*
X11641080Y-13939654D01*
X11650604Y-13930130D01*
X11669651Y-13920606D01*
X11707746Y-13920606D01*
X11726794Y-13930130D01*
X11736318Y-13939654D01*
X11745842Y-13958701D01*
X11745842Y-13968225D01*
X11736318Y-13987273D01*
X11726794Y-13996797D01*
X11707746Y-14006320D01*
X11669651Y-14006320D01*
X11650604Y-14015844D01*
X11641080Y-14025368D01*
X11631556Y-14044416D01*
X11631556Y-14082511D01*
X11641080Y-14101558D01*
X11650604Y-14111082D01*
X11669651Y-14120606D01*
X11707746Y-14120606D01*
X11726794Y-14111082D01*
X11736318Y-14101558D01*
X11745842Y-14082511D01*
X11745842Y-14044416D01*
X11736318Y-14025368D01*
X11726794Y-14015844D01*
X11707746Y-14006320D01*
X11822032Y-13920606D02*
X11822032Y-13958701D01*
X11898223Y-13920606D02*
X11898223Y-13958701D01*
X12193461Y-14196797D02*
X12183937Y-14187273D01*
X12164889Y-14158701D01*
X12155365Y-14139654D01*
X12145842Y-14111082D01*
X12136318Y-14063463D01*
X12136318Y-14025368D01*
X12145842Y-13977749D01*
X12155365Y-13949178D01*
X12164889Y-13930130D01*
X12183937Y-13901558D01*
X12193461Y-13892035D01*
X12374413Y-14120606D02*
X12260127Y-14120606D01*
X12317270Y-14120606D02*
X12317270Y-13920606D01*
X12298223Y-13949178D01*
X12279175Y-13968225D01*
X12260127Y-13977749D01*
X12469651Y-14120606D02*
X12507746Y-14120606D01*
X12526794Y-14111082D01*
X12536318Y-14101558D01*
X12555365Y-14072987D01*
X12564889Y-14034892D01*
X12564889Y-13958701D01*
X12555365Y-13939654D01*
X12545842Y-13930130D01*
X12526794Y-13920606D01*
X12488699Y-13920606D01*
X12469651Y-13930130D01*
X12460127Y-13939654D01*
X12450604Y-13958701D01*
X12450604Y-14006320D01*
X12460127Y-14025368D01*
X12469651Y-14034892D01*
X12488699Y-14044416D01*
X12526794Y-14044416D01*
X12545842Y-14034892D01*
X12555365Y-14025368D01*
X12564889Y-14006320D01*
X12688699Y-13920606D02*
X12707746Y-13920606D01*
X12726794Y-13930130D01*
X12736318Y-13939654D01*
X12745842Y-13958701D01*
X12755365Y-13996797D01*
X12755365Y-14044416D01*
X12745842Y-14082511D01*
X12736318Y-14101558D01*
X12726794Y-14111082D01*
X12707746Y-14120606D01*
X12688699Y-14120606D01*
X12669651Y-14111082D01*
X12660127Y-14101558D01*
X12650604Y-14082511D01*
X12641080Y-14044416D01*
X12641080Y-13996797D01*
X12650604Y-13958701D01*
X12660127Y-13939654D01*
X12669651Y-13930130D01*
X12688699Y-13920606D01*
X12993461Y-14120606D02*
X12993461Y-13920606D01*
X13079175Y-14120606D02*
X13079175Y-14015844D01*
X13069651Y-13996797D01*
X13050604Y-13987273D01*
X13022032Y-13987273D01*
X13002984Y-13996797D01*
X12993461Y-14006320D01*
X13202984Y-14120606D02*
X13183937Y-14111082D01*
X13174413Y-14101558D01*
X13164889Y-14082511D01*
X13164889Y-14025368D01*
X13174413Y-14006320D01*
X13183937Y-13996797D01*
X13202984Y-13987273D01*
X13231556Y-13987273D01*
X13250604Y-13996797D01*
X13260127Y-14006320D01*
X13269651Y-14025368D01*
X13269651Y-14082511D01*
X13260127Y-14101558D01*
X13250604Y-14111082D01*
X13231556Y-14120606D01*
X13202984Y-14120606D01*
X13383937Y-14120606D02*
X13364889Y-14111082D01*
X13355365Y-14092035D01*
X13355365Y-13920606D01*
X13536318Y-14111082D02*
X13517270Y-14120606D01*
X13479175Y-14120606D01*
X13460127Y-14111082D01*
X13450604Y-14092035D01*
X13450604Y-14015844D01*
X13460127Y-13996797D01*
X13479175Y-13987273D01*
X13517270Y-13987273D01*
X13536318Y-13996797D01*
X13545842Y-14015844D01*
X13545842Y-14034892D01*
X13450604Y-14053939D01*
X13622032Y-14111082D02*
X13641080Y-14120606D01*
X13679175Y-14120606D01*
X13698223Y-14111082D01*
X13707746Y-14092035D01*
X13707746Y-14082511D01*
X13698223Y-14063463D01*
X13679175Y-14053939D01*
X13650604Y-14053939D01*
X13631556Y-14044416D01*
X13622032Y-14025368D01*
X13622032Y-14015844D01*
X13631556Y-13996797D01*
X13650604Y-13987273D01*
X13679175Y-13987273D01*
X13698223Y-13996797D01*
X13774413Y-14196797D02*
X13783937Y-14187273D01*
X13802984Y-14158701D01*
X13812508Y-14139654D01*
X13822032Y-14111082D01*
X13831556Y-14063463D01*
X13831556Y-14025368D01*
X13822032Y-13977749D01*
X13812508Y-13949178D01*
X13802984Y-13930130D01*
X13783937Y-13901558D01*
X13774413Y-13892035D01*
D12*
X8621556Y-14294130D02*
G75*
G03*
X8621556Y-14294130I-20000J0D01*
G01*
D10*
X8917270Y-14184606D02*
X8936318Y-14184606D01*
X8955366Y-14194130D01*
X8964889Y-14203654D01*
X8974413Y-14222701D01*
X8983937Y-14260797D01*
X8983937Y-14308416D01*
X8974413Y-14346511D01*
X8964889Y-14365558D01*
X8955366Y-14375082D01*
X8936318Y-14384606D01*
X8917270Y-14384606D01*
X8898223Y-14375082D01*
X8888699Y-14365558D01*
X8879175Y-14346511D01*
X8869651Y-14308416D01*
X8869651Y-14260797D01*
X8879175Y-14222701D01*
X8888699Y-14203654D01*
X8898223Y-14194130D01*
X8917270Y-14184606D01*
X9069651Y-14365558D02*
X9079175Y-14375082D01*
X9069651Y-14384606D01*
X9060127Y-14375082D01*
X9069651Y-14365558D01*
X9069651Y-14384606D01*
X9250604Y-14251273D02*
X9250604Y-14384606D01*
X9202985Y-14175082D02*
X9155366Y-14317939D01*
X9279175Y-14317939D01*
X9393461Y-14184606D02*
X9412508Y-14184606D01*
X9431556Y-14194130D01*
X9441080Y-14203654D01*
X9450604Y-14222701D01*
X9460127Y-14260797D01*
X9460127Y-14308416D01*
X9450604Y-14346511D01*
X9441080Y-14365558D01*
X9431556Y-14375082D01*
X9412508Y-14384606D01*
X9393461Y-14384606D01*
X9374413Y-14375082D01*
X9364889Y-14365558D01*
X9355366Y-14346511D01*
X9345842Y-14308416D01*
X9345842Y-14260797D01*
X9355366Y-14222701D01*
X9364889Y-14203654D01*
X9374413Y-14194130D01*
X9393461Y-14184606D01*
X9583937Y-14184606D02*
X9602985Y-14184606D01*
X9622032Y-14194130D01*
X9631556Y-14203654D01*
X9641080Y-14222701D01*
X9650604Y-14260797D01*
X9650604Y-14308416D01*
X9641080Y-14346511D01*
X9631556Y-14365558D01*
X9622032Y-14375082D01*
X9602985Y-14384606D01*
X9583937Y-14384606D01*
X9564889Y-14375082D01*
X9555366Y-14365558D01*
X9545842Y-14346511D01*
X9536318Y-14308416D01*
X9536318Y-14260797D01*
X9545842Y-14222701D01*
X9555366Y-14203654D01*
X9564889Y-14194130D01*
X9583937Y-14184606D01*
X9736318Y-14384606D02*
X9736318Y-14251273D01*
X9736318Y-14270320D02*
X9745842Y-14260797D01*
X9764889Y-14251273D01*
X9793461Y-14251273D01*
X9812508Y-14260797D01*
X9822032Y-14279844D01*
X9822032Y-14384606D01*
X9822032Y-14279844D02*
X9831556Y-14260797D01*
X9850604Y-14251273D01*
X9879175Y-14251273D01*
X9898223Y-14260797D01*
X9907746Y-14279844D01*
X9907746Y-14384606D01*
X10002985Y-14384606D02*
X10002985Y-14251273D01*
X10002985Y-14270320D02*
X10012508Y-14260797D01*
X10031556Y-14251273D01*
X10060127Y-14251273D01*
X10079175Y-14260797D01*
X10088699Y-14279844D01*
X10088699Y-14384606D01*
X10088699Y-14279844D02*
X10098223Y-14260797D01*
X10117270Y-14251273D01*
X10145842Y-14251273D01*
X10164889Y-14260797D01*
X10174413Y-14279844D01*
X10174413Y-14384606D01*
X10564889Y-14175082D02*
X10393461Y-14432225D01*
X10822032Y-14184606D02*
X10841080Y-14184606D01*
X10860127Y-14194130D01*
X10869651Y-14203654D01*
X10879175Y-14222701D01*
X10888699Y-14260797D01*
X10888699Y-14308416D01*
X10879175Y-14346511D01*
X10869651Y-14365558D01*
X10860127Y-14375082D01*
X10841080Y-14384606D01*
X10822032Y-14384606D01*
X10802985Y-14375082D01*
X10793461Y-14365558D01*
X10783937Y-14346511D01*
X10774413Y-14308416D01*
X10774413Y-14260797D01*
X10783937Y-14222701D01*
X10793461Y-14203654D01*
X10802985Y-14194130D01*
X10822032Y-14184606D01*
X10974413Y-14365558D02*
X10983937Y-14375082D01*
X10974413Y-14384606D01*
X10964889Y-14375082D01*
X10974413Y-14365558D01*
X10974413Y-14384606D01*
X11107746Y-14184606D02*
X11126794Y-14184606D01*
X11145842Y-14194130D01*
X11155366Y-14203654D01*
X11164889Y-14222701D01*
X11174413Y-14260797D01*
X11174413Y-14308416D01*
X11164889Y-14346511D01*
X11155366Y-14365558D01*
X11145842Y-14375082D01*
X11126794Y-14384606D01*
X11107746Y-14384606D01*
X11088699Y-14375082D01*
X11079175Y-14365558D01*
X11069651Y-14346511D01*
X11060127Y-14308416D01*
X11060127Y-14260797D01*
X11069651Y-14222701D01*
X11079175Y-14203654D01*
X11088699Y-14194130D01*
X11107746Y-14184606D01*
X11364889Y-14384606D02*
X11250604Y-14384606D01*
X11307746Y-14384606D02*
X11307746Y-14184606D01*
X11288699Y-14213178D01*
X11269651Y-14232225D01*
X11250604Y-14241749D01*
X11545842Y-14184606D02*
X11450604Y-14184606D01*
X11441080Y-14279844D01*
X11450604Y-14270320D01*
X11469651Y-14260797D01*
X11517270Y-14260797D01*
X11536318Y-14270320D01*
X11545842Y-14279844D01*
X11555365Y-14298892D01*
X11555365Y-14346511D01*
X11545842Y-14365558D01*
X11536318Y-14375082D01*
X11517270Y-14384606D01*
X11469651Y-14384606D01*
X11450604Y-14375082D01*
X11441080Y-14365558D01*
X11622032Y-14184606D02*
X11755365Y-14184606D01*
X11669651Y-14384606D01*
X11822032Y-14184606D02*
X11822032Y-14222701D01*
X11898223Y-14184606D02*
X11898223Y-14222701D01*
X12193461Y-14460797D02*
X12183937Y-14451273D01*
X12164889Y-14422701D01*
X12155365Y-14403654D01*
X12145842Y-14375082D01*
X12136318Y-14327463D01*
X12136318Y-14289368D01*
X12145842Y-14241749D01*
X12155365Y-14213178D01*
X12164889Y-14194130D01*
X12183937Y-14165558D01*
X12193461Y-14156035D01*
X12250604Y-14184606D02*
X12374413Y-14184606D01*
X12307746Y-14260797D01*
X12336318Y-14260797D01*
X12355365Y-14270320D01*
X12364889Y-14279844D01*
X12374413Y-14298892D01*
X12374413Y-14346511D01*
X12364889Y-14365558D01*
X12355365Y-14375082D01*
X12336318Y-14384606D01*
X12279175Y-14384606D01*
X12260127Y-14375082D01*
X12250604Y-14365558D01*
X12612508Y-14384606D02*
X12612508Y-14184606D01*
X12698223Y-14384606D02*
X12698223Y-14279844D01*
X12688699Y-14260797D01*
X12669651Y-14251273D01*
X12641080Y-14251273D01*
X12622032Y-14260797D01*
X12612508Y-14270320D01*
X12822032Y-14384606D02*
X12802984Y-14375082D01*
X12793461Y-14365558D01*
X12783937Y-14346511D01*
X12783937Y-14289368D01*
X12793461Y-14270320D01*
X12802984Y-14260797D01*
X12822032Y-14251273D01*
X12850604Y-14251273D01*
X12869651Y-14260797D01*
X12879175Y-14270320D01*
X12888699Y-14289368D01*
X12888699Y-14346511D01*
X12879175Y-14365558D01*
X12869651Y-14375082D01*
X12850604Y-14384606D01*
X12822032Y-14384606D01*
X13002984Y-14384606D02*
X12983937Y-14375082D01*
X12974413Y-14356035D01*
X12974413Y-14184606D01*
X13155365Y-14375082D02*
X13136318Y-14384606D01*
X13098223Y-14384606D01*
X13079175Y-14375082D01*
X13069651Y-14356035D01*
X13069651Y-14279844D01*
X13079175Y-14260797D01*
X13098223Y-14251273D01*
X13136318Y-14251273D01*
X13155365Y-14260797D01*
X13164889Y-14279844D01*
X13164889Y-14298892D01*
X13069651Y-14317939D01*
X13241080Y-14375082D02*
X13260127Y-14384606D01*
X13298223Y-14384606D01*
X13317270Y-14375082D01*
X13326794Y-14356035D01*
X13326794Y-14346511D01*
X13317270Y-14327463D01*
X13298223Y-14317939D01*
X13269651Y-14317939D01*
X13250604Y-14308416D01*
X13241080Y-14289368D01*
X13241080Y-14279844D01*
X13250604Y-14260797D01*
X13269651Y-14251273D01*
X13298223Y-14251273D01*
X13317270Y-14260797D01*
X13393461Y-14460797D02*
X13402984Y-14451273D01*
X13422032Y-14422701D01*
X13431556Y-14403654D01*
X13441080Y-14375082D01*
X13450604Y-14327463D01*
X13450604Y-14289368D01*
X13441080Y-14241749D01*
X13431556Y-14213178D01*
X13422032Y-14194130D01*
X13402984Y-14165558D01*
X13393461Y-14156035D01*
D13*
X8571556Y-14508130D02*
X8571556Y-14608130D01*
X8521556Y-14558130D02*
X8621556Y-14558130D01*
D10*
X8983937Y-14648606D02*
X8869651Y-14648606D01*
X8926794Y-14648606D02*
X8926794Y-14448606D01*
X8907746Y-14477178D01*
X8888699Y-14496225D01*
X8869651Y-14505749D01*
X9069651Y-14629558D02*
X9079175Y-14639082D01*
X9069651Y-14648606D01*
X9060127Y-14639082D01*
X9069651Y-14629558D01*
X9069651Y-14648606D01*
X9202985Y-14448606D02*
X9222032Y-14448606D01*
X9241080Y-14458130D01*
X9250604Y-14467654D01*
X9260127Y-14486701D01*
X9269651Y-14524797D01*
X9269651Y-14572416D01*
X9260127Y-14610511D01*
X9250604Y-14629558D01*
X9241080Y-14639082D01*
X9222032Y-14648606D01*
X9202985Y-14648606D01*
X9183937Y-14639082D01*
X9174413Y-14629558D01*
X9164889Y-14610511D01*
X9155366Y-14572416D01*
X9155366Y-14524797D01*
X9164889Y-14486701D01*
X9174413Y-14467654D01*
X9183937Y-14458130D01*
X9202985Y-14448606D01*
X9393461Y-14448606D02*
X9412508Y-14448606D01*
X9431556Y-14458130D01*
X9441080Y-14467654D01*
X9450604Y-14486701D01*
X9460127Y-14524797D01*
X9460127Y-14572416D01*
X9450604Y-14610511D01*
X9441080Y-14629558D01*
X9431556Y-14639082D01*
X9412508Y-14648606D01*
X9393461Y-14648606D01*
X9374413Y-14639082D01*
X9364889Y-14629558D01*
X9355366Y-14610511D01*
X9345842Y-14572416D01*
X9345842Y-14524797D01*
X9355366Y-14486701D01*
X9364889Y-14467654D01*
X9374413Y-14458130D01*
X9393461Y-14448606D01*
X9583937Y-14448606D02*
X9602985Y-14448606D01*
X9622032Y-14458130D01*
X9631556Y-14467654D01*
X9641080Y-14486701D01*
X9650604Y-14524797D01*
X9650604Y-14572416D01*
X9641080Y-14610511D01*
X9631556Y-14629558D01*
X9622032Y-14639082D01*
X9602985Y-14648606D01*
X9583937Y-14648606D01*
X9564889Y-14639082D01*
X9555366Y-14629558D01*
X9545842Y-14610511D01*
X9536318Y-14572416D01*
X9536318Y-14524797D01*
X9545842Y-14486701D01*
X9555366Y-14467654D01*
X9564889Y-14458130D01*
X9583937Y-14448606D01*
X9736318Y-14648606D02*
X9736318Y-14515273D01*
X9736318Y-14534320D02*
X9745842Y-14524797D01*
X9764889Y-14515273D01*
X9793461Y-14515273D01*
X9812508Y-14524797D01*
X9822032Y-14543844D01*
X9822032Y-14648606D01*
X9822032Y-14543844D02*
X9831556Y-14524797D01*
X9850604Y-14515273D01*
X9879175Y-14515273D01*
X9898223Y-14524797D01*
X9907746Y-14543844D01*
X9907746Y-14648606D01*
X10002985Y-14648606D02*
X10002985Y-14515273D01*
X10002985Y-14534320D02*
X10012508Y-14524797D01*
X10031556Y-14515273D01*
X10060127Y-14515273D01*
X10079175Y-14524797D01*
X10088699Y-14543844D01*
X10088699Y-14648606D01*
X10088699Y-14543844D02*
X10098223Y-14524797D01*
X10117270Y-14515273D01*
X10145842Y-14515273D01*
X10164889Y-14524797D01*
X10174413Y-14543844D01*
X10174413Y-14648606D01*
X10564889Y-14439082D02*
X10393461Y-14696225D01*
X10822032Y-14448606D02*
X10841080Y-14448606D01*
X10860127Y-14458130D01*
X10869651Y-14467654D01*
X10879175Y-14486701D01*
X10888699Y-14524797D01*
X10888699Y-14572416D01*
X10879175Y-14610511D01*
X10869651Y-14629558D01*
X10860127Y-14639082D01*
X10841080Y-14648606D01*
X10822032Y-14648606D01*
X10802985Y-14639082D01*
X10793461Y-14629558D01*
X10783937Y-14610511D01*
X10774413Y-14572416D01*
X10774413Y-14524797D01*
X10783937Y-14486701D01*
X10793461Y-14467654D01*
X10802985Y-14458130D01*
X10822032Y-14448606D01*
X10974413Y-14629558D02*
X10983937Y-14639082D01*
X10974413Y-14648606D01*
X10964889Y-14639082D01*
X10974413Y-14629558D01*
X10974413Y-14648606D01*
X11107746Y-14448606D02*
X11126794Y-14448606D01*
X11145842Y-14458130D01*
X11155366Y-14467654D01*
X11164889Y-14486701D01*
X11174413Y-14524797D01*
X11174413Y-14572416D01*
X11164889Y-14610511D01*
X11155366Y-14629558D01*
X11145842Y-14639082D01*
X11126794Y-14648606D01*
X11107746Y-14648606D01*
X11088699Y-14639082D01*
X11079175Y-14629558D01*
X11069651Y-14610511D01*
X11060127Y-14572416D01*
X11060127Y-14524797D01*
X11069651Y-14486701D01*
X11079175Y-14467654D01*
X11088699Y-14458130D01*
X11107746Y-14448606D01*
X11241080Y-14448606D02*
X11364889Y-14448606D01*
X11298223Y-14524797D01*
X11326794Y-14524797D01*
X11345842Y-14534320D01*
X11355365Y-14543844D01*
X11364889Y-14562892D01*
X11364889Y-14610511D01*
X11355365Y-14629558D01*
X11345842Y-14639082D01*
X11326794Y-14648606D01*
X11269651Y-14648606D01*
X11250604Y-14639082D01*
X11241080Y-14629558D01*
X11460127Y-14648606D02*
X11498223Y-14648606D01*
X11517270Y-14639082D01*
X11526794Y-14629558D01*
X11545842Y-14600987D01*
X11555365Y-14562892D01*
X11555365Y-14486701D01*
X11545842Y-14467654D01*
X11536318Y-14458130D01*
X11517270Y-14448606D01*
X11479175Y-14448606D01*
X11460127Y-14458130D01*
X11450604Y-14467654D01*
X11441080Y-14486701D01*
X11441080Y-14534320D01*
X11450604Y-14553368D01*
X11460127Y-14562892D01*
X11479175Y-14572416D01*
X11517270Y-14572416D01*
X11536318Y-14562892D01*
X11545842Y-14553368D01*
X11555365Y-14534320D01*
X11726794Y-14515273D02*
X11726794Y-14648606D01*
X11679175Y-14439082D02*
X11631556Y-14581939D01*
X11755365Y-14581939D01*
X11822032Y-14448606D02*
X11822032Y-14486701D01*
X11898223Y-14448606D02*
X11898223Y-14486701D01*
X12193461Y-14724797D02*
X12183937Y-14715273D01*
X12164889Y-14686701D01*
X12155365Y-14667654D01*
X12145842Y-14639082D01*
X12136318Y-14591463D01*
X12136318Y-14553368D01*
X12145842Y-14505749D01*
X12155365Y-14477178D01*
X12164889Y-14458130D01*
X12183937Y-14429558D01*
X12193461Y-14420035D01*
X12355365Y-14448606D02*
X12317270Y-14448606D01*
X12298223Y-14458130D01*
X12288699Y-14467654D01*
X12269651Y-14496225D01*
X12260127Y-14534320D01*
X12260127Y-14610511D01*
X12269651Y-14629558D01*
X12279175Y-14639082D01*
X12298223Y-14648606D01*
X12336318Y-14648606D01*
X12355365Y-14639082D01*
X12364889Y-14629558D01*
X12374413Y-14610511D01*
X12374413Y-14562892D01*
X12364889Y-14543844D01*
X12355365Y-14534320D01*
X12336318Y-14524797D01*
X12298223Y-14524797D01*
X12279175Y-14534320D01*
X12269651Y-14543844D01*
X12260127Y-14562892D01*
X12441080Y-14448606D02*
X12564889Y-14448606D01*
X12498223Y-14524797D01*
X12526794Y-14524797D01*
X12545842Y-14534320D01*
X12555365Y-14543844D01*
X12564889Y-14562892D01*
X12564889Y-14610511D01*
X12555365Y-14629558D01*
X12545842Y-14639082D01*
X12526794Y-14648606D01*
X12469651Y-14648606D01*
X12450604Y-14639082D01*
X12441080Y-14629558D01*
X12802984Y-14648606D02*
X12802984Y-14448606D01*
X12888699Y-14648606D02*
X12888699Y-14543844D01*
X12879175Y-14524797D01*
X12860127Y-14515273D01*
X12831556Y-14515273D01*
X12812508Y-14524797D01*
X12802984Y-14534320D01*
X13012508Y-14648606D02*
X12993461Y-14639082D01*
X12983937Y-14629558D01*
X12974413Y-14610511D01*
X12974413Y-14553368D01*
X12983937Y-14534320D01*
X12993461Y-14524797D01*
X13012508Y-14515273D01*
X13041080Y-14515273D01*
X13060127Y-14524797D01*
X13069651Y-14534320D01*
X13079175Y-14553368D01*
X13079175Y-14610511D01*
X13069651Y-14629558D01*
X13060127Y-14639082D01*
X13041080Y-14648606D01*
X13012508Y-14648606D01*
X13193461Y-14648606D02*
X13174413Y-14639082D01*
X13164889Y-14620035D01*
X13164889Y-14448606D01*
X13345842Y-14639082D02*
X13326794Y-14648606D01*
X13288699Y-14648606D01*
X13269651Y-14639082D01*
X13260127Y-14620035D01*
X13260127Y-14543844D01*
X13269651Y-14524797D01*
X13288699Y-14515273D01*
X13326794Y-14515273D01*
X13345842Y-14524797D01*
X13355365Y-14543844D01*
X13355365Y-14562892D01*
X13260127Y-14581939D01*
X13431556Y-14639082D02*
X13450604Y-14648606D01*
X13488699Y-14648606D01*
X13507746Y-14639082D01*
X13517270Y-14620035D01*
X13517270Y-14610511D01*
X13507746Y-14591463D01*
X13488699Y-14581939D01*
X13460127Y-14581939D01*
X13441080Y-14572416D01*
X13431556Y-14553368D01*
X13431556Y-14543844D01*
X13441080Y-14524797D01*
X13460127Y-14515273D01*
X13488699Y-14515273D01*
X13507746Y-14524797D01*
X13583937Y-14724797D02*
X13593461Y-14715273D01*
X13612508Y-14686701D01*
X13622032Y-14667654D01*
X13631556Y-14639082D01*
X13641080Y-14591463D01*
X13641080Y-14553368D01*
X13631556Y-14505749D01*
X13622032Y-14477178D01*
X13612508Y-14458130D01*
X13593461Y-14429558D01*
X13583937Y-14420035D01*
M02*
