M48
; DRILL file {KiCad (6.0.6)} date Thu Aug 18 19:45:58 2022
; FORMAT={-:-/ absolute / metric / decimal}
; #@! TF.CreationDate,2022-08-18T19:45:58-05:00
; #@! TF.GenerationSoftware,Kicad,Pcbnew,(6.0.6)
; #@! TF.FileFunction,Plated,1,2,PTH
FMAT,2
METRIC
; #@! TA.AperFunction,Plated,PTH,ViaDrill
T1C0.300
; #@! TA.AperFunction,Plated,PTH,ViaDrill
T2C0.400
; #@! TA.AperFunction,Plated,PTH,ComponentDrill
T3C1.000
%
G90
G05
T1
X94.65Y-120.68
X95.45Y-121.46
X95.93Y-125.51
X96.25Y-122.25
X97.17Y-125.25
X98.127Y-109.833
X98.42Y-125.51
X98.614Y-112.806
X98.839Y-110.558
X99.46Y-63.48
X99.553Y-111.272
X99.69Y-125.25
X99.74Y-117.23
X100.281Y-111.999
X100.92Y-125.51
X101.756Y-113.474
X102.17Y-125.24
X103.42Y-125.51
X103.516Y-80.671
X103.516Y-82.22
X103.516Y-83.77
X105.85Y-113.56
X107.42Y-114.174
X109.218Y-113.144
X109.83Y-112.63
X110.88Y-92.3
X110.88Y-99.74
X111.263Y-97.453
X111.67Y-100.65
X112.18Y-120.7
X112.84Y-106.33
X112.98Y-107.14
X112.98Y-121.43
X113.16Y-98.59
X113.425Y-125.519
X113.48Y-105.59
X113.579Y-110.071
X113.78Y-122.16
X114.18Y-110.69
X114.67Y-125.25
X115.062Y-107.739
X115.83Y-71.25
X115.925Y-125.517
X116.113Y-112.39
X116.59Y-56.07
X116.675Y-111.64
X117.17Y-125.25
X117.372Y-106.171
X118.08Y-114.08
X118.425Y-125.517
X118.88Y-111.309
X119.37Y-57.12
X119.4Y-92.3
X119.4Y-99.74
X119.67Y-125.25
X119.74Y-109.17
X119.92Y-86.8
X119.92Y-97.39
X120.25Y-100.61
X120.69Y-106.92
X120.924Y-125.517
X121.3Y-114.07
X122.0Y-109.55
X122.19Y-113.61
X122.2Y-120.69
X122.591Y-108.031
X123.0Y-121.47
X123.425Y-125.519
X123.8Y-122.2
X123.89Y-106.82
X124.615Y-108.549
X124.68Y-125.25
X125.64Y-113.59
X125.925Y-125.517
X125.958Y-102.808
X126.57Y-102.26
X126.716Y-106.156
X127.17Y-125.25
X127.32Y-106.68
X127.91Y-92.3
X128.09Y-109.57
X128.108Y-99.752
X128.425Y-125.517
X128.484Y-97.301
X128.598Y-110.24
X128.68Y-100.62
X128.88Y-114.09
X129.242Y-111.551
X129.67Y-125.25
X129.91Y-109.8
X130.51Y-114.09
X130.924Y-125.517
X131.18Y-110.32
X131.91Y-62.9
X132.18Y-112.891
X132.2Y-120.7
X132.88Y-113.62
X133.0Y-121.48
X133.425Y-125.519
X133.8Y-122.22
X134.4Y-113.89
X134.67Y-125.25
X134.959Y-111.386
X135.559Y-108.549
X135.571Y-110.309
X135.925Y-125.517
X136.43Y-92.3
X136.51Y-99.74
X136.998Y-97.298
X137.17Y-125.25
X137.23Y-112.4
X137.294Y-53.96
X137.3Y-100.6
X137.7Y-107.42
X137.706Y-108.287
X138.09Y-98.96
X138.35Y-108.76
X138.425Y-125.517
X138.87Y-109.71
X138.87Y-111.81
X139.666Y-53.96
X139.67Y-125.25
X140.51Y-110.39
X140.69Y-67.34
X140.925Y-125.519
X141.24Y-114.331
X141.75Y-53.96
X142.18Y-108.87
X142.18Y-120.7
X142.47Y-92.33
X142.97Y-109.65
X142.98Y-121.43
X143.426Y-125.517
X143.77Y-110.3
X143.78Y-122.21
X144.57Y-117.3
X144.67Y-125.25
X145.49Y-98.12
X145.925Y-125.517
X147.17Y-125.25
X147.27Y-116.088
X148.06Y-107.72
X148.425Y-125.517
X148.865Y-106.685
X149.67Y-125.25
X149.69Y-106.025
X150.925Y-125.519
X152.21Y-108.14
X152.96Y-114.78
X153.77Y-117.31
X154.58Y-116.56
X157.27Y-120.91
X158.07Y-115.17
X158.07Y-121.56
X158.87Y-122.17
X158.96Y-117.18
X159.27Y-93.43
X159.519Y-105.74
X160.231Y-106.442
X160.36Y-117.779
X160.925Y-125.519
X160.969Y-107.116
X161.774Y-107.708
X162.16Y-114.61
X162.18Y-121.94
X162.599Y-108.272
X163.41Y-108.855
X164.08Y-109.6
X165.11Y-97.45
X166.085Y-92.25
X172.97Y-115.1
X172.98Y-121.355
X173.426Y-125.517
X173.698Y-113.306
X173.76Y-122.079
X174.46Y-81.72
X174.67Y-125.25
X174.685Y-114.03
X175.925Y-125.517
X176.34Y-92.25
X176.83Y-108.72
X177.17Y-125.25
X177.8Y-108.28
X178.424Y-125.517
X178.56Y-109.73
X179.41Y-81.74
X179.41Y-83.0
X179.42Y-84.27
X180.1Y-88.59
X181.56Y-95.58
T2
X95.9Y-106.0
X164.924Y-125.384
X186.0Y-115.12
T3
X88.25Y-30.46
X88.25Y-33.0
X88.25Y-35.54
X88.25Y-38.08
X88.25Y-40.62
X88.25Y-43.16
X88.25Y-45.7
X88.25Y-48.24
X88.25Y-50.78
X88.25Y-53.32
X88.25Y-55.86
X88.25Y-58.4
X88.25Y-60.94
X88.25Y-63.48
X88.25Y-66.02
X88.25Y-68.56
X88.25Y-71.1
X88.25Y-73.64
X88.25Y-76.18
X88.25Y-78.72
X89.795Y-84.14
X92.335Y-84.14
X94.875Y-84.14
X106.03Y-30.46
X106.03Y-33.0
X106.03Y-35.54
X106.03Y-38.08
X106.03Y-40.62
X106.03Y-43.16
X106.03Y-45.7
X106.03Y-48.24
X106.03Y-50.78
X106.03Y-53.32
X106.03Y-55.86
X106.03Y-58.4
X106.03Y-60.94
X106.03Y-63.48
X106.03Y-66.02
X106.03Y-68.56
X106.03Y-71.1
X106.03Y-73.64
X106.03Y-76.18
X106.03Y-78.72
X154.76Y-40.61
X154.76Y-43.15
X160.22Y-40.61
X160.22Y-43.15
X160.22Y-49.2
X165.05Y-49.07
X169.88Y-49.2
X172.93Y-34.0
X172.93Y-36.54
X173.83Y-74.14
X176.37Y-74.14
X176.625Y-34.0
X176.625Y-36.54
X178.91Y-74.14
X180.32Y-34.0
X180.32Y-36.54
X181.45Y-74.14
X183.99Y-74.14
X184.0Y-34.0
X184.0Y-36.54
T0
M30
